<?xml version="1.0" encoding="utf-8"?>
<svg  id="container"  xmlns="http://www.w3.org/2000/svg" xmlns:xlink="http://www.w3.org/1999/xlink" preserveAspectRatio="xMinYMin meet"  viewBox="0 0 900.59 946.84">



  <g id="BG"  style="pointer-events:none;" transform="translate(300,30)">
      <path d="M180.75 12.47c.4.57 1 .91 1.43 1.48a92 92 0 0 1 5.32 9.3 27.11 27.11 0 0 1 2.29 5c1.46 4.87.09 10.09-1.27 15l-5.84 20.94a33.82 33.82 0 0 1-1.29 4c-.48 1.14-1.08 2.23-1.61 3.35a27.35 27.35 0 0 0-2.79 12.19l-2 5.42c-3.63 8.25-3.21 18.5 2.24 25.68 2.49 3.27 5.84 5.76 9.15 8.2a37.75 37.75 0 0 0 3.66 2.49 23.22 23.22 0 0 0 6.07 2.33l3.81.54c5.7.71 10.75-.33 18.6-.62 4.39.82 8.9.23 13.37.34s9.23 1.11 12.27 4.38a24.92 24.92 0 0 1 3.41 5.72c1.45 2.79 3.09 5.47 4.69 8.17 5.5 9.28 11.84 18.34 16.12 28.22a67.26 67.26 0 0 1 2.71 7.33 264.23 264.23 0 0 1 8.92 41.18c.91 6.75 1.56 13.57 3.24 20.17a40.82 40.82 0 0 0 2.15 6.44l14.9 26.63c7.17 13.13 6.92 30.33 8 45.25.28 3.88.43 7.77.95 11.62.68 5.1 2 10.09 3 15.13 1.58 7.63 2.56 15.39 4.66 22.89s5.43 14.86 11 20.33l-3 6.61c-2.9 4.25-3 9.73-3.46 14.86s-1.45 10.73-5.43 14a19.77 19.77 0 0 1-6.13 3.06 18.86 18.86 0 0 1-7 1.44 23.37 23.37 0 0 1-5.51-.92c-2.53-.7-4.28-3.14-4.93-5.68a22.59 22.59 0 0 1-.12-7.84l1.08-10.66a28.43 28.43 0 0 0 .21-5.15c-.38-4.67-3-8.89-3.65-13.52-.5-3.63.26-7.3.72-10.93s.6-7.5-1-10.78a264.38 264.38 0 0 1-11-24.42c-.69-1.86-1.26-3.75-1.83-5.65l-3.91-13.07c-1.87-6.25-3.74-12.54-4.57-19l-2.94-7.19c-3.3-5.74-6.61-11.48-9.48-17.44-8.39-17.39-13-36.32-19.67-54.43-.72-2-2-3.54-3-5.38a47.33 47.33 0 0 0-4.45-7l-2.61-2.81c-5.9-7.73 2.61-21.75 2.61-21.75-5.67 8.67-7.32 19.31-8.44 29.61-.49 4.52.09 9.07.26 13.61.07 2 .26 3.92.44 5.88.33 3.57 1.1 7.13 1.35 10.71.46 6.71.9 13.43 1 20.15.09 4.57.08 9.11.19 13.63h-.18a108.47 108.47 0 0 0 2 19.81 176.46 176.46 0 0 0 5.79 20.94c2.91 8.44 6.45 16.67 9 25.22h-.22c.89 3 1.21 6.08 2.65 8.82 4.75 9 5.64 19.45 6.45 29.57l1.92 23.94c.38 4.71.35 9.29.37 13.94 0 1.87 0 3.76.06 5.66a151.11 151.11 0 0 1-.37 17.73c-.45 4.83-1.3 9.6-2.05 14.39a376 376 0 0 0-4.15 40.71l.89 22.39c-1.07 2.83-1 5.95-.94 9s.26 5.93.41 8.89a73.53 73.53 0 0 0 .69 7.85c.38 2.33 1 4.62 1.36 7a65.31 65.31 0 0 1 .69 7.6c.34 7.38-1.43 14.51-1.7 21.89-.15 4.17-1.54 8.18-2.91 12.12l-2.75 7.88a115.23 115.23 0 0 0-4.17 13.81c-.43 2-.76 4.1-1.08 6.16-.78 5-1.56 10.07-.48 15l6.88 8.95a2.57 2.57 0 0 1 .46 1.75 43.63 43.63 0 0 1-2.27 15.23 33.42 33.42 0 0 1-1.5 3.53c-2.11 4.28-5.28 7.75-8.26 11.49a26.16 26.16 0 0 0-5.06 21.89c.36 1.55.87 3.06 1.21 4.62a24.34 24.34 0 0 1-.55 11.95 12.72 12.72 0 0 1-2.77 5.32 16.4 16.4 0 0 1-3.49 2.45c-3.9 2.32-8 4.71-12.53 4.93a8.88 8.88 0 0 1-3.58-.57 10.43 10.43 0 0 1-4.77-4.31 33.71 33.71 0 0 1-5.69-19.72 67 67 0 0 1 1.57-11.33l5.66-27.55c1.49-7.28 1.18-14.61 1.76-22l1-9q-3.74-23.79-6.09-47.76c-1-10-1.78-20.25 0-30.19 1.07-6 .4-12.09 1.39-18.15l.14-14.18a9.77 9.77 0 0 1-1-2.8 96.23 96.23 0 0 1-1.17-41c.14-.75.45-1.38.58-2.13 1.25-7.14-.15-14.46-1.79-21.52q-1.93-8.34-4.3-16.58a17.11 17.11 0 0 1-.72-4.65 22.53 22.53 0 0 1 .28-3.24c.22-1.61 2.13-3.72.9-4.78-20.32-17.54-33.95-6.68-33.95-6.68-1 4.21-2.93 8.27-4.23 12.4-2 6.21-2.36 12.78-3.73 19.15-.38 1.78-.84 3.54-1.21 5.31-1.38 6.58-.86 13.55-2 20.19-1.29 7.78-2.54 15.63-2.33 23.51.06 2.13.22 4.25.23 6.38 0 1.53-.07 3.05-.15 4.58l-.56 11.28.42 10.87c-.63 4.18-1.95 9.4.71 12.68a12 12 0 0 1 1.88 4.14l1.2 3.91c.47 1.54.95 3.08 1.27 4.66a50.76 50.76 0 0 1 .78 7c.52 8.09 1.67 16.4-.22 24.28l-1.26 5.25c-.36 1.52-.73 3-1 4.59-.28 1.72-.42 3.46-.56 5.19-.32 3.9 0 7.88-.68 11.73-1.37 7.38-2.75 14.8-2.89 22.31a66.52 66.52 0 0 0 1.91 19.09 159.86 159.86 0 0 0 7.41 20.71c1.87 4.32 3.29 8.69 5 13.09a59.57 59.57 0 0 1 3.15 27 29.88 29.88 0 0 1-.6 3.91 37.61 37.61 0 0 1-4.12 9.35 7.39 7.39 0 0 1-3.47 3.59 37.42 37.42 0 0 1-4.17 2.31 19 19 0 0 1-11.17 1.55c0 .06-.13-.22-.1-.16a58.13 58.13 0 0 1-6.12-3.54 19.35 19.35 0 0 1-4.88-4.25c-2.23-2.94-2.92-6.73-3.43-10.39a54.85 54.85 0 0 1-.61-13.33 33.92 33.92 0 0 0 .5-6.86 17.88 17.88 0 0 0-2.17-6.37c-1.93-3.71-4.37-7.15-6.06-11s-2.56-8.25-1.18-12.19c1.81-5.18 1.68-11 2.12-16.43.31-3.76.49-7.62-.6-11.23-.89-2.94-2.61-5.71-2.6-8.78 0-10.51-5.62-20.26-8.4-30.39-1-3.5-1.92-7-2.58-10.57a62.09 62.09 0 0 1-.74-16.91c.55-5.85-.42-11.54-.52-17.42v-5.54l.21-11.94-2.84-13.87c-14.35-35.23-20.27-73.12-25-111q-1.08-8.71-2.09-17.4c-.91-7.7-1.83-15.45-1.34-23.19.76-12 4.85-23.5 8.54-35 3.62-11.09 6.86-22.2 6.35-33.74-.49-10.9-3.19-22.28-5.87-32.86-1-3.78-2.06-7.53-2.85-11.35-3.71-17.85-1.13-39-10-52.94l-.53.51q-.52 1.49-1 3a84.11 84.11 0 0 0-4.41 17.11 89.22 89.22 0 0 0-.45 11.35c.08 12 .5 24.2-3.14 35.6l-1.26 10.46c1.3 12.33 2.38 25.72-4.21 36.22-1.55 2.48-3.49 4.7-5.07 7.16-6.38 9.89-6.55 22.52-11.07 33.39-.9 2.16-1.37 4-2.08 6.26 2.47 2.86 5 5.83 6.14 9.43a25.63 25.63 0 0 1 .9 7.49 140.47 140.47 0 0 1-5.17 39.41c-1.13 4-2.52 8.17-5.3 11.32s-7.3 5.12-11.28 3.78c-3.71-1.25-6-4.94-7.32-8.63s-1.84-7.65-3.54-11.17c-1.42-2.95-3.62-5.5-4.8-8.55-2.27-5.86-.44-12.52 2.43-18.11s6.07-11.44 9-17c2.12-4.05 2.18-8.83 2.08-13.4-.43-20.62-3-41.45.75-61.75a94.4 94.4 0 0 0 1.88-11.81c.42-7.83-1.12-15.32-.83-23.16a86.59 86.59 0 0 0-1.23-18c-.08-.45 0-1.52.45-1.6-1.27-4.08-1.28-8.42-1.2-12.69.25-13.62-.53-28.33 4-41.19a31.33 31.33 0 0 0 1-3.42c1.43-6.34 1.11-13.06 1.69-19.59 1.24-14.11 7.83-28.84 20.57-35a45.87 45.87 0 0 1 10.85-3.41c3.51-.73 7.1-1.28 10.69-1.81 12.32-1.81 24.79-3.28 35.14-9.93a70.67 70.67 0 0 0 10.53-8.74 57.09 57.09 0 0 0 7.55-8.38c5.16-7.42 9.6-17.1 8.86-26.07a21.51 21.51 0 0 0-.85-4.52l-1.37-4.49-2.3-7.53c-.6-2-1.2-3.94-1.94-5.87-3-7.91-8.35-15-9.66-23.4a36.5 36.5 0 0 1-.36-6.29c.09-5.05.86-10.31 3.72-14.47s7.8-7.12 12.61-5.56a3.43 3.43 0 0 1 .4-3.08 10.14 10.14 0 0 1 2.24-2.31 28 28 0 0 1 7-4.76 27.71 27.71 0 0 1 3.57-1.11c4.88-1.28 9.81-2.54 14.85-2.74s11 0 15.2 2.78c-.05-.05 8.23 3.63 12.41 9.58z" class="back_bg_2"/>
  </g>
  <g id="container_path_models" transform="translate(300,30)"  >
      
       <path        d="M100.08 548.89l-.21 11.94c0 1.85-.06 3.69 0 5.54.1 5.87 1.07 11.57.52 17.42a62.09 62.09 0 0 0 .74 16.91c.65 3.57 1.61 7.07 2.58 10.57 2.79 10.13 8.44 19.88 8.4 30.39 0 3.07 1.71 5.84 2.6 8.78 1.09 3.61.91 7.47.6 11.23-.45 5.47-.31 11.25-2.12 16.43-1.38 3.95-.5 8.36 1.18 12.19s4.13 7.27 6.06 11a17.88 17.88 0 0 1 2.17 6.37 33.92 33.92 0 0 1-.5 6.86 54.85 54.85 0 0 0 .61 13.33c.51 3.65 1.21 7.45 3.43 10.39a19.35 19.35 0 0 0 4.88 4.25 58.13 58.13 0 0 0 6.12 3.54c0-.06.13.22.1.16a19 19 0 0 0 11.16-1.59 37.42 37.42 0 0 0 4.17-2.31 7.39 7.39 0 0 0 3.47-3.59 37.61 37.61 0 0 0 4.12-9.35 29.88 29.88 0 0 0 .6-3.91 59.57 59.57 0 0 0-3.15-27c-1.67-4.41-3.09-8.77-5-13.09a159.86 159.86 0 0 1-7.35-20.75 66.52 66.52 0 0 1-1.86-19.06c.14-7.51 1.52-14.93 2.89-22.31.72-3.85.37-7.83.68-11.73.14-1.74.28-3.47.56-5.19.25-1.54.62-3.07 1-4.59l1.26-5.25c1.89-7.88.74-16.19.22-24.28a50.76 50.76 0 0 0-.78-7c-.32-1.58-.8-3.12-1.27-4.66l-1.2-3.91a12 12 0 0 0-1.88-4.14c-2.66-3.28-1.34-8.51-.71-12.68" class="back_fill_out1"/>
        <path       d="M119.11 674.62c4.31-2.43 9-4.95 13.91-4.42a20.48 20.48 0 0 1 8.55 3.5" class="back_fill_out1"/>
        <path       d="M143.72 528.92l.56-11.28c.08-1.53.15-3.05.15-4.58 0-2.13-.17-4.25-.23-6.38-.21-7.88 1-15.73 2.33-23.51 1.1-6.63.57-13.61 2-20.19.37-1.78.83-3.54 1.21-5.31 1.37-6.36 1.77-12.94 3.73-19.15 1.3-4.12 3.25-8.18 4.23-12.4" class="back_fill_out1"/>
        <path       d="M198.84 529.5a9.77 9.77 0 0 1-1-2.8 96.23 96.23 0 0 1-1.17-41c.14-.75.45-1.38.58-2.13 1.25-7.14-.15-14.46-1.79-21.52q-1.93-8.34-4.3-16.58a17.11 17.11 0 0 1-.72-4.65 22.53 22.53 0 0 1 .28-3.24 30.36 30.36 0 0 1 .9-4.78" class="back_fill_out1"/>
        <path       d="M202.4 648.75c-.57 7.41-.26 14.74-1.76 22l-5.66 27.6a67 67 0 0 0-1.66 11.35 33.71 33.71 0 0 0 5.69 19.65 10.43 10.43 0 0 0 4.77 4.31 8.88 8.88 0 0 0 3.58.57c4.53-.22 8.63-2.61 12.53-4.93a16.4 16.4 0 0 0 3.57-2.59 12.72 12.72 0 0 0 2.77-5.32 24.34 24.34 0 0 0 .55-11.95c-.34-1.56-.85-3.07-1.21-4.62a26.16 26.16 0 0 1 5.06-21.89c3-3.74 6.15-7.2 8.26-11.49a33.42 33.42 0 0 0 1.5-3.53 43.63 43.63 0 0 0 2.27-15.23 2.57 2.57 0 0 0-.46-1.75" class="back_fill_out1"/>
        <path       d="M206.86 662.06a44.22 44.22 0 0 1 4.8-7.12 18.23 18.23 0 0 1 2.11-2.22 20.85 20.85 0 0 1 7.54-3.67c2.56-.8 5.45-1.48 7.81-.21" class="back_fill_out1"/>
        <path       d="M203.4 639.78q-3.74-23.79-6.09-47.76c-1-10-1.78-20.25 0-30.19 1.07-6 .4-12.09 1.39-18.15" class="back_fill_out1"/>
        <path       d="M235.32 642.04c-1.08-4.91-.3-10 .48-15 .32-2.06.65-4.12 1.08-6.16a115.23 115.23 0 0 1 4.17-13.81l2.75-7.88c1.37-3.94 2.76-8 2.91-12.12.27-7.38 2-14.51 1.7-21.89a65.31 65.31 0 0 0-.69-7.6c-.38-2.33-1-4.62-1.36-7a73.53 73.53 0 0 1-.69-7.85c-.15-3-.31-5.92-.41-8.89s-.13-6.14.94-9" class="back_fill_out1"/>
        <path id="back3" d="M220.78 217.84c1.12-10.3 2.77-20.94 8.44-29.61l-10.37-59.1a50.51 50.51 0 0 1-17.2.83 37.69 37.69 0 0 1-4.21-.75l-49 3.48v84.22z" class="back_fill_out2"/>
        <path id="back6" d="M148.4 281.83V216.9l73.38.94a93.58 93.58 0 0 0-.74 13.61c.07 2 .26 3.92.44 5.88.33 3.57 1.1 7.13 1.35 10.71.46 6.71.9 13.43 1 20.15.09 4.57.08 9.11.19 13.63z" class="back_fill_out2"/>
        <path id="back8" d="M149.4 347.8l-1-64.95 75.46-1a108.47 108.47 0 0 0 2 19.81 176.46 176.46 0 0 0 5.79 20.94c2.91 8.44 6.45 16.67 9 25.22z" class="back_fill_out2"/>
        <path id="back10" d="M251.81 424.05c0-4.64 0-9.22-.37-13.94l-1.92-23.94c-.81-10.12-1.71-20.55-6.45-29.57-1.44-2.74-1.76-5.86-2.65-8.82h-78.77l3.75 75.27z" class="back_fill_out2"/>
        <path       d="M245.31 502.54a376 376 0 0 1 4.15-40.71c.75-4.79 1.6-9.57 2.05-14.39a151.11 151.11 0 0 0 .37-17.73c0-1.91-.06-3.79-.06-5.66" class="back_fill_out1"/>
        <path id="back4" d="M226.61 209.99c.78 1 1.81 1.81 2.61 2.81l39.58-37.87c-4.28-9.87-10.63-18.94-16.12-28.22-1.6-2.7-3.24-5.38-4.69-8.17a24.92 24.92 0 0 0-3.51-5.68c-3-3.27-7.81-4.27-12.27-4.38s-9 .48-13.37-.34l10.37 60.1s-8.5 14.02-2.6 21.75z" class="back_fill_out2"/>
        <path       d="M325.33 398.52c-2.9 4.25-3 9.73-3.46 14.86s-1.47 10.73-5.47 13.97a19.77 19.77 0 0 1-6.13 3.06 18.86 18.86 0 0 1-7 1.44 23.37 23.37 0 0 1-5.51-.92c-2.53-.7-4.28-3.14-4.93-5.68a22.59 22.59 0 0 1-.12-7.84l1.08-10.66a28.43 28.43 0 0 0 .21-5.15c-.38-4.67-3-8.89-3.65-13.52-.5-3.63.26-7.3.72-10.93s.6-7.5-1-10.78a264.38 264.38 0 0 1-11-24.42c-.69-1.86-1.26-3.75-1.83-5.65l-3.84-13.06c-1.87-6.25-3.74-12.54-4.57-19l-2.94-7.19" class="back_fill_out1"/>
        <path       d="M328.33 391.91c-5.55-5.47-8.88-12.83-11-20.33s-3.09-15.26-4.66-22.89c-1-5-2.34-10-3-15.13-.51-3.85-.67-7.74-.95-11.62-1.06-14.92-.81-32.12-8-45.25l-2.35-5.8" class="back_fill_out1"/>
        <path       d="M265.87 297.04c-3.3-5.74-6.61-11.48-9.48-17.44-8.39-17.39-13-36.32-19.67-54.43-.72-2-2-3.54-3-5.38a47.33 47.33 0 0 0-4.45-7l39.58-37.87a67.26 67.26 0 0 1 2.71 7.33 264.23 264.23 0 0 1 8.84 41.2c.91 6.75 1.56 13.57 3.24 20.17a40.82 40.82 0 0 0 2.15 6.44 59.16 59.16 0 0 0 2.8 5.32 141 141 0 0 0 9.81 15.5" class="back_fill_out4"/>
        <path       d="M130.13 78.01c5.53.46 11.07-.43 16.56-1.22s11.09-1.48 16.57-.64 10.93 3.39 14.1 7.95a27.35 27.35 0 0 1 2.79-12.19c.53-1.12 1.13-2.21 1.61-3.35a33.82 33.82 0 0 0 1.29-4l5.84-20.94c1.37-4.9 2.74-10.12 1.27-15a27.11 27.11 0 0 0-2.29-5 92 92 0 0 0-5.32-9.3 4.5 4.5 0 0 0-1.43-1.48" class="back_fill_out1"/>
        <path       d="M19.64 199.51a31.33 31.33 0 0 1-1 3.42c-4.49 12.86-3.71 27.57-4 41.19-.08 4.27-.07 8.61 1.2 12.69-.44.08-.53 1.15-.45 1.6a86.59 86.59 0 0 1 1.23 18c-.28 7.83 1.25 15.33.83 23.16a94.4 94.4 0 0 1-1.81 11.78c-3.71 20.29-1.18 41.12-.75 61.75.09 4.57 0 9.35-2.08 13.4-2.91 5.56-6.12 11.42-9 17s-4.69 12.26-2.43 18.11c1.18 3.05 3.37 5.6 4.8 8.55 1.7 3.52 2.26 7.47 3.54 11.17s3.62 7.38 7.32 8.63c4 1.34 8.5-.63 11.28-3.78s4.17-7.27 5.3-11.32a140.47 140.47 0 0 0 5.17-39.41 25.63 25.63 0 0 0-.9-7.49c-1.15-3.6-3.67-6.57-6.14-9.43.71-2.23 1.18-4.1 2.08-6.26 4.52-10.87 4.69-23.49 11.07-33.39 1.58-2.46 3.52-4.68 5.07-7.16 6.58-10.5 5.51-23.89 4.21-36.22" class="back_fill_out1"/>
        <path id="back1" d="M65.76 218.13c.21-.42-.08-1.39-.5-1.2a1.73 1.73 0 0 0-.77 1.11q-.52 1.49-1 3l-43.8-21.51c1.43-6.34 1.11-13.06 1.69-19.59 1.24-14.11 7.83-28.84 20.57-35a45.87 45.87 0 0 1 10.85-3.41c3.51-.73 7.1-1.28 10.69-1.81z" class="back_fill_out2"/>
        <path id="back2" d="M147.4 217.13v-85.11l-48.82-2.29c-10.35 6.65-22.82 8.11-35.14 9.93l4.29 73.69z" class="back_fill_out2"/>
        <path id="back11" d="M178.14 3.49a2.43 2.43 0 0 0-2 .66c-1.36 1-2.81 2.09-3.25 3.71a33.16 33.16 0 0 0-4.94-3.94C163.75 1.13 158.53.2 153.49.4s-10 1.46-14.85 2.74a27.71 27.71 0 0 0-3.57 1.11 28 28 0 0 0-7 4.76 10.14 10.14 0 0 0-2.29 2.34 3.43 3.43 0 0 0-.4 3.08c-4.81-1.55-9.75 1.4-12.61 5.56s-3.64 9.42-3.72 14.47a36.5 36.5 0 0 0 .36 6.29c1.31 8.37 6.63 15.49 9.66 23.4.74 1.92 1.34 3.9 1.94 5.87l2.3 7.53 1.37 4.49a21.51 21.51 0 0 1 .85 4.52" class="back_fill_out1"/>
        <path       d="M72.27 424.05c4.71 37.85 10.63 75.74 25 111" class="back_fill_out1"/>
        <path id="back9" d="M72.25 424.05q-1.08-8.71-2.09-17.4c-.91-7.7-1.83-15.45-1.34-23.19.76-12 4.85-23.5 8.54-35h83.57l3.47 75.59z" class="back_fill_out2"/>
        <path id="back7" d="M77.4 348.43c3.62-11.09 6.86-22.2 6.35-33.74-.49-10.9-2.81-22.28-5.49-32.86h69.14l1 66.6" class="back_fill_out2"/>
        <path id="back5" d="M147.4 281.83v-63l-80.5-4.48-2.14 2.78c8.89 14 6.56 35.5 10.27 53.35.79 3.82 1.88 7.57 2.85 11.35z" class="back_fill_out2"/>
        <path d="M55.4 285.08c3.64-11.4 3.22-23.63 3.14-35.6a89.22 89.22 0 0 1 .45-11.35 84.11 84.11 0 0 1 4.41-17.11" class="back_fill_out1"/>
        <path       d="M119.01 425.2a76.27 76.27 0 0 0 12.7-1.12 39.08 39.08 0 0 0 28.82-25.79 59.85 59.85 0 0 0 2.41-17.09 57.8 57.8 0 0 0-.34-8.71c-.69-5.31-2.52-10.4-4.34-15.44 1.21.2 1.41 2.32 2 3.4a8.42 8.42 0 0 0 1.87 2.08 8.64 8.64 0 0 0 3 2 3 3 0 0 0 3.26-.82 4.33 4.33 0 0 0 .61-1.92l.34-2.24a5.9 5.9 0 0 1 4.52-5.71" class="back_fill_out1"/>
        <path       d="M166.09 399.14a50.8 50.8 0 0 0 1.84 7.73 40.48 40.48 0 0 0 1.89 5.29 22.89 22.89 0 0 0 7.52 9.06 27.62 27.62 0 0 0 13.32 4.68 46.88 46.88 0 0 0 14.19-1.06 72.21 72.21 0 0 0 11.55-3.49 26.17 26.17 0 0 0 6.59-3.5 16.09 16.09 0 0 0 5.73-9" class="back_fill_out1"/>
          <path id="back12" d="M196.4 128.21a23.22 23.22 0 0 1-6.07-2.33 37.75 37.75 0 0 1-3.66-2.49c-3.31-2.44-6.66-4.93-9.15-8.2-5.46-7.17-5.87-17.43-2.24-25.68l-26.92-3v45" class="back_fill_out3"/>
        <path id="back13" d="M148.4 131.52v-45h-22.88c.74 9-3.7 18.65-8.86 26.07a57.09 57.09 0 0 1-7.55 8.38 70.67 70.67 0 0 1-10.53 8.74" class="back_fill_out3"/>
      
        <circle cx="149.92" cy="56.35" r="15" class="back_fill_out6"/>
  </g>

  <g id="Outline"  style="pointer-events:none;" transform="translate(300,30)">
 <path d="M100.08 548.89l-.21 11.94c0 1.85-.06 3.69 0 5.54.1 5.87 1.07 11.57.52 17.42a62.09 62.09 0 0 0 .74 16.91c.65 3.57 1.61 7.07 2.58 10.57 2.79 10.13 8.44 19.88 8.4 30.39 0 3.07 1.71 5.84 2.6 8.78 1.09 3.61.91 7.47.6 11.23-.45 5.47-.31 11.25-2.12 16.43-1.38 3.95-.5 8.36 1.18 12.19s4.13 7.27 6.06 11a17.88 17.88 0 0 1 2.17 6.37 33.92 33.92 0 0 1-.5 6.86 54.85 54.85 0 0 0 .61 13.33c.51 3.65 1.21 7.45 3.43 10.39a19.35 19.35 0 0 0 4.88 4.25 58.13 58.13 0 0 0 6.12 3.54c0-.06.13.22.1.16a19 19 0 0 0 11.17-1.55 37.42 37.42 0 0 0 4.17-2.31 7.39 7.39 0 0 0 3.47-3.59 37.61 37.61 0 0 0 4.12-9.35 29.88 29.88 0 0 0 .6-3.91 59.57 59.57 0 0 0-3.15-27c-1.67-4.41-3.09-8.77-5-13.09a159.86 159.86 0 0 1-7.35-20.75 66.52 66.52 0 0 1-1.91-19.09c.14-7.51 1.52-14.93 2.89-22.31.72-3.85.37-7.83.68-11.73.14-1.74.28-3.47.56-5.19.25-1.54.62-3.07 1-4.59l1.26-5.25c1.89-7.88.74-16.19.22-24.28a50.76 50.76 0 0 0-.78-7c-.32-1.58-.8-3.12-1.27-4.66l-1.2-3.91a12 12 0 0 0-1.88-4.14c-2.66-3.28-1.34-8.51-.71-12.68" class="back_out_1"/>
  <path d="M119.11 674.62c4.31-2.43 9-4.95 13.91-4.42a20.48 20.48 0 0 1 8.55 3.5" class="back_out_1"/>
  <path d="M143.72 528.92l.56-11.28c.08-1.53.15-3.05.15-4.58 0-2.13-.17-4.25-.23-6.38-.21-7.88 1-15.73 2.33-23.51 1.1-6.63.57-13.61 2-20.19.37-1.78.83-3.54 1.21-5.31 1.37-6.36 1.77-12.94 3.73-19.15 1.3-4.12 3.25-8.18 4.23-12.4" class="back_out_1"/>
  <path d="M198.8 529.5a9.77 9.77 0 0 1-1-2.8 96.23 96.23 0 0 1-1.17-41c.14-.75.45-1.38.58-2.13 1.25-7.14-.15-14.46-1.79-21.52q-1.93-8.34-4.3-16.58a17.11 17.11 0 0 1-.72-4.65 22.53 22.53 0 0 1 .28-3.24 30.36 30.36 0 0 1 .9-4.78" class="back_out_1"/>
  <path d="M202.4 648.75c-.57 7.41-.26 14.74-1.76 22l-5.66 27.6a67 67 0 0 0-1.66 11.35 33.71 33.71 0 0 0 5.69 19.65 10.43 10.43 0 0 0 4.77 4.31 8.88 8.88 0 0 0 3.58.57c4.53-.22 8.63-2.61 12.53-4.93a16.4 16.4 0 0 0 3.57-2.59 12.72 12.72 0 0 0 2.77-5.32 24.34 24.34 0 0 0 .55-11.95c-.34-1.56-.85-3.07-1.21-4.62a26.16 26.16 0 0 1 5.06-21.89c3-3.74 6.15-7.2 8.26-11.49a33.42 33.42 0 0 0 1.5-3.53 43.63 43.63 0 0 0 2.27-15.23 2.57 2.57 0 0 0-.46-1.75" class="back_out_1"/>
  <path d="M206.86 662.06a44.22 44.22 0 0 1 4.8-7.12 18.23 18.23 0 0 1 2.11-2.22 20.85 20.85 0 0 1 7.54-3.67c2.56-.8 5.45-1.48 7.81-.21" class="back_out_1"/>
  <path d="M203.43 639.78q-3.74-23.79-6.09-47.76c-1-10-1.78-20.25 0-30.19 1.07-6 .4-12.09 1.39-18.15" class="back_out_1"/>
  <path d="M235.32 642.04c-1.08-4.91-.3-10 .48-15 .32-2.06.65-4.12 1.08-6.16a115.23 115.23 0 0 1 4.17-13.81l2.75-7.88c1.37-3.94 2.76-8 2.91-12.12.27-7.38 2-14.51 1.7-21.89a65.31 65.31 0 0 0-.69-7.6c-.38-2.33-1-4.62-1.36-7a73.53 73.53 0 0 1-.69-7.85c-.15-3-.31-5.92-.41-8.89s-.13-6.14.94-9" class="back_out_1"/>
  <path d="M245.31 502.54a376 376 0 0 1 4.15-40.71c.75-4.79 1.6-9.57 2.05-14.39a151.11 151.11 0 0 0 .37-17.73c-.16-6.63.1-13-.42-19.6l-1.88-23.94c-.79-10.12-1.67-20.55-6.33-29.57-1.41-2.74-1.73-5.86-2.6-8.82-2.52-8.55-6-16.78-8.9-25.22a178 178 0 0 1-5.73-20.94c-2.31-11.05-2-22.16-2.17-33.45-.13-6.73-.57-13.44-1-20.15-.24-3.58-1-7.13-1.35-10.71-.18-2-.37-3.91-.44-5.88a93.58 93.58 0 0 1 .74-13.61c1.12-10.3 2.77-20.94 8.44-29.61" class="back_out_1"/>
  <path d="M265.87 297.04c-3.3-5.74-6.61-11.48-9.48-17.44-8.39-17.39-13-36.32-19.67-54.43-.72-2-2-3.54-3-5.38a36.41 36.41 0 0 0-7.07-9.8" class="back_out_1"/>
  <path d="M268.8 304.23c.83 6.47 2.7 12.76 4.57 19l3.91 13.12c.57 1.9 1.13 3.8 1.83 5.65a264.38 264.38 0 0 0 11 24.42c1.62 3.28 1.49 7.15 1 10.78s-1.22 7.3-.72 10.93c.63 4.64 3.28 8.86 3.65 13.52a28.43 28.43 0 0 1-.21 5.15l-1.03 10.63a22.59 22.59 0 0 0 .12 7.84c.65 2.55 2.4 5 4.93 5.68a23.37 23.37 0 0 0 5.51.92 18.86 18.86 0 0 0 7-1.44 19.77 19.77 0 0 0 6.13-3.06c4-3.27 5-8.87 5.43-14s.56-10.61 3.46-14.86" class="back_out_1"/>
  <path d="M328.33 391.91c-5.55-5.47-8.88-12.83-11-20.33s-3.09-15.26-4.66-22.89c-1-5-2.34-10-3-15.13-.51-3.85-.67-7.74-.95-11.62-1.06-14.92-4-30-11.16-43.11" class="back_out_1"/>
  <path d="M298.39 270.88a141 141 0 0 1-9.76-15.53 59.16 59.16 0 0 1-2.8-5.32 40.82 40.82 0 0 1-2.15-6.44c-1.69-6.6-2.34-13.41-3.24-20.17a264.23 264.23 0 0 0-8.92-41.18c-3.87-12.82-12-24-18.83-35.55-1.6-2.7-3.24-5.38-4.69-8.17a24.92 24.92 0 0 0-3.51-5.68c-3-3.27-7.81-4.27-12.27-4.38s-9 .48-13.37-.34a50.51 50.51 0 0 1-17.2.83 27.49 27.49 0 0 1-10.28-3.09 37.75 37.75 0 0 1-3.66-2.49c-3.31-2.44-6.66-4.93-9.15-8.2-5.46-7.17-5.87-17.43-2.24-25.68" class="back_out_1"/>
  <path d="M130.13 78.01c5.53.46 11.07-.43 16.56-1.22s11.11-1.44 16.57-.64 10.93 3.39 14.1 7.95a27.35 27.35 0 0 1 2.79-12.19c.53-1.12 1.13-2.21 1.61-3.35a33.82 33.82 0 0 0 1.29-4l5.84-20.94c1.37-4.9 2.74-10.12 1.27-15a27.11 27.11 0 0 0-2.29-5 92 92 0 0 0-5.32-9.3 4.5 4.5 0 0 0-1.43-1.48" class="back_out_1"/>
  <path d="M178.14 3.49a2.43 2.43 0 0 0-2 .66c-1.36 1-2.81 2.09-3.25 3.71a33.16 33.16 0 0 0-4.94-3.94C163.75 1.13 158.53.2 153.49.4s-10 1.46-14.85 2.74a27.71 27.71 0 0 0-3.57 1.11 28 28 0 0 0-7 4.76 10.14 10.14 0 0 0-2.27 2.34 3.43 3.43 0 0 0-.4 3.08c-4.81-1.55-9.75 1.4-12.61 5.56s-3.64 9.42-3.72 14.47a36.5 36.5 0 0 0 .36 6.29c1.31 8.37 6.63 15.49 9.66 23.4.74 1.92 1.34 3.9 1.94 5.87l2.3 7.53 1.37 4.49c3.09 10.12-2 21.9-8 30.59a57.09 57.09 0 0 1-7.55 8.38 70.67 70.67 0 0 1-10.53 8.74c-13.37 8.59-30.27 8.53-45.83 11.74a45.87 45.87 0 0 0-10.85 3.41c-12.74 6.2-19.33 20.92-20.57 35-.68 7.72-.11 15.7-2.66 23-4.49 12.86-3.71 27.57-4 41.19-.08 4.27-.07 8.61 1.2 12.69-.44.08-.53 1.15-.45 1.6a86.59 86.59 0 0 1 1.23 18c-.28 7.83 1.25 15.33.83 23.16a94.4 94.4 0 0 1-1.88 11.81c-3.71 20.29-1.18 41.12-.75 61.75.09 4.57 0 9.35-2.08 13.4-2.91 5.56-6.12 11.42-9 17s-4.69 12.26-2.43 18.11c1.18 3.05 3.37 5.6 4.8 8.55 1.7 3.52 2.26 7.47 3.54 11.17s3.62 7.38 7.32 8.63c4 1.34 8.5-.63 11.28-3.78s4.17-7.27 5.3-11.32a140.47 140.47 0 0 0 5.18-39.37 25.63 25.63 0 0 0-.9-7.49c-1.15-3.6-3.67-6.57-6.14-9.43.71-2.23 1.18-4.1 2.08-6.26 4.52-10.87 4.69-23.49 11.07-33.39 1.58-2.46 3.52-4.68 5.07-7.16 6.58-10.5 5.51-23.89 4.21-36.22" class="back_out_1"/>
  <path d="M55.45 285.08c3.64-11.4 3.22-23.63 3.14-35.6a89.22 89.22 0 0 1 .45-11.35c.84-6.9 3.15-13.53 5.45-20.09a1.73 1.73 0 0 1 .77-1.11c.42-.19.71.78.5 1.2 8.69 15.69 6.24 34.95 9.78 52.53.76 3.76 1.79 7.45 2.72 11.17 2.64 10.58 4.93 22 5.41 32.86 1 23.54-13.34 45.26-14.84 68.77-.49 7.74.43 15.49 1.34 23.19 5.19 43.56 10.54 87.74 27.09 128.37" class="back_out_1"/>
  <path d="M122.01 425.2a76.27 76.27 0 0 0 12.7-1.12 39.08 39.08 0 0 0 28.82-25.79 59.85 59.85 0 0 0 2.41-17.09 57.8 57.8 0 0 0-.34-8.71c-.69-5.31-2.52-10.4-4.34-15.44 1.21.2 1.41 2.32 2 3.4a8.42 8.42 0 0 0 1.87 2.08 8.64 8.64 0 0 0 3 2 3 3 0 0 0 3.26-.82 4.33 4.33 0 0 0 .61-1.92l.34-2.24a5.9 5.9 0 0 1 4.52-5.71" class="back_out_1"/>
  <path d="M169.09 399.14a50.8 50.8 0 0 0 1.84 7.73 40.48 40.48 0 0 0 1.87 5.28 22.89 22.89 0 0 0 7.52 9.06 27.62 27.62 0 0 0 13.32 4.68 46.88 46.88 0 0 0 14.19-1.06 72.21 72.21 0 0 0 11.52-3.48 26.17 26.17 0 0 0 6.59-3.5 16.09 16.09 0 0 0 5.73-9" class="back_out_1"/>
  </g>
  <g id="borders" style="pointer-events:none;" transform="translate(300,30)">
     <path d="M100.08 548.89l-.21 11.94c0 1.85-.06 3.69 0 5.54.1 5.87 1.07 11.57.52 17.42a62.09 62.09 0 0 0 .74 16.91c.65 3.57 1.61 7.07 2.58 10.57 2.79 10.13 8.44 19.88 8.4 30.39 0 3.07 1.71 5.84 2.6 8.78 1.09 3.61.91 7.47.6 11.23-.45 5.47-.31 11.25-2.12 16.43-1.38 3.95-.5 8.36 1.18 12.19s4.13 7.27 6.06 11a17.88 17.88 0 0 1 2.17 6.37 33.92 33.92 0 0 1-.5 6.86 54.85 54.85 0 0 0 .61 13.33c.51 3.65 1.21 7.45 3.43 10.39a19.35 19.35 0 0 0 4.88 4.25 58.13 58.13 0 0 0 6.12 3.54c0-.06.13.22.1.16a19 19 0 0 0 11.16-1.59 37.42 37.42 0 0 0 4.17-2.31 7.39 7.39 0 0 0 3.47-3.59 37.61 37.61 0 0 0 4.12-9.35 29.88 29.88 0 0 0 .6-3.91 59.57 59.57 0 0 0-3.15-27c-1.67-4.41-3.09-8.77-5-13.09a159.86 159.86 0 0 1-7.35-20.75 66.52 66.52 0 0 1-1.86-19.06c.14-7.51 1.52-14.93 2.89-22.31.72-3.85.37-7.83.68-11.73.14-1.74.28-3.47.56-5.19.25-1.54.62-3.07 1-4.59l1.26-5.25c1.89-7.88.74-16.19.22-24.28a50.76 50.76 0 0 0-.78-7c-.32-1.58-.8-3.12-1.27-4.66l-1.2-3.91a12 12 0 0 0-1.88-4.14c-2.66-3.28-1.34-8.51-.71-12.68" class="back_border_1"/>
        <path d="M119.11 674.62c4.31-2.43 9-4.95 13.91-4.42a20.48 20.48 0 0 1 8.55 3.5" class="back_border_1"/>
        <path d="M143.72 528.92l.56-11.28c.08-1.53.15-3.05.15-4.58 0-2.13-.17-4.25-.23-6.38-.21-7.88 1-15.73 2.33-23.51 1.1-6.63.57-13.61 2-20.19.37-1.78.83-3.54 1.21-5.31 1.37-6.36 1.77-12.94 3.73-19.15 1.3-4.12 3.25-8.18 4.23-12.4" class="back_border_1"/>
        <path d="M198.84 529.5a9.77 9.77 0 0 1-1-2.8 96.23 96.23 0 0 1-1.17-41c.14-.75.45-1.38.58-2.13 1.25-7.14-.15-14.46-1.79-21.52q-1.93-8.34-4.3-16.58a17.11 17.11 0 0 1-.72-4.65 22.53 22.53 0 0 1 .28-3.24 30.36 30.36 0 0 1 .9-4.78" class="back_border_1"/>
        <path d="M202.4 648.75c-.57 7.41-.26 14.74-1.76 22l-5.66 27.6a67 67 0 0 0-1.66 11.35 33.71 33.71 0 0 0 5.69 19.65 10.43 10.43 0 0 0 4.77 4.31 8.88 8.88 0 0 0 3.58.57c4.53-.22 8.63-2.61 12.53-4.93a16.4 16.4 0 0 0 3.57-2.59 12.72 12.72 0 0 0 2.77-5.32 24.34 24.34 0 0 0 .55-11.95c-.34-1.56-.85-3.07-1.21-4.62a26.16 26.16 0 0 1 5.06-21.89c3-3.74 6.15-7.2 8.26-11.49a33.42 33.42 0 0 0 1.5-3.53 43.63 43.63 0 0 0 2.27-15.23 2.57 2.57 0 0 0-.46-1.75" class="back_border_1"/>
        <path d="M206.86 662.06a44.22 44.22 0 0 1 4.8-7.12 18.23 18.23 0 0 1 2.11-2.22 20.85 20.85 0 0 1 7.54-3.67c2.56-.8 5.45-1.48 7.81-.21" class="back_border_1"/>
        <path d="M203.4 639.78q-3.74-23.79-6.09-47.76c-1-10-1.78-20.25 0-30.19 1.07-6 .4-12.09 1.39-18.15" class="back_border_1"/>
        <path d="M235.32 642.04c-1.08-4.91-.3-10 .48-15 .32-2.06.65-4.12 1.08-6.16a115.23 115.23 0 0 1 4.17-13.81l2.75-7.88c1.37-3.94 2.76-8 2.91-12.12.27-7.38 2-14.51 1.7-21.89a65.31 65.31 0 0 0-.69-7.6c-.38-2.33-1-4.62-1.36-7a73.53 73.53 0 0 1-.69-7.85c-.15-3-.31-5.92-.41-8.89s-.13-6.14.94-9" class="back_border_1"/>
        <path d="M220.78 217.84c1.12-10.3 2.77-20.94 8.44-29.61l-10.37-59.1a50.51 50.51 0 0 1-17.2.83 37.69 37.69 0 0 1-4.21-.75l-49 3.48v84.22z" class="back_border_2"/>
        <path d="M148.4 281.83V216.9l73.38.94a93.58 93.58 0 0 0-.74 13.61c.07 2 .26 3.92.44 5.88.33 3.57 1.1 7.13 1.35 10.71.46 6.71.9 13.43 1 20.15.09 4.57.08 9.11.19 13.63z" class="back_border_2"/>
        <path d="M149.4 347.8l-1-64.95 75.46-1a108.47 108.47 0 0 0 2 19.81 176.46 176.46 0 0 0 5.79 20.94c2.91 8.44 6.45 16.67 9 25.22z" class="back_border_2"/>
        <path d="M251.81 424.05c0-4.64 0-9.22-.37-13.94l-1.92-23.94c-.81-10.12-1.71-20.55-6.45-29.57-1.44-2.74-1.76-5.86-2.65-8.82h-78.77l3.75 75.27z" class="back_border_2"/>
        <path d="M245.31 502.54a376 376 0 0 1 4.15-40.71c.75-4.79 1.6-9.57 2.05-14.39a151.11 151.11 0 0 0 .37-17.73c0-1.91-.06-3.79-.06-5.66" class="back_border_1"/>
        <path d="M226.61 209.99c.78 1 1.81 1.81 2.61 2.81l39.58-37.87c-4.28-9.87-10.63-18.94-16.12-28.22-1.6-2.7-3.24-5.38-4.69-8.17a24.92 24.92 0 0 0-3.51-5.68c-3-3.27-7.81-4.27-12.27-4.38s-9 .48-13.37-.34l10.37 60.1s-8.5 14.02-2.6 21.75z" class="back_border_2"/>
        <path d="M325.33 398.52c-2.9 4.25-3 9.73-3.46 14.86s-1.47 10.73-5.47 13.97a19.77 19.77 0 0 1-6.13 3.06 18.86 18.86 0 0 1-7 1.44 23.37 23.37 0 0 1-5.51-.92c-2.53-.7-4.28-3.14-4.93-5.68a22.59 22.59 0 0 1-.12-7.84l1.08-10.66a28.43 28.43 0 0 0 .21-5.15c-.38-4.67-3-8.89-3.65-13.52-.5-3.63.26-7.3.72-10.93s.6-7.5-1-10.78a264.38 264.38 0 0 1-11-24.42c-.69-1.86-1.26-3.75-1.83-5.65l-3.84-13.06c-1.87-6.25-3.74-12.54-4.57-19l-2.94-7.19" class="back_border_1"/>
        <path d="M328.33 391.91c-5.55-5.47-8.88-12.83-11-20.33s-3.09-15.26-4.66-22.89c-1-5-2.34-10-3-15.13-.51-3.85-.67-7.74-.95-11.62-1.06-14.92-.81-32.12-8-45.25l-2.35-5.8" class="back_border_1"/>
        <path d="M196.4 128.21a23.22 23.22 0 0 1-6.07-2.33 37.75 37.75 0 0 1-3.66-2.49c-3.31-2.44-6.66-4.93-9.15-8.2-5.46-7.17-5.87-17.43-2.24-25.68l-26.92-3v45" class="back_border_3"/>
        <path d="M265.87 297.04c-3.3-5.74-6.61-11.48-9.48-17.44-8.39-17.39-13-36.32-19.67-54.43-.72-2-2-3.54-3-5.38a47.33 47.33 0 0 0-4.45-7l39.58-37.87a67.26 67.26 0 0 1 2.71 7.33 264.23 264.23 0 0 1 8.84 41.2c.91 6.75 1.56 13.57 3.24 20.17a40.82 40.82 0 0 0 2.15 6.44 59.16 59.16 0 0 0 2.8 5.32 141 141 0 0 0 9.81 15.5" class="back_border_2"/>
        <path d="M130.13 78.01c5.53.46 11.07-.43 16.56-1.22s11.09-1.48 16.57-.64 10.93 3.39 14.1 7.95a27.35 27.35 0 0 1 2.79-12.19c.53-1.12 1.13-2.21 1.61-3.35a33.82 33.82 0 0 0 1.29-4l5.84-20.94c1.37-4.9 2.74-10.12 1.27-15a27.11 27.11 0 0 0-2.29-5 92 92 0 0 0-5.32-9.3 4.5 4.5 0 0 0-1.43-1.48" class="back_border_1"/>
        <path d="M19.64 199.51a31.33 31.33 0 0 1-1 3.42c-4.49 12.86-3.71 27.57-4 41.19-.08 4.27-.07 8.61 1.2 12.69-.44.08-.53 1.15-.45 1.6a86.59 86.59 0 0 1 1.23 18c-.28 7.83 1.25 15.33.83 23.16a94.4 94.4 0 0 1-1.81 11.78c-3.71 20.29-1.18 41.12-.75 61.75.09 4.57 0 9.35-2.08 13.4-2.91 5.56-6.12 11.42-9 17s-4.69 12.26-2.43 18.11c1.18 3.05 3.37 5.6 4.8 8.55 1.7 3.52 2.26 7.47 3.54 11.17s3.62 7.38 7.32 8.63c4 1.34 8.5-.63 11.28-3.78s4.17-7.27 5.3-11.32a140.47 140.47 0 0 0 5.17-39.41 25.63 25.63 0 0 0-.9-7.49c-1.15-3.6-3.67-6.57-6.14-9.43.71-2.23 1.18-4.1 2.08-6.26 4.52-10.87 4.69-23.49 11.07-33.39 1.58-2.46 3.52-4.68 5.07-7.16 6.58-10.5 5.51-23.89 4.21-36.22" class="back_border_1"/>
        <path d="M65.76 218.13c.21-.42-.08-1.39-.5-1.2a1.73 1.73 0 0 0-.77 1.11q-.52 1.49-1 3l-43.8-21.51c1.43-6.34 1.11-13.06 1.69-19.59 1.24-14.11 7.83-28.84 20.57-35a45.87 45.87 0 0 1 10.85-3.41c3.51-.73 7.1-1.28 10.69-1.81z" class="back_border_2"/>
        <path d="M147.4 217.13v-85.11l-48.82-2.29c-10.35 6.65-22.82 8.11-35.14 9.93l4.29 73.69z" class="back_border_2"/>
        <path d="M148.4 131.52v-45h-22.88c.74 9-3.7 18.65-8.86 26.07a57.09 57.09 0 0 1-7.55 8.38 70.67 70.67 0 0 1-10.53 8.74" class="back_border_3"/>
        <path d="M178.14 3.49a2.43 2.43 0 0 0-2 .66c-1.36 1-2.81 2.09-3.25 3.71a33.16 33.16 0 0 0-4.94-3.94C163.75 1.13 158.53.2 153.49.4s-10 1.46-14.85 2.74a27.71 27.71 0 0 0-3.57 1.11 28 28 0 0 0-7 4.76 10.14 10.14 0 0 0-2.29 2.34 3.43 3.43 0 0 0-.4 3.08c-4.81-1.55-9.75 1.4-12.61 5.56s-3.64 9.42-3.72 14.47a36.5 36.5 0 0 0 .36 6.29c1.31 8.37 6.63 15.49 9.66 23.4.74 1.92 1.34 3.9 1.94 5.87l2.3 7.53 1.37 4.49a21.51 21.51 0 0 1 .85 4.52" class="back_border_1"/>
        <path d="M72.27 424.05c4.71 37.85 10.63 75.74 25 111" class="back_border_1"/>
        <path d="M72.25 424.05q-1.08-8.71-2.09-17.4c-.91-7.7-1.83-15.45-1.34-23.19.76-12 4.85-23.5 8.54-35h83.57l3.47 75.59z" class="back_border_2"/>
        <path d="M77.4 348.43c3.62-11.09 6.86-22.2 6.35-33.74-.49-10.9-2.81-22.28-5.49-32.86h69.14l1 66.6" class="back_border_2"/>
        <path d="M147.4 281.83v-63l-80.5-4.48-2.14 2.78c8.89 14 6.56 35.5 10.27 53.35.79 3.82 1.88 7.57 2.85 11.35z" class="back_border_2"/>
        <path d="M55.4 285.08c3.64-11.4 3.22-23.63 3.14-35.6a89.22 89.22 0 0 1 .45-11.35 84.11 84.11 0 0 1 4.41-17.11" class="back_border_1"/>
        <circle cx="149.92" cy="56.35" r="15" class="back_border_5"/>
  </g>

        <g id="conteiner_content"></g>
        <g id="menu_container" x="40" y="40" transform="translate(40,40)"></g>
        <text id="ismobile" x="30" y="30">Mobile ve Tablet cihazlarda görüntülenmemektedir</text>
<defs>

            <linearGradient id="Gradient1" x1="0" x2="0" y1="0" y2="1">
                <stop stop-color="#3399ff" offset="0%"/>
                <stop stop-color="#0073e6" offset="100%"/>
            </linearGradient>

            <linearGradient id="Gradient2" x1="0" x2="0" y1="0" y2="1">
                <stop stop-color="#eee" offset="0%"/>
                <stop stop-color="#ccc" offset="100%"/>
            </linearGradient>

            <filter id="dropshadow" >
            <feGaussianBlur in="SourceAlpha" stdDeviation="2"/> 
            <feOffset dx="1" dy="1" result="offsetblur"/>
            <feMerge> 
                <feMergeNode/> 
                <feMergeNode in="SourceGraphic"/> 
            </feMerge>
            </filter>

            <pattern id="grid" width="12" height="12" patternUnits="userSpaceOnUse"><path d="M 0 0 L 12 0 12 12 0 12 z" stroke="#fff" stroke-width="1" fill="#eee"></path></pattern>

        <link href="script.css" rel="stylesheet" type="text/css" xmlns="http://www.w3.org/1999/xhtml" />
        <script xlink:href="components/script.data.js"></script>
</defs>
</svg>