<?xml version="1.0" encoding="utf-8"?>
<svg id="container" xmlns="http://www.w3.org/2000/svg" xmlns:xlink="http://www.w3.org/1999/xlink" preserveAspectRatio="xMinYMin meet" viewBox="0 0 600 650.31">
    <g id="BG" style="pointer-events:none;" transform="translate(100,30)">
        <path d="M274.95 256.19c.21 1.27.36 2.21.36 2.21-.83 16.24 3.73 32.15 2.6 48.37s-3 32.44-5.58 48.52v.79l-.26 1.63c-.52 3.18-1.07 6.35-1.33 9.56-.3 3.67-.23 7.37-.29 11.06-.14 9-2.93 39.77-3.83 48.76l-.13 1.29c2.19 6.09 1.17 18.09 1.68 24.54a190.65 190.65 0 0 1 .29 27q-.18 2.85-.46 5.69c-.6 6.06-.84 10.84-2 16.79l-.24 1.34a56.7 56.7 0 0 1-4.07 13.27l-6.71 14.55a67.45 67.45 0 0 0-3 7.2 32 32 0 0 0-1.24 17.32l.29 1.76a51.33 51.33 0 0 0 4.36 13c2 4.05 4.41 7.87 6.6 11.81a157.6 157.6 0 0 1 8.41 18.07 53.9 53.9 0 0 1 3.39 10.83 19.12 19.12 0 0 1 .41 3.63l.05 1.23a80.94 80.94 0 0 1-1.37 14.4s-.42 2.54-4.8 6c-2.94 2.36-7.12 2.62-10.9 2.64a8.68 8.68 0 0 1-4.47-.92c-2.6-1.52-3.38-4.84-4.08-7.77a65.52 65.52 0 0 0-4.59-13.35l-.44-1a75.66 75.66 0 0 0-8.29-13.71 21.66 21.66 0 0 0-3.38-3.71 37.19 37.19 0 0 0-3.52-2.38 78.71 78.71 0 0 1-6.4-4.78c-.61-.49-1.25-1.3-2-1.29l-.58-4.23a23.75 23.75 0 0 1-.48-6.42 16.93 16.93 0 0 1 3.5-9.76 43.35 43.35 0 0 0 3.12-3.61l1-3.51a15.42 15.42 0 0 0 .62-3.48l.11-1.76c.46-7.18-1.1-14.49-2.63-21.6-2.32-10.75-4.37-20.26-6-31.16l-.21-1.36c-2.47-16.22-3.61-32.54-1.62-48.78.94-7.65.62-17.45 1.07-25.14v-1.41c.36-18.51-3.31-55.51-6.71-73.71l-.15-1.6-5.17-18.99-5.63-20.69c-14.67-14.36-24.77-2.25-24.77-2.25-4.21 5-6.15 11.6-6.84 18.11s-.25 13.09-.29 19.63q0 3.17-.18 6.34v1c-.7 14.14-3.35 28.15-6.15 42a55.76 55.76 0 0 0-1.46 10.81 54.91 54.91 0 0 0 .76 8c.75 5.2.71 9.5 1.46 14.71l.1 2.28-1.34 18.39c-1.57 8.68 1.9 17.36 4.08 25.92 1.87 7.31 3.63 14.92 2.89 22.42l-.34 3.09c-1.82 15.23-5.85 30.12-9.87 44.94-1.39 5.14-2.78 10.59-1.31 15.7a8.87 8.87 0 0 0 .5 1.5l.31.73c.27.65.57 1.3.87 1.94 2.24 4.84 4.93 9.67 7.48 14.35a11.2 11.2 0 0 1 .71 7.94 33.3 33.3 0 0 1-3.17 7.49l-4.71 9a31 31 0 0 0-2.53 5.76 8.84 8.84 0 0 0-.51 2.25l-.12 1.15c-.07.65-.11 1.3-.14 2-.21 4.3.63 8.53.87 12.83.17 3.07.26 6.42-1.54 8.91s-4.76 3.37-7.59 4.21l-2.4.72c-.59.18-1.18.35-1.78.5-6.07 1.5-13.82.87-17.52-4.16a28.52 28.52 0 0 1-5.45-15.1 29.22 29.22 0 0 1 .7-8.9l.2-.95a100.63 100.63 0 0 1 3.94-12.58l2.42-6.66a44.15 44.15 0 0 0 2.43-8.36c.08-.5 0-.39.07-.89a24.53 24.53 0 0 0-.82-13.73l-.49-1.81-.24-.91-.6-2.25c-1.64-6.12-3.24-11.71-5.11-17.77l-.94-3-5.73-18.52c-.89-2.86-1.87-5.78-2.7-8.66a78.87 78.87 0 0 1-2.66-12.59l-.16-1.14c-1.46-11.11-1.18-22.45-.45-33.73.32-4.9.65-9.58.6-14.49 0 0-.48-14.16-4-21.59l-.22-.67q-5.26-35.79-13.24-71.11a97.94 97.94 0 0 0-2.62-9.9v-1q-.3-.89-.64-1.77c-1.3-3.39-3-6.61-4.26-10-3-8.43-3-17.61-2.94-26.56l-3.27-23.39c-1.17-12.56.45-21.78 3.84-34l.79-2.93.78-2.45.32-1.16c2.19-7.74 4.69-15.4 6.8-23.15l.35-1.52a141.2 141.2 0 0 0 3.29-13.92 103.85 103.85 0 0 0-.83-40.39c-.82-3.73-.71-7.88-1.5-11.62l-.59-1.67c-1.95-9.57-1.52-19.24-1.92-29-.35-8.53-1.14-16.32-5.77-23.37l-.7-1.14a28.71 28.71 0 0 0-2.2-3l-7.17-9.47c-1.6 3.05-3.91 5.72-5.2 8.91a19 19 0 0 0-1.08 3.87l-.09.63a76.65 76.65 0 0 0-.68 9c-.52 9.62-2.86 19-5.18 28.4-1.64 6.61-3.33 13.34-6.85 19.17v1.14c1.27 7.82.91 13.64 0 21.51a85.13 85.13 0 0 1-2 10.92l-.27 1.14c-1.6 6.58-3.7 13.06-5.79 19.5l-9.09 28a17 17 0 0 0-.85 5.46v1c0 4.33 1.72 8.27 3.28 12.82 2.8 8.18 3.1 16.94 1.91 25.55v1a88.33 88.33 0 0 1-2.71 12.47 37.77 37.77 0 0 1-4.84 11.17 16.39 16.39 0 0 1-9.7 7c-3.44.73-7 0-10.44-.8-4-.92-8.52-2.38-10-6.19-.84-2.14-.5-4.53-.37-6.82a41 41 0 0 0-2.85-16.79v-1c-1.59-4-3.07-8.46-1.56-12.48 1-2.75 3.32-4.81 5.41-6.88 5.32-5.25 10.1-11.73 10.58-19.18v-1a41.85 41.85 0 0 0-.45-7.48c-1.73-15-2.42-23.17-.92-38.24l.59-7.12c1.38-13.84 3-23.71 7-37l.44-1.52 2.06-5.49c-1.44-4.71-1-9.76-.49-14.66q1.07-11.14 1.92-22.29c.5-6.53.1-13.79 2.05-20V97.1l7-45.68c.47-2.65 1-5.29 1.66-7.89l.46-1.92q.39-1.52.84-3a63.67 63.67 0 0 1 10.73-20.64 16 16 0 0 1 4.34-4.17 18 18 0 0 1 4.45-1.63c6.84-1.83 11.71-3.22 18.78-4.55l1.43-.28 3.69-.43a78.14 78.14 0 0 1 27-.73c0-1 2.61-2.93 2.61-2.93l1.19-1 57.38-.26h1.19l15.27 1.7 25.36-2.11c12.11-1 22.88-2.62 34.81-.61h2.72q1.88.31 3.75.73a27.09 27.09 0 0 1 20.65 6.93c5.49 5.1 8.41 12.2 11.06 19.11v.87c1.2 3.24 2 6.49 3.16 9.73l11.4 30.55c1.54 4.14 3.09 8.28 4.36 12.51.77 2.58 1.14 4.22 2 6.77l.31 1c.28.87.58 1.72.91 2.57.79 2.06 1.75 4.05 2.61 6.08a102.36 102.36 0 0 1 7.64 29.26 151.62 151.62 0 0 0 2.17 15.59c.55 2.58 1 4.36 1.75 6.89l.23.78c2.83 9.5 6.72 18.72 8.58 28.45.78 4.07 1.2 8.2 1.64 12.32.76 7.13 1.44 14.2 2.34 21.23v1a209.77 209.77 0 0 0 3.55 20.87c1 4.21 1.29 8.55 2.14 12.79a25.82 25.82 0 0 0 1.66 5.78l.28.69a18.83 18.83 0 0 0 3.29 5.23c2.21 2.44 5.12 4.12 7.66 6.2a30.17 30.17 0 0 1 8.79 11.92c1.23 3 2 6.44 1 9.56s-4.1 5.72-7.33 5.21a10.75 10.75 0 0 1-3.29-1.29 3.56 3.56 0 0 1-1.72-2.51 35.57 35.57 0 0 1 1.81 14.12v1a35.18 35.18 0 0 1-1.64 8.39c-1.15 3.52-3 7-6.18 8.94-2.5 1.52-5.52 1.87-8.45 2-4.34.25-9 .11-12.63-2.25a19.6 19.6 0 0 1-4.86-4.91 26.19 26.19 0 0 1-2.37-3.67 27.37 27.37 0 0 1-2.2-6.67q-.2-.93-.38-1.86a2.21 2.21 0 0 1 0-1c-1.72-9-1.66-18.39 1.26-27l2-4.69a29.28 29.28 0 0 0 .37-12l-.33-.87-1-3.89a58.58 58.58 0 0 0-3.48-8.35c-4-8.1-9.31-15.52-12.93-23.79a70.67 70.67 0 0 1-2.9-7.9v-1c-3.57-11.8-4.35-24.44-5.08-36.83a13.45 13.45 0 0 1-.13-3.05s-1.55-4.69-2.16-6.11c-1.66-3.87-2.91-6.79-4.54-10.67l-.4-.95q-3.71-8.84-7.31-17.73c-.88-2.18-1.76-4.37-2.43-6.63-1.9-6.43-2.08-13.39-5-19.44a20.41 20.41 0 0 0-1.39-2.58l-.76-1.26c-.3-.5-8.76-10.38-10.16-13.24l-1.49-1.94-2 3.59-2.12 8.34-.25 1-.26 1a40.49 40.49 0 0 0-1.15 5.43 37 37 0 0 0-.1 5.8c.56 14.18 4.63 27.81 4.67 42v3.37c.27 12.19 2.77 24.24 5.37 36.19 2.23 10.24 4.57 20.5 7.72 30.51 0 0 6.62 10.38 7.38 27" class="front_background" />
    </g>
    <g id="container_path_models" transform="translate(100,30)">
        <path d="M168.18 503.58q.18-1.54.34-3.09c.74-7.51-1-15.11-2.89-22.42-2.18-8.55-5.66-17.23-4.08-25.92l1.34-18.39-56.14 3.86c3.5 7.43 4 21.59 4 21.59 0 4.91-.29 9.59-.6 14.49-.73 11.28-1 22.62.45 33.73z" class="front_fill_background" />
        <path id="front1" d="M266.49 428.26c.89-9 3.82-41 4-50 .06-3.69 0-7.38.29-11.06.26-3.21.81-6.39 1.33-9.56l.26-1.63-61.3-3c3.4 18.2 7.22 56.8 6.86 75.31z" class="front_fill_background" />
        <path id="front2" d="M57.53 66.62l24.69 37.31a28.71 28.71 0 0 1 2.2 3l88.24-1.5v-41z" class="front_fill_background" />
        <path id="front3" d="M171.66 1.76l1.25 60.76h76.82l-1.15-61.48c-11.93-2-24.27-.65-36.38.36l-25.36 2.11z" class="front_fill_background" />
        <path id="front4" d="M113.08 2.02s-3.77 2.93-3.8 3.91a78.14 78.14 0 0 0-27 .73l1 58.53 88.44-2.83-1.19-60.6-57.38.26" class="front_fill_background" />
        <path id="front5" d="M268.11 636.68c-2.94 2.36-7.12 2.62-10.9 2.64a8.68 8.68 0 0 1-4.47-.92c-2.6-1.52-3.38-4.84-4.08-7.77a75.62 75.62 0 0 0-5-14.31h30.6a80.94 80.94 0 0 1-1.33 14.31s-.45 2.54-4.82 6.05z" class="front_fill_background" />
        <path id="front6" d="M265.78 503.58c1.13-5.95 1.62-12.07 2.22-18.13q.28-2.84.46-5.69a190.65 190.65 0 0 0-.29-27c-.51-6.45.51-18.45-1.68-24.54h-48.6c-.45 7.69-.11 18.9-1 26.55-2 16.24-.85 32.56 1.62 48.78z" class="front_fill_background" />
        <path id="front7" d="M251.03 557.7a38.6 38.6 0 0 1 1-19.09 67.45 67.45 0 0 1 3-7.2l6.71-14.55a56.7 56.7 0 0 0 4.07-13.27h-47.35c1.66 10.91 3.92 21.77 6.24 32.52 1.53 7.1 3.09 14.42 2.63 21.6z" class="front_fill_background" />
        <path id="front8" d="M274.24 616.32a34.12 34.12 0 0 0-.46-4.87 53.9 53.9 0 0 0-3.39-10.83 157.6 157.6 0 0 0-8.41-18.07c-2.19-3.94-4.62-7.76-6.6-11.81a51.33 51.33 0 0 1-4.36-13H227.3a34.33 34.33 0 0 1-.73 5.24l-1 3.51a43.35 43.35 0 0 1-3.12 3.61 16.93 16.93 0 0 0-3.5 9.76 23.75 23.75 0 0 0 .48 6.42l.58 4.23c.78 0 1.42.81 2 1.29a78.71 78.71 0 0 0 6.4 4.78 37.19 37.19 0 0 1 3.52 2.38 21.66 21.66 0 0 1 3.38 3.71 75.66 75.66 0 0 1 8.29 13.71z" class="front_fill_background" />
        <path id="front9" d="M274.96 252.85a51.47 51.47 0 0 0-1.33-6.36 177.11 177.11 0 0 1-6-16.95l-78.13 36.47 9.5 46.44L275 256" class="front_fill_background" />
        <path id="front10" d="M272.3 355.11q3.87-24.12 5.58-48.52c1.14-16.22-3.42-32.13-2.6-48.37 0 0-.15-.94-.36-2.21l-74.72 57.15 10.83 39.78z" class="front_fill_background" />
        <path id="front11" d="M174.64 65.21v40.5l76.66-1 2.38-9.34 16.92-30.9z" class="front_fill_background" />
        <path id="front12" d="M254.49 160.86v-1.93c0-14.19-4.12-27.83-4.67-42a37 37 0 0 1 .1-5.8 40.49 40.49 0 0 1 1.15-5.43l.26-1-58.73 2.24 60.07 53.7" class="front_fill_background" />
        <path id="front13" d="M267.3 106.92c-.3-.5-10.25-12.31-11.65-15.17l29.54-63.32c1.2 3.24 2 6.49 3.16 9.73l11.4 30.55c1.54 4.14 3.09 8.28 4.36 12.51.77 2.58 1.45 5.19 2.28 7.74z" class="front_fill_background" />
        <path id="front14" d="M321.78 150.18c-.75-2.53-1.43-5.08-2-7.67a151.62 151.62 0 0 1-2.17-15.59 102.36 102.36 0 0 0-7.71-29.31c-.86-2-1.82-4-2.61-6.08-.33-.85-.63-1.71-.91-2.57l-39.09 18c.76 1.26 1.51 2.51 2.14 3.83 2.9 6 3.08 13 5 19.44.67 2.26 1.55 4.45 2.43 6.63q3.6 8.89 7.31 17.73z" class="front_fill_background" />
        <path id="front15" d="M334.3 212.18c-.89-7-1.57-14.1-2.34-21.23-.44-4.12-.86-8.25-1.64-12.32-1.87-9.73-5.75-19-8.58-28.45l-37.61 4.39q2.44 5.82 4.93 11.62c.61 1.42 2.16 6.11 2.16 6.11a13.45 13.45 0 0 0 .13 3.05c.72 12.39 1.51 25 5.08 36.83z" class="front_fill_background" />
        <path id="front16" d="M186.84 3.52l25.36-2.11c12.11-1 24.45-2.38 36.38-.36l-38.73 35.21z" class="front_fill_background2" />
        <path id="front17" d="M272.24 62.52h-21.5l-1-61.73q1.88.31 3.75.73a27.09 27.09 0 0 1 20.65 6.93c5.49 5.1 8.41 12.2 11.06 19.11z" class="front_fill_background" />
        <path id="front18" d="M342.01 253.26a32.54 32.54 0 0 1-1.95-6.47c-.86-4.24-1.17-8.58-2.14-12.79a209.77 209.77 0 0 1-3.62-20.82h-37.84a70.67 70.67 0 0 0 2.9 7.9c3.62 8.27 8.94 15.69 12.93 23.79a58.58 58.58 0 0 1 3.41 8.39l1 3.89z" class="front_fill_background" />
        <path id="front19" d="M342.01 253.26a18.83 18.83 0 0 0 3.29 5.23c2.21 2.44 5.12 4.12 7.66 6.2a30.17 30.17 0 0 1 8.79 11.92c1.23 3 2 6.44 1 9.56s-4.1 5.72-7.33 5.21a10.75 10.75 0 0 1-3.29-1.29 3.56 3.56 0 0 1-1.72-2.51 35.57 35.57 0 0 1 1.81 14.12h-38.75c-1.72-9-1.66-18.39 1.26-27l2-4.69a29.28 29.28 0 0 0 .37-12z" class="front_fill_background" />
        <path id="front20" d="M352.2 302.74a35.18 35.18 0 0 1-1.64 8.39c-1.15 3.52-3 7-6.18 8.94-2.5 1.52-5.52 1.87-8.45 2-4.34.25-9 .11-12.63-2.25a19.6 19.6 0 0 1-4.86-4.91 26.19 26.19 0 0 1-2.37-3.67 27.37 27.37 0 0 1-2.2-6.67q-.2-.93-.38-1.86z" class="front_fill_background" />
        <path id="front21" d="M28.57 97.53l7.28-46.35c.47-2.65 1-5.29 1.66-7.89l37.53 51.17c-1.6 3.05-3.91 5.72-5.2 8.91a19 19 0 0 0-1.08 3.87" class="front_fill_background" />
        <path id="front22" d="M37.98 41.38q.39-1.52.84-3a63.67 63.67 0 0 1 10.73-20.64 16 16 0 0 1 4.34-4.17 18 18 0 0 1 4.45-1.63c6.84-1.83 13.86-3.64 20.92-5l2 58.23H55.57c-1.58.59-17.59-23.79-17.59-23.79z" class="front_fill_background" />
        <path id="front23" class="front_fill_background" d="M291.88,668.32q.18-1.54.34-3.09c.74-7.51-1-15.11-2.89-22.42-2.18-8.55-5.66-17.23-4.08-25.92l1.34-18.39-56.14,3.86c3.5,7.43,4,21.59,4,21.59,0,4.91-.29,9.59-.6,14.49-.73,11.28-1,22.62.45,33.73Z" transform="translate(-123.7 -164.74)" />
        <path id="front24" d="M15.83 199.18a212.7 212.7 0 0 1 8.15-40.85l31.47 5.1a84.76 84.76 0 0 1 .47 23.7 104 104 0 0 1-2.25 12.06z" class="front_fill_background" />
        <path id="front25" d="M2.19 291.56c-1.59-4-3.07-8.46-1.56-12.48 1-2.75 3.32-4.81 5.41-6.88 5.32-5.25 10.1-11.73 10.58-19.18l21.32.17c0 4.33 1.72 8.27 3.28 12.82 2.8 8.18 3.1 16.94 1.91 25.55z" class="front_fill_background" />
        <path id="front26" d="M2.19 292.56a41 41 0 0 1 2.85 16.79c-.13 2.29-.48 4.68.37 6.82 1.5 3.81 6 5.27 10 6.19 3.43.79 7 1.53 10.44.8a16.39 16.39 0 0 0 9.7-7 37.77 37.77 0 0 0 4.84-11.17 88.33 88.33 0 0 0 2.71-12.47z" class="front_fill_background" />
        <path id="front27" d="M16.62 252.02a41.85 41.85 0 0 0-.45-7.48 212.86 212.86 0 0 1-.34-45.36h37.84c-1.6 6.58-3.7 13.06-5.79 19.5l-9.09 28a17 17 0 0 0-.85 5.46z" class="front_fill_background" />
        <path id="front28" d="M25.36 155.16c-1.44-4.71-1-9.76-.49-14.66q1.07-11.14 1.92-22.29c.5-6.53.1-13.79 2.05-20l39.83 9.67a76.65 76.65 0 0 0-.68 9c-.52 9.62-2.86 19-5.18 28.4-1.64 6.61-3.33 13.34-6.85 19.17z" class="front_fill_background" />
        <path id="front29" d="M92.81 107.26c-7.34-4.15-12-11.79-15.75-19.33s-7.26-15.5-13.35-21.35l43.52 1.29z" class="front_fill_background2" />
        <path id="front30" d="M223.25 67.86l43.52-1.29c-6.09 5.84-9.55 13.81-13.35 21.35s-8.4 15.18-15.75 19.33z" class="front_fill_background2" />
        <path id="front31" d="M92.4 160.65c-1.95-9.57-1.11-19.46-1.51-29.22-.35-8.53-1.84-17.44-6.47-24.49h72.82z" class="front_fill_background" />
        <path id="front32" d="M159.95 261.19h40.54l67.09-32.2c-3.15-10-5.48-20.27-7.72-30.51-2.61-11.94-5.11-24-5.37-36.19l-61.91-55.35h-35.34L93.4 162.1c.79 3.73.68 7.89 1.5 11.62a103.85 103.85 0 0 1 .83 40.39 141.2 141.2 0 0 1-3.29 13.92l67.51 33.16" class="front_fill_background2" />
        <path id="front33" d="M84.3 253.85l.32-1.16c2.19-7.74 4.69-15.4 6.8-23.15l62.37 29.65v37.25z" class="front_fill_background" />
        <path id="front34" d="M90.66 354.94q-.3-.89-.64-1.77c-1.3-3.39-3-6.61-4.26-10-3-8.43-3-17.61-2.94-26.56l-3.27-23.39c-1.17-12.56 1.37-25.17 4.75-37.34l91.18 55c-4.21 5-6.15 11.6-6.84 18.11s-.25 13.09-.29 19.63q0 3.17-.18 6.34z" class="front_fill_background" />
        <path id="front35" d="M106.52 436.95q-5.22-35.79-13.22-71.1a97.94 97.94 0 0 0-2.62-9.9h77.52c-.7 14.14-3.35 28.15-6.15 42a55.76 55.76 0 0 0-1.46 10.81 54.91 54.91 0 0 0 .76 8l2.25 15.61z" class="front_fill_background" />
        <path id="front36" d="M121.17 616.32a100.63 100.63 0 0 1 3.94-12.58l2.42-6.66a44.15 44.15 0 0 0 2.43-8.36c.08-.5 0-.39.07-.89a24.53 24.53 0 0 0-.82-13.73l-.73-2.72 29.33-4.93c.27.65.57 1.3.87 1.94 2.24 4.84 4.93 9.67 7.48 14.35a11.2 11.2 0 0 1 .71 7.94 33.3 33.3 0 0 1-3.17 7.49l-4.71 9a31 31 0 0 0-2.53 5.76 19.79 19.79 0 0 0-.63 3.4z" class="front_fill_background" />
        <path id="front37" d="M155.82 616.32c-.07.65-.11 1.3-.14 2-.21 4.3.63 8.53.87 12.83.17 3.07.26 6.42-1.54 8.91s-4.76 3.37-7.59 4.21l-2.4.72c-.59.18-1.18.35-1.78.5-6.07 1.5-13.82.87-17.52-4.16a28.52 28.52 0 0 1-5.42-15.17 35.8 35.8 0 0 1 .9-9.84z" class="front_fill_background" />
        <path id="front38" d="M157.8 566.45a19.92 19.92 0 0 1-.8-2.22c-1.47-5.12-.08-10.57 1.31-15.7 4-14.82 8.05-29.71 9.87-44.94l-57.62 3.85a93.49 93.49 0 0 0 2.82 13.73c.83 2.88 1.82 5.8 2.7 8.66l5.73 18.52.94 3c1.87 6.05 3.47 11.65 5.11 17.77l.6 2.25z" class="front_fill_background" />
        <path id="front39" d="M82.24 6.66a78.14 78.14 0 0 1 27-.73c0-1 3.8-3.91 3.8-3.91 7.69-.77 15.42-.86 23.15-.94 3.06 0 6.22 0 9 1.15l-33.69 34z" class="front_fill_background2" />
        <path id="front40" d="M154.59 261.75h56.44v51.24h-56.44z" class="front_fill_background2" />
    </g>
    <g id="Outline" style="pointer-events:none;" transform="translate(100,30)">
        <path d="M275.45 256.68c.21 1.27.36 2.21.36 2.21-.83 16.24 3.73 32.15 2.6 48.37s-3 32.44-5.58 48.52v.84l-.26 1.63c-.52 3.18-1.07 6.35-1.33 9.56-.3 3.67-.23 7.37-.29 11.06-.14 9-2.93 39.77-3.83 48.76l-.13 1.29c2.19 6.09 1.17 18.09 1.68 24.54a190.65 190.65 0 0 1 .29 27q-.18 2.85-.46 5.69c-.6 6.06-.84 10.84-2 16.79l-.24 1.34a56.7 56.7 0 0 1-4.07 13.27l-6.71 14.55a67.45 67.45 0 0 0-3 7.2 32 32 0 0 0-1.28 17.33l.29 1.76a51.33 51.33 0 0 0 4.36 13c2 4.05 4.41 7.87 6.6 11.81a157.6 157.6 0 0 1 8.41 18.07 53.9 53.9 0 0 1 3.39 10.83 19.12 19.12 0 0 1 .41 3.63l.05 1.23a80.94 80.94 0 0 1-1.33 14.34s-.42 2.54-4.8 6c-2.94 2.36-7.12 2.62-10.9 2.64a8.68 8.68 0 0 1-4.47-.92c-2.6-1.52-3.38-4.84-4.08-7.77a65.52 65.52 0 0 0-4.59-13.35l-.44-1a75.66 75.66 0 0 0-8.29-13.71 21.66 21.66 0 0 0-3.38-3.71 37.19 37.19 0 0 0-3.52-2.38 78.71 78.71 0 0 1-6.4-4.78c-.61-.49-1.25-1.3-2-1.29l-.58-4.23a23.75 23.75 0 0 1-.48-6.42 16.93 16.93 0 0 1 3.5-9.76 43.35 43.35 0 0 0 3.12-3.61l1-3.51a15.42 15.42 0 0 0 .62-3.48l.11-1.76c.46-7.18-1.1-14.49-2.63-21.6-2.32-10.75-4.37-20.26-6-31.16l-.21-1.36c-2.47-16.22-3.61-32.54-1.62-48.78.94-7.65.62-17.45 1.07-25.14v-1.41c.36-18.51-3.31-55.51-6.71-73.71l-.15-1.6-5.17-18.98-5.63-20.69c-14.62-14.36-24.72-2.29-24.72-2.29-4.21 5-6.15 11.6-6.84 18.11s-.25 13.09-.29 19.63q0 3.17-.18 6.34v1c-.7 14.14-3.35 28.15-6.15 42a55.76 55.76 0 0 0-1.46 10.81 54.91 54.91 0 0 0 .76 8c.75 5.2.71 9.5 1.46 14.71l.1 2.28-1.34 18.39c-1.57 8.68 1.9 17.36 4.08 25.92 1.87 7.31 3.63 14.92 2.89 22.42l-.34 3.09c-1.82 15.23-5.85 30.12-9.87 44.94-1.39 5.14-2.78 10.59-1.31 15.7a8.87 8.87 0 0 0 .5 1.5l.31.73c.27.65.57 1.3.87 1.94 2.24 4.84 4.93 9.67 7.48 14.35a11.2 11.2 0 0 1 .68 7.98 33.3 33.3 0 0 1-3.17 7.49l-4.71 9a31 31 0 0 0-2.53 5.76 8.84 8.84 0 0 0-.51 2.25l-.12 1.15c-.07.65-.11 1.3-.14 2-.21 4.3.63 8.53.87 12.83.17 3.07.26 6.42-1.54 8.91s-4.76 3.37-7.59 4.21l-2.4.72c-.59.18-1.18.35-1.78.5-6.07 1.5-13.82.87-17.52-4.16a28.52 28.52 0 0 1-5.45-15.1 29.22 29.22 0 0 1 .7-8.9l.2-.95a100.63 100.63 0 0 1 3.92-12.71l2.42-6.66a44.15 44.15 0 0 0 2.43-8.36c.08-.5 0-.39.07-.89a24.53 24.53 0 0 0-.82-13.73l-.49-1.81-.24-.91-.6-2.25c-1.64-6.12-3.24-11.71-5.11-17.77l-.94-3-5.75-18.52c-.89-2.86-1.87-5.78-2.7-8.66a78.87 78.87 0 0 1-2.66-12.59l-.16-1.14c-1.46-11.11-1.18-22.45-.45-33.73.32-4.9.65-9.58.6-14.49 0 0-.48-14.16-4-21.59l-.22-.67q-5.26-35.79-13.24-71.11a97.94 97.94 0 0 0-2.62-9.9v-1q-.3-.89-.64-1.77c-1.3-3.39-3-6.61-4.26-10-3-8.43-3-17.61-2.94-26.56l-3.27-23.39c-1.17-12.56.45-21.78 3.84-34l.79-2.93.78-2.45.32-1.16c2.19-7.74 4.69-15.4 6.8-23.15l.35-1.52a141.2 141.2 0 0 0 3.29-13.92 103.85 103.85 0 0 0-.81-40.37c-.82-3.73-.71-7.88-1.5-11.62l-.59-1.67c-1.95-9.57-1.52-19.24-1.92-29-.35-8.53-1.14-16.32-5.77-23.37l-.7-1.14a28.71 28.71 0 0 0-2.2-3l-7.17-9.47c-1.6 3.05-3.91 5.72-5.2 8.91a19 19 0 0 0-1.08 3.87l-.09.63a76.65 76.65 0 0 0-.68 9c-.52 9.62-2.86 19-5.18 28.4-1.64 6.61-3.33 13.34-6.85 19.17v1.14c1.27 7.82.91 13.64 0 21.51a85.13 85.13 0 0 1-2 10.92l-.27 1.14c-1.6 6.58-3.7 13.06-5.79 19.5l-9.09 28a17 17 0 0 0-.85 5.46v1c0 4.33 1.72 8.27 3.28 12.82 2.8 8.18 3.1 16.94 1.91 25.55v1a88.33 88.33 0 0 1-2.71 12.47 37.77 37.77 0 0 1-4.84 11.17 16.39 16.39 0 0 1-9.7 7c-3.44.73-7 0-10.44-.8-4-.92-8.52-2.38-10-6.19-.84-2.14-.5-4.53-.37-6.82a41 41 0 0 0-2.85-16.79v-1c-1.59-4-3.07-8.46-1.56-12.48 1-2.75 3.32-4.81 5.41-6.88 5.32-5.25 10.1-11.73 10.58-19.18v-1a41.85 41.85 0 0 0-.45-7.48c-1.73-15-2.42-23.17-.92-38.24l.59-7.12c1.38-13.84 3-23.71 7-37l.44-1.52 2.06-5.49c-1.44-4.71-1-9.76-.49-14.66q1.07-11.14 1.92-22.29c.5-6.53.1-13.79 2.05-20v-1.34l7-45.68c.47-2.65 1-5.29 1.66-7.89l.46-1.92q.39-1.52.84-3a63.67 63.67 0 0 1 10.72-20.62 16 16 0 0 1 4.34-4.17 18 18 0 0 1 4.45-1.63c6.84-1.83 11.71-3.22 18.78-4.55l1.43-.28 3.69-.43a78.14 78.14 0 0 1 27-.73c0-1 2.61-2.93 2.61-2.93l1.19-1 57.38-.26h1.19l15.28 1.78 25.36-2.11c12.11-1 22.88-2.62 34.81-.61h2.72q1.88.31 3.75.73a27.09 27.09 0 0 1 20.65 6.93c5.49 5.1 8.41 12.2 11.06 19.11v.87c1.2 3.24 2 6.49 3.16 9.73l11.36 30.55c1.54 4.14 3.09 8.28 4.36 12.51.77 2.58 1.14 4.22 2 6.77l.31 1c.28.87.58 1.72.91 2.57.79 2.06 1.75 4.05 2.61 6.08a102.36 102.36 0 0 1 7.71 29.31 151.62 151.62 0 0 0 2.17 15.59c.55 2.58 1 4.36 1.75 6.89l.23.78c2.83 9.5 6.72 18.72 8.58 28.45.78 4.07 1.2 8.2 1.64 12.32.76 7.13 1.44 14.2 2.34 21.23v1a209.77 209.77 0 0 0 3.52 20.82c1 4.21 1.29 8.55 2.14 12.79a25.82 25.82 0 0 0 1.66 5.78l.28.69a18.83 18.83 0 0 0 3.29 5.23c2.21 2.44 5.12 4.12 7.66 6.2a30.17 30.17 0 0 1 8.79 11.92c1.23 3 2 6.44 1 9.56s-4.1 5.72-7.33 5.21a10.75 10.75 0 0 1-3.29-1.29 3.56 3.56 0 0 1-1.72-2.51 35.57 35.57 0 0 1 1.83 14.1v1a35.18 35.18 0 0 1-1.64 8.39c-1.15 3.52-3 7-6.18 8.94-2.5 1.52-5.52 1.87-8.45 2-4.34.25-9 .11-12.63-2.25a19.6 19.6 0 0 1-4.86-4.91 26.19 26.19 0 0 1-2.37-3.67 27.37 27.37 0 0 1-2.2-6.67q-.2-.93-.38-1.86a2.21 2.21 0 0 1 0-1c-1.72-9-1.66-18.39 1.26-27l2-4.69a29.28 29.28 0 0 0 .37-12l-.33-.87-1-3.89a58.58 58.58 0 0 0-3.41-8.43c-4-8.1-9.31-15.52-12.93-23.79a70.67 70.67 0 0 1-2.9-7.9v-1c-3.57-11.8-4.35-24.44-5.08-36.83a13.45 13.45 0 0 1-.13-3.05s-1.55-4.69-2.16-6.11c-1.66-3.87-2.91-6.79-4.54-10.67l-.4-.95q-3.78-8.79-7.35-17.67c-.88-2.18-1.76-4.37-2.43-6.63-1.9-6.43-2.08-13.39-5-19.44a20.41 20.41 0 0 0-1.39-2.58l-.76-1.26c-.3-.5-8.76-10.38-10.16-13.24l-1.49-1.97-2 3.59-2.09 8.41-.25 1-.26 1a40.49 40.49 0 0 0-1.15 5.43 37 37 0 0 0-.1 5.8c.56 14.18 4.63 27.81 4.67 42v3.37c.27 12.19 2.77 24.24 5.37 36.19 2.23 10.24 4.57 20.5 7.72 30.51 0 0 6.62 10.38 7.38 27" class="front_fill_outline" />
    </g>
    <g id="borders" style="pointer-events:none;" transform="translate(100,30)">
        <path d="M168.68 504.07q.18-1.54.34-3.09c.74-7.51-1-15.11-2.89-22.42-2.18-8.55-5.66-17.23-4.08-25.92l1.33-18.38-56.14 3.86c3.5 7.43 4 21.59 4 21.59 0 4.91-.29 9.59-.6 14.49-.73 11.28-1 22.62.45 33.73z" class="front_outline_border1" />
        <path d="M266.99 428.75c.89-9 3.82-41 4-50 .06-3.69 0-7.38.29-11.06.26-3.21.81-6.39 1.33-9.56l.26-1.63-61.3-3c3.4 18.2 7.22 56.8 6.86 75.31z" class="front_outline_border1" />
        <path d="M58.03 67.12l24.69 37.31a28.71 28.71 0 0 1 2.2 3l88.24-1.5v-41z" class="front_outline_border1" />
        <path d="M172.15 2.26l1.23 60.76h76.82l-1.15-61.48c-11.93-2-24.27-.65-36.38.36l-25.29 2.11z" class="front_outline_border1" />
        <path d="M113.58 2.52s-3.77 2.93-3.8 3.91a78.14 78.14 0 0 0-27 .73l1 58.53 88.37-2.84-1.19-60.6-57.38.26" class="front_outline_border1" />
        <path d="M268.61 637.18c-2.94 2.36-7.12 2.62-10.9 2.64a8.68 8.68 0 0 1-4.47-.92c-2.6-1.52-3.38-4.84-4.08-7.77a75.62 75.62 0 0 0-5-14.31h30.6a80.94 80.94 0 0 1-1.38 14.31s-.4 2.54-4.77 6.05z" class="front_outline_border1" />
        <path d="M266.28 504.07c1.13-5.95 1.62-12.07 2.22-18.13q.28-2.84.46-5.69a190.65 190.65 0 0 0-.29-27c-.51-6.45.51-18.45-1.68-24.54h-48.61c-.45 7.69-.11 18.9-1 26.55-2 16.24-.85 32.56 1.62 48.78z" class="front_outline_border1" />
        <path d="M251.52 558.19a38.6 38.6 0 0 1 1-19.09 67.45 67.45 0 0 1 3-7.2l6.71-14.55a56.7 56.7 0 0 0 4.07-13.27h-47.35c1.66 10.91 3.92 21.77 6.24 32.52 1.53 7.1 3.09 14.42 2.63 21.6z" class="front_outline_border1" />
        <path d="M274.73 616.85a34.12 34.12 0 0 0-.46-4.87 53.9 53.9 0 0 0-3.39-10.83 157.6 157.6 0 0 0-8.41-18.07c-2.19-3.94-4.62-7.76-6.6-11.81a51.33 51.33 0 0 1-4.36-13h-23.7a34.33 34.33 0 0 1-.73 5.24l-1 3.51a43.35 43.35 0 0 1-3.12 3.61 16.93 16.93 0 0 0-3.5 9.76 23.75 23.75 0 0 0 .48 6.42l.58 4.23c.78 0 1.42.81 2 1.29a78.71 78.71 0 0 0 6.4 4.78 37.19 37.19 0 0 1 3.52 2.38 21.66 21.66 0 0 1 3.38 3.71 75.66 75.66 0 0 1 8.31 13.65z" class="front_outline_border1" />
        <path d="M275.45 253.34a51.47 51.47 0 0 0-1.33-6.36 177.11 177.11 0 0 1-6-16.95l-78.13 36.47 9.5 46.44 76-56.45" class="front_outline_border1" />
        <path d="M272.83 355.61q3.87-24.12 5.58-48.52c1.14-16.22-3.42-32.13-2.6-48.37 0 0-.15-.94-.36-2.21l-74.76 57.15 10.83 39.78z" class="front_outline_border1" />
        <path d="M175.14 65.71v40.5l76.66-1 2.38-9.34 16.92-30.9z" class="front_outline_border1" />
        <path d="M254.98 161.35v-1.93c0-14.19-4.12-27.83-4.67-42a37 37 0 0 1 .1-5.8 40.49 40.49 0 0 1 1.15-5.43l.26-1-58.73 2.24 60.07 53.7" class="front_outline_border1" />
        <path d="M267.8 107.42c-.3-.5-10.25-12.31-11.65-15.17l29.54-63.32c1.2 3.24 2 6.49 3.16 9.73l11.4 30.55c1.54 4.14 3.09 8.28 4.36 12.51.77 2.58 1.45 5.19 2.28 7.74z" class="front_outline_border1" />
        <path d="M322.27 150.67c-.75-2.53-1.43-5.08-2-7.67a151.62 151.62 0 0 1-2.17-15.59 102.36 102.36 0 0 0-7.72-29.3c-.86-2-1.82-4-2.61-6.08-.33-.85-.63-1.71-.91-2.57l-39.09 18c.76 1.26 1.51 2.51 2.14 3.83 2.9 6 3.08 13 5 19.44.67 2.26 1.55 4.45 2.43 6.63q3.6 8.89 7.31 17.73z" class="front_outline_border1" />
        <path d="M334.83 212.67c-.89-7-1.57-14.1-2.34-21.23-.44-4.12-.86-8.25-1.64-12.32-1.87-9.73-5.75-19-8.58-28.45l-37.61 4.39q2.44 5.82 4.93 11.62c.61 1.42 2.16 6.11 2.16 6.11a13.45 13.45 0 0 0 .13 3.05c.72 12.39 1.51 25 5.08 36.83z" class="front_outline_border1" />
        <path d="M187.38 4.01l25.32-2.16c12.11-1 24.45-2.38 36.38-.36l-38.7 35.25z" class="front_outline_border2" />
        <path d="M272.74 63.02h-21.5l-1-61.73q1.88.31 3.75.73a27.09 27.09 0 0 1 20.65 6.93c5.49 5.1 8.41 12.2 11.06 19.11z" class="front_outline_border1" />
        <path d="M342.51 253.79a32.54 32.54 0 0 1-1.95-6.47c-.86-4.24-1.17-8.58-2.14-12.79a209.77 209.77 0 0 1-3.59-20.86h-37.88a70.67 70.67 0 0 0 2.9 7.9c3.62 8.27 8.94 15.69 12.93 23.79a58.58 58.58 0 0 1 3.41 8.43l1 3.89z" class="front_outline_border1" />
        <path d="M342.51 253.79a18.83 18.83 0 0 0 3.29 5.23c2.21 2.44 5.12 4.12 7.66 6.2a30.17 30.17 0 0 1 8.79 11.92c1.23 3 2 6.44 1 9.56s-4.1 5.72-7.33 5.21a10.75 10.75 0 0 1-3.29-1.29 3.56 3.56 0 0 1-1.72-2.51 35.57 35.57 0 0 1 1.81 14.12h-38.75c-1.72-9-1.66-18.39 1.26-27l2-4.69a29.28 29.28 0 0 0 .37-12z" class="front_outline_border1" />
        <path d="M352.69 303.23a35.18 35.18 0 0 1-1.64 8.39c-1.15 3.52-3 7-6.18 8.94-2.5 1.52-5.52 1.87-8.45 2-4.34.25-9 .11-12.63-2.25a19.6 19.6 0 0 1-4.86-4.91 26.19 26.19 0 0 1-2.37-3.67 27.37 27.37 0 0 1-2.2-6.67q-.2-.93-.38-1.86z" class="front_outline_border1" />
        <path d="M29.07 98.03l7.31-46.35c.47-2.65 1-5.29 1.66-7.89l37.53 51.17c-1.6 3.05-3.91 5.72-5.2 8.91a19 19 0 0 0-1.08 3.87" class="front_outline_border1" />
        <path d="M38.47 41.85q.39-1.52.84-3a63.67 63.67 0 0 1 10.73-20.64 16 16 0 0 1 4.34-4.16 18 18 0 0 1 4.45-1.63c6.84-1.83 13.86-3.64 20.92-5l2 58.23H56.07c-1.58.61-17.6-23.8-17.6-23.8z" class="front_outline_border1" />
        <path d="M83.71 6.77q-2 .31-4 .69" class="front_outline_border1" />
        <path d="M16.33 199.68a212.7 212.7 0 0 1 8.15-40.83l31.47 5.1a84.76 84.76 0 0 1 .47 23.7 104 104 0 0 1-2.25 12.06z" class="front_outline_border1" />
        <path d="M2.68 292.06c-1.59-4-3.07-8.46-1.56-12.48 1-2.75 3.32-4.81 5.41-6.88 5.32-5.25 10.1-11.73 10.58-19.18l21.32.17c0 4.33 1.72 8.27 3.28 12.82 2.8 8.18 3.1 16.94 1.91 25.55z" class="front_outline_border1" />
        <path d="M2.68 293.06a41 41 0 0 1 2.86 16.79c-.13 2.29-.48 4.68.37 6.82 1.5 3.81 6 5.27 10 6.19 3.43.79 7 1.53 10.44.8a16.39 16.39 0 0 0 9.7-7 37.77 37.77 0 0 0 4.84-11.17 88.33 88.33 0 0 0 2.71-12.47z" class="front_outline_border1" />
        <path d="M17.12 252.52a41.85 41.85 0 0 0-.45-7.48 212.86 212.86 0 0 1-.34-45.36h37.84c-1.6 6.58-3.7 13.06-5.79 19.5l-9.09 28a17 17 0 0 0-.85 5.46z" class="front_outline_border1" />
        <path d="M25.85 155.65c-1.44-4.71-1-9.76-.49-14.66q1.02-11.14 1.93-22.28c.5-6.53.1-13.79 2.05-20l39.83 9.67a76.65 76.65 0 0 0-.68 9c-.52 9.62-2.86 19-5.18 28.4-1.64 6.61-3.33 13.34-6.85 19.17z" class="front_outline_border1" />
        <path d="M93.31 107.74c-7.34-4.15-12-11.79-15.75-19.33s-7.26-15.5-13.35-21.35l43.52 1.29z" class="front_outline_border2" />
        <path d="M223.74 68.35l43.52-1.29c-6.09 5.84-9.55 13.81-13.35 21.35s-8.4 15.18-15.75 19.33z" class="front_outline_border2" />
        <path d="M92.89 161.15c-1.95-9.57-1.11-19.46-1.51-29.22-.35-8.53-1.84-17.44-6.47-24.49h72.82z" class="front_outline_border1" />
        <path d="M160.44 261.69h40.54l67.09-32.2c-3.15-10-5.48-20.27-7.72-30.51-2.61-11.94-5.11-24-5.37-36.19l-61.91-55.35h-35.33L93.9 162.59c.79 3.73.68 7.89 1.5 11.62a103.85 103.85 0 0 1 .83 40.39 141.2 141.2 0 0 1-3.29 13.92l67.51 33.16" class="front_outline_border2" />
        <path d="M84.8 254.35l.32-1.16c2.19-7.74 4.69-15.4 6.8-23.15l62.37 29.65v37.25z" class="front_outline_border1" />
        <path d="M91.15 355.44q-.3-.89-.64-1.77c-1.3-3.39-3-6.61-4.26-10-3-8.43-3-17.61-2.94-26.56l-3.27-23.39c-1.17-12.56 1.37-25.17 4.75-37.34l91.18 55c-4.21 5-6.15 11.6-6.84 18.11s-.25 13.09-.29 19.63q0 3.17-.18 6.34z" class="front_outline_border1" />
        <path d="M107.02 437.45q-5.26-35.79-13.24-71.11a97.94 97.94 0 0 0-2.62-9.9h77.52c-.7 14.14-3.35 28.15-6.15 42a55.76 55.76 0 0 0-1.46 10.81 54.91 54.91 0 0 0 .76 8l2.24 15.6z" class="front_outline_border1" />
        <path d="M121.66 616.85a100.63 100.63 0 0 1 3.94-12.58l2.42-6.66a44.15 44.15 0 0 0 2.43-8.36c.08-.5 0-.39.07-.89a24.53 24.53 0 0 0-.82-13.73l-.73-2.72 29.33-4.93c.27.65.57 1.3.87 1.94 2.24 4.84 4.93 9.67 7.48 14.35a11.2 11.2 0 0 1 .71 7.94 33.3 33.3 0 0 1-3.17 7.49l-4.71 9a31 31 0 0 0-2.53 5.76 19.79 19.79 0 0 0-.63 3.4z" class="front_outline_border1" />
        <path d="M156.32 616.85c-.07.65-.11 1.3-.14 2-.21 4.3.63 8.53.87 12.83.17 3.07.26 6.42-1.54 8.91s-4.76 3.37-7.59 4.21l-2.4.72c-.59.18-1.18.35-1.78.5-6.07 1.5-13.82.87-17.52-4.16a28.52 28.52 0 0 1-5.45-15.1 35.8 35.8 0 0 1 .9-9.84z" class="front_outline_border1" />
        <path d="M158.3 566.94a19.92 19.92 0 0 1-.8-2.22c-1.47-5.12-.08-10.57 1.31-15.7 4-14.82 8.05-29.71 9.87-44.94l-57.62 3.85a93.49 93.49 0 0 0 2.82 13.73c.83 2.88 1.82 5.8 2.7 8.66l5.73 18.53.94 3c1.87 6.05 3.47 11.65 5.11 17.77l.6 2.25z" class="front_outline_border1" />
        <path d="M82.74 7.16a78.14 78.14 0 0 1 27-.73c0-1 3.8-3.91 3.8-3.91 7.69-.77 15.42-.86 23.15-.94 3.06 0 6.22 0 9 1.15l-33.69 34z" class="front_outline_border2" />
        <path d="M155.09 262.25h56.44v51.24h-56.44z" class="front_outline_border3" />
    </g>
    <g id="conteiner_content"></g>
    <g id="menu_container" x="40" y="40" transform="translate(40,40)"></g>
    <text id="ismobile" x="30" y="30">Mobile ve Tablet cihazlarda görüntülenmemektedir</text>
    <defs>
        <linearGradient id="Gradient1" x1="0" x2="0" y1="0" y2="1">
            <stop stop-color="#3399ff" offset="0%" />
            <stop stop-color="#0073e6" offset="100%" />
        </linearGradient>
        <linearGradient id="Gradient2" x1="0" x2="0" y1="0" y2="1">
            <stop stop-color="#eee" offset="0%" />
            <stop stop-color="#ccc" offset="100%" />
        </linearGradient>
        <filter id="dropshadow">
            <feGaussianBlur in="SourceAlpha" stdDeviation="2" />
            <feOffset dx="1" dy="1" result="offsetblur" />
            <feMerge>
                <feMergeNode />
                <feMergeNode in="SourceGraphic" />
            </feMerge>
        </filter>
        <pattern id="grid" width="12" height="12" patternUnits="userSpaceOnUse">
            <path d="M 0 0 L 12 0 12 12 0 12 z" stroke="#fff" stroke-width="1" fill="#eee"></path>
        </pattern>
        <link href="script.css" rel="stylesheet" type="text/css" xmlns="http://www.w3.org/1999/xhtml" />
        <script xlink:href="components/script.data.js"></script>
    </defs>
</svg>