<?xml version="1.0" encoding="utf-8"?>
<svg id="container" xmlns="http://www.w3.org/2000/svg" xmlns:xlink="http://www.w3.org/1999/xlink" preserveAspectRatio="xMinYMin meet" viewBox="0 0 1058.28 1141.97">
    <g id="BG" style="pointer-events:none;">
        <path d="M262.7 384.7c-18.91 31-3.87 77.92 6.89 103.32 5.89 13.92 16.61 25.44 31 33.32a46.72 46.72 0 0 1 15.69 13.27c13.54 33.16 30.86 186.91 28.52 281.79-2.14 86.89-47.38 118.58-62.24 129l-.7.49q-1.95 1.37-4 2.57l-11.17 6.49s-32 17.86-73.09 40.85l-.21.12c-69.31 38.76-164.4 92-175.81 98.73C-.61 1105.39.02 1141.99.02 1141.99h1058.26s.63-36.6-17.56-47.34-249.11-139.7-249.11-139.7l-11.67-6.86q-1.38-.81-2.68-1.73l-1.36-1c-14.86-10.42-60.09-42.11-62.24-129-2.34-94.89 15-248.63 28.52-281.79a46.72 46.72 0 0 1 15.69-13.27c14.39-7.88 25.11-19.4 31-33.32 10.81-25.5 25.91-72.64 6.68-103.67l-.1-.66c2.69-10.6 21.38-97.19 19.45-172.28a180.28 180.28 0 0 0-52.21-122.81C721.96 47.75 648.77 0 529.23 0S336.43 47.84 295.7 88.69a179.87 179.87 0 0 0-52.15 122.15c-1.81 67 13.16 143.43 18.14 166.78a50.36 50.36 0 0 1 1 6.94z" class="man_background" />
    </g>
    <g id="container_path_models">
        <path id="group1" d="M524.94 316.51v196.51l-236.79-.18a66 66 0 0 1-18.56-24.85c-10.77-25.4-25.8-72.29-6.89-103.32.16 10.56 3.35 14.84 8.8 14.48 0 0 17.08 5.22 17.08-57.55 0-9.38.25-18.44.68-27.07l235.65-.28z" class="man_fill" />
        <path id="group2" d="M786.51 387.19c-2.39-8.29-15.8-57-37.92-179.43a7.27 7.27 0 0 0-8.71-5.82c-84.1 18.61-208.32-8.44-208.32-8.44l21.67 22.34c-136.41-27.54-214.28-3.44-242 8.53a23.85 23.85 0 0 0-14 17.59 569.42 569.42 0 0 0-9 99.66c0 62.78-17.08 57.55-17.08 57.55-6.91 0-8.23-7.38-8.37-12.1a52.59 52.59 0 0 0-1.09-9.44c-5-23.35-19.94-99.76-18.14-166.78a179.87 179.87 0 0 1 52.14-122.16C336.43 47.84 409.63 0 529.23 0s192.73 47.75 233.46 88.6a180.28 180.28 0 0 1 52.21 122.81c1.93 75.09-16.75 161.68-19.45 172.28-2 8.07-4.88 7.93-6.71 6.7a5.7 5.7 0 0 1-2.23-3.2z" class="man_fill" />
        <path id="group3" d="M525.01 210.67q4.61.74 9.32 1.55l.47.08q9.2 1.61 18.78 3.54l-21.67-22.33s124.22 27 208.32 8.44a7.27 7.27 0 0 1 8.71 5.82c8.06 44.63 15 79.47 20.6 106.12H524.92z" class="man_fill" />
        <path id="group4" d="M524.92 313.84H289.3a567.4 567.4 0 0 1 8.25-71.92 23.85 23.85 0 0 1 14-17.59c25.7-11.1 94.52-32.63 213.15-13.75z" class="man_fill" />
        <path id="group5" d="M524.94 855.17h12.09c48.82 0 89.7-36.46 117-70l.25-.25v210.92H524.94z" class="man_fill" />
        <path id="group6" d="M406.43 1141.97H0s-.63-36.6 17.56-47.34c11.41-6.73 106.5-60 175.81-98.73H406.5z" class="man_fill" />
        <path id="group7" d="M524.94 855.17h-1.35c-48.83 0-89.7-36.46-117-70l-.09 210.67h118.44V855.13" class="man_fill" />
        <path id="group8" d="M342.86 730.31c1.77 30.63 2.57 60.5 1.93 86.09-2.14 86.89-47.38 118.58-62.24 129l-.7.49q-1.95 1.37-4 2.57l-11.17 6.49s-32 17.86-73.09 40.85l-.21.06h213.05V784.95l.07.09a341.83 341.83 0 0 1-36.39-54.73l-31.16-51.65z" class="man_fill" />
        <path id="group9" d="M338.96 678.66c0-1.58.71 6.51-1.44-15.35-5.81-59-14.06-111.12-21.24-128.71a46.72 46.72 0 0 0-15.69-13.27 76.5 76.5 0 0 1-12.26-8.32h236.61v342.16h-1.35c-89.91 0-152.84-123.6-153.47-124.86z" class="man_fill" />
        <path id="group10" d="M719.89 673.41c5.84-63.15 14.67-120.12 22.3-138.8a46.72 46.72 0 0 1 15.69-13.27 76.48 76.48 0 0 0 12.35-8.37H524.94v342.2h12.09c48.55 0 89.25-36.06 116.51-69.42 0 0 32.24-44.31 37-55.44l29.37-56.75z" class="man_fill" />
        <path id="group11" d="M406.43 995.84h118.5v146.13h-118.5z" class="man_fill" />
        <path id="group12" d="M524.59 995.84h129.64v146.13H524.59z" class="man_fill" />
        <path id="group13" d="M864.81 995.84c69.32 38.77 164.5 92.06 175.91 98.79 18.19 10.74 17.56 47.34 17.56 47.34H654.57v-146.2z" class="man_fill" />
        <path id="group14" d="M715.52 731.65c-1.71 30.16-2.48 59.53-1.86 84.74 2.14 86.88 47.37 118.58 62.24 129l1.36 1q1.3.92 2.68 1.73l11.67 6.86s32 17.86 73.06 40.83H654.23l.32-211.27a341.64 341.64 0 0 0 36-54.19l29.37-56.75z" class="man_fill" />
        <path id="group15" d="M525.23 314.27l244.33-.29c9.81 46.37 15.77 67.93 17.29 73.19a5.7 5.7 0 0 0 2.23 3.19c2.48 1.82 4.57-.87 6.46-6 19.24 31 4.13 78.18-6.68 103.67a66 66 0 0 1-18.52 24.81h-245.4z" class="man_fill" />
    </g>
    <g id="Outline" style="pointer-events:none;">
        <path d="M525.73 314.77l244.33-.29c9.81 46.37 15.77 67.93 17.29 73.19a5.7 5.7 0 0 0 2.23 3.19c2.48 1.82 4.57-.87 6.46-6 19.24 31 4.13 78.18-6.68 103.67a66 66 0 0 1-18.52 24.81m-245.4-196.33v196.51l-236.79-.18a66 66 0 0 1-18.56-24.85c-10.77-25.4-25.8-72.29-6.89-103.32.16 10.56 3.35 14.84 8.8 14.48 0 0 17.08 5.22 17.08-57.55 0-9.38.25-18.44.68-27.07l235.65-.28z" class="man_outline" />
        <path d="M428.07 421.93c-21.39 0-61.11-11.52-78.42-36.24a8.22 8.22 0 0 1 .5-10.06c8.91-10.44 34.32-34.71 77.59-34.71.45 0 36.54 2.25 66.14 25.8a59.24 59.24 0 0 0 12.64 7.89 2.64 2.64 0 0 1 1.58 2.22 2.68 2.68 0 0 1-1.26 2.47c-1.87 1.17-6 4.19-13 11.3-10.73 10.94-42.76 31.33-65.77 31.33z" class="man_outline" />
        <path d="M360.54 396.09c-4.89-18-4.06-25.38-4-25.68" class="man_outline" />
        <path d="M489.49 364.72c.23.88 5.43 21.64-1.78 30.2" class="man_outline" />
        <path d="M424.21 418.75c-23.8 0-43.16-17.19-43.16-38.31s19.36-38.31 43.16-38.31 43.16 17.19 43.16 38.31-19.37 38.31-43.16 38.31z" class="man_outline" />
        <path d="M423 394.34c-8 0-14.51-5.79-14.51-12.92S415 368.5 423 368.5s14.52 5.79 14.52 12.92S431 394.34 423 394.34z" class="man_outline" />
        <path d="M638.5 421.93c-23 0-55-20.39-65.76-31.33-7-7.11-11.15-10.13-13-11.3a2.68 2.68 0 0 1-1.26-2.47 2.64 2.64 0 0 1 1.58-2.22 59.21 59.21 0 0 0 12.65-7.9c29.6-23.55 65.68-25.77 66-25.79 43.37 0 68.77 24.27 77.69 34.71a8.22 8.22 0 0 1 .5 10.06c-17.29 24.73-57.01 36.24-78.4 36.24z" class="man_outline" />
        <path d="M710.06 370.41c0 .31.88 7.7-4 25.68" class="man_outline" />
        <path d="M578.87 394.92c-7.21-8.56-2-29.32-1.78-30.2" class="man_outline" />
        <path d="M642.37 418.75c-23.8 0-43.16-17.19-43.16-38.31s19.36-38.31 43.16-38.31 43.16 17.21 43.16 38.3-19.37 38.32-43.16 38.32z" class="man_outline" />
        <path d="M643.58 394.34c-8 0-14.52-5.79-14.52-12.92s6.51-12.92 14.52-12.92 14.51 5.79 14.51 12.92-6.51 12.92-14.51 12.92z" class="man_outline" />
        <path d="M490.67 331.15s-2.27.29-6.28.5a74 74 0 0 1-16.7-.79c-6.73-1.42-14.47-2.64-22.93-3.71s-17.49-1.88-26.47-2.3h-3.28c-.81 0-2.18.15-3.24.22-2.3.12-4.46.4-6.59.7-4.28.6-8.58 1.34-12.67 2.15l-11.9 2.28-10.68 2.26-22.2 4.88-.26-.64a124.47 124.47 0 0 1 20.94-9.58c3.25-1.19 6.82-2.34 10.64-3.44s7.91-2.07 12.19-2.86a125.65 125.65 0 0 1 13.4-1.51c2.34-.13 4.68-.25 6.92-.22h3.58l1.71.09 1.84.16c9.2 1 18.22 2.33 26.69 3.85 4.23.77 8.31 1.57 12.14 2.49s7.48 1.92 10.72 2.82a72.43 72.43 0 0 0 16.14 2c4 .09 6.24 0 6.24 0z" class="man_outline" />
        <path d="M572.51 330.47s2.27.12 6.24 0a72.43 72.43 0 0 0 16.14-2c3.25-.9 6.88-1.94 10.72-2.82s7.92-1.72 12.14-2.49c8.47-1.52 17.5-2.89 26.69-3.85l1.84-.16 1.71-.09h3.58c2.24 0 4.58.09 6.92.22a125.65 125.65 0 0 1 13.4 1.51c4.28.8 8.37 1.75 12.19 2.86s7.39 2.25 10.64 3.44a124.47 124.47 0 0 1 20.95 9.58l-.26.64-22.22-4.92-10.68-2.26-11.9-2.28c-4.09-.81-8.4-1.54-12.67-2.15-2.12-.29-4.29-.58-6.59-.7-1.06-.07-2.43-.19-3.24-.22h-3.28c-9 .42-18 1.27-26.47 2.3s-16.2 2.28-22.93 3.71a74 74 0 0 1-16.7.79c-4-.21-6.28-.5-6.28-.5z" class="man_outline" />
        <path d="M478.18 458.74a.44.44 0 0 1 .86.16c-.26 6-.76 19.56.13 21.35 1.15 2.3 9.73 11.2 11.47 12.93s-14.92-5.17-17.79-9.48c-2.28-3.42 3.03-18.75 5.33-24.96z" class="man_outline" />
        <path d="M582.88 458.74a.44.44 0 0 0-.86.16c.26 6 .76 19.56-.13 21.35-1.15 2.3-9.73 11.2-11.47 12.93s14.92-5.17 17.79-9.48c2.28-3.42-3.03-18.75-5.33-24.96z" class="man_outline" />
        <path d="M530.73 502.08c6.36-.43 9.52-3 11.31-4 2.21-1.29 6.24-4.05 8.52-5.8a8.52 8.52 0 0 1 3.87-1.68c4.05-.63 8.61-1.89 8.61-1.89 6.95-2.13 5.06-5.06 5.06-5.06s-1.52-4.57-6-1.94c-4.24 2.48-14.65 10-21.11 14.87-4.31 3.23-7.42 2.92-9 2.35a3.61 3.61 0 0 0-2.43 0c-1.6.57-4.71.88-9-2.35-6.46-4.85-16.87-12.39-21.11-14.87-4.51-2.63-6 1.94-6 1.94s-1.88 2.93 5.06 5.06c0 0 4.56 1.26 8.61 1.89a8.52 8.52 0 0 1 3.87 1.68c2.29 1.75 6.31 4.51 8.52 5.8 1.71 1 4.87 3.57 11.22 4z" class="man_outline" />
        <path d="M529.66 549.2c-2.16 0-38.62.45-65.77 28.47-22.1 22.81-32.23 57.28-30.11 102.45 0 37.43 10.09 65.39 30 83.18 27.76 24.83 65.41 20.95 65.79 20.9h.38c.37 0 38.1 3.89 65.82-20.93 19.84-17.79 29.96-45.74 29.96-83.08 2.12-45.27-8-79.75-30.15-102.56-27.87-28.73-65.4-28.49-65.78-28.43z" class="man_outline" />
        <path d="M477.56 674.06c-.15-.25-3.7-6.17-3.7-19.43 0-10.71 3-18.6 8.77-23.46 8.24-6.89 19.08-5 19.54-4.95 6.51 1.83 17.9 8.15 15.6 19.28-.7 3.4-.35 5.93 1 7.51 2 2.28 5.73 2.06 5.76 2.06.27 0 4 .23 6-2.07 1.38-1.58 1.72-4.1 1-7.49-2.2-11.17 9.2-17.47 15.54-19.26.62-.12 11.46-2 19.7 4.91 5.82 4.86 8.77 12.76 8.77 23.46 0 13.26-3.55 19.19-3.7 19.43" class="man_outline" />
        <path d="M526.28 764.65c-21.88 0-52.32-35.06-57.15-65.81-3.4-21.65 9-28.76 20-30.92a43.91 43.91 0 0 1 17.84.48 147.88 147.88 0 0 0 19.42 3 154.45 154.45 0 0 0 19.2-3 44 44 0 0 1 17.84-.48c11 2.15 23.39 9.27 20 30.92-4.82 30.76-35.27 65.81-57.15 65.81z" class="man_outline" />
        <path d="M525.43 716.09a110.76 110.76 0 0 1 0-36.93" class="man_outline" />
        <path d="M502.09 739.59c-10.61-4.72-13.31-15.92-13.42-16.39" class="man_outline" />
        <path d="M562.73 732.56c-5.89 12.38-15 13.11-15.37 13.13" class="man_outline" />
        <path d="M526.64 643.42c0-1.09.23-26.84 1.09-32.44s.85-18.08 0-21.42a53.56 53.56 0 0 1-1.1-8.79" class="man_outline" />
        <path d="M502.73 582.44c.06-.22.68-2.15 4.18-2.57a36.79 36.79 0 0 1 5.95-.06c.92 0 1.72.08 2.31.05" class="man_outline" />
        <path d="M501.34 589.34a49.84 49.84 0 0 1 10.56 0" class="man_outline" />
        <path d="M498.6 599.69c.18-.23 4.54-5.65 15.68-3.88" class="man_outline" />
        <path d="M504.47 605.13a30.27 30.27 0 0 1 13.9-1.34" class="man_outline" />
        <path d="M535.98 581.96c.2-.14 5-3.5 12.54-1.79" class="man_outline" />
        <path d="M537.73 588.25a15.24 15.24 0 0 1 7.54-1.92" class="man_outline" />
        <path d="M538.61 595.91a22 22 0 0 1 14.62 1.58" class="man_outline" />
        <path d="M539.36 605.15a12.82 12.82 0 0 1 12.5 1.89" class="man_outline" />
        <path d="M505.36 783.15a12.06 12.06 0 0 1-3.63-.65 5.8 5.8 0 0 1-4.67-6.77l.13-1.13c.56-5.1 1.13-10.38 7-10.75a6.13 6.13 0 0 1 4.73 1.39 5.77 5.77 0 0 1 1.73 3.81c.12 1.07 1.16 10.91-1.46 12.91a6.13 6.13 0 0 1-3.83 1.19zm-.63-18.29h-.55c-5 .32-5.45 4.73-6 9.83l-.12 1.14a4.75 4.75 0 0 0 3.85 5.63h.1c1.16.37 4.26 1.33 6.5-.37 1.63-1.24 1.51-8 1.05-12a4.81 4.81 0 0 0-1.41-3.13 4.88 4.88 0 0 0-3.42-1.1z" class="cls-2" />
        <path d="M524.29 785.45l-.9-.51c.06-.11 6.07-10.75 3-16-1.11-1.91-3.36-2.87-6.69-2.87s-5.75 1-7 3c-3.24 5.27 2 15.75 2 15.86l-.92.46c-.23-.45-5.54-11.11-2-16.86 1.43-2.32 4.07-3.49 7.85-3.49s6.28 1.14 7.58 3.39c3.44 5.75-2.66 16.56-2.92 17.02z" class="cls-2" />
        <path d="M495.28 777.68c-2.11 0-5.12-.39-6.71-2.38-2.53-3.16-.31-11.68-.21-12 0-.1 1.55-3.73 7-2.47s5.12 5.58 5.12 5.63l-1-.09c0-.14.24-3.47-4.33-4.52s-5.75 1.67-5.79 1.78c-.6 2.26-1.79 8.78 0 11.07 2.18 2.73 8 1.85 8.07 1.84l.16 1a16.64 16.64 0 0 1-2.31.14z" class="cls-2" />
        <path d="M486.12 770.85a7.27 7.27 0 0 1-4-1.05 5.83 5.83 0 0 1-2.49-4.12c-1.12-6.61 4.29-8.53 4.34-8.55a5.73 5.73 0 0 1 4.48-.55c1.61.56 2.85 2 3.67 4.29l-1 .35c-.71-2-1.73-3.2-3-3.66a4.8 4.8 0 0 0-3.71.49c-.29.12-4.73 1.73-3.77 7.45a4.85 4.85 0 0 0 2 3.43c2.17 1.43 5.31.69 5.34.68l.25 1a9.94 9.94 0 0 1-2.11.24z" class="cls-2" />
        <path d="M480.48 766.58c-.58-.08-5.68-.86-6.62-3.33-1.19-3.11-.44-7.74.91-10.71.64-1.42 3-3.55 7.73-2.49 3.29.73 5.14 3.57 4.73 7.25l-1-.11c.35-3.12-1.19-5.52-3.93-6.12-5.12-1.12-6.51 1.79-6.56 1.91-1.23 2.7-2 7.09-.88 9.91.61 1.62 4.39 2.48 5.79 2.68z" class="cls-2" />
        <path d="M463.31 750.47c-2.15 0-4.78-.53-5.6-2.91-1-2.75-.36-7 .09-9.33a4.6 4.6 0 0 1 4.3-3.77 9.14 9.14 0 0 1 3.73.76c3.68 1.54 9-.23 9.09-.25s1.73-.94 3 0c1.09.77 1.38 2.51.91 5.31-.07 2 0 5.3.46 5.9l-.84.61c-.8-1.11-.68-5.7-.65-6.61.4-2.34.22-3.86-.48-4.36s-2 .13-2 .14c-.32.11-5.86 1.94-9.9.26a7.78 7.78 0 0 0-3.31-.68 3.54 3.54 0 0 0-3.31 2.93c-.42 2.2-1 6.27-.13 8.79 1.15 3.31 7.46 1.92 7.52 1.91l.23 1a15.63 15.63 0 0 1-3.11.3z" class="cls-2" />
        <path d="M466.66 741.23a6.38 6.38 0 0 1-3.82-1.62l.7-.76a5.4 5.4 0 0 0 3.12 1.35h.21a3.16 3.16 0 0 0 2.24-1.29l.8.65a4.15 4.15 0 0 1-3 1.67z" class="cls-2" />
        <path d="M456.84 737.17c-2 0-4.17-.64-5-2.92-1-2.75-.35-7 .09-9.33a4.59 4.59 0 0 1 4.3-3.77 10.16 10.16 0 0 1 3.73.76c3.68 1.53 9-.23 9.09-.25s3.81-1.22 5.84.53c1.11 1 1.48 2.56 1.1 4.75-.08 3.25.07 7.18.46 7.73l-.84.61c-.78-1.08-.69-6.73-.65-8.43.32-1.89.06-3.16-.75-3.86-1.58-1.37-4.81-.34-4.84-.33-.23.08-5.77 1.89-9.81.22a7.55 7.55 0 0 0-3.31-.68 3.55 3.55 0 0 0-3.31 2.93c-.42 2.2-1 6.27-.13 8.79 1.14 3.29 6.19 1.93 6.25 1.92l.28 1a9.78 9.78 0 0 1-2.5.33z" class="cls-2" />
        <path d="M462.16 729.67a6.33 6.33 0 0 1-3.82-1.62l.7-.76a5.38 5.38 0 0 0 3.12 1.35h.21a3.16 3.16 0 0 0 2.24-1.29l.8.65a4.15 4.15 0 0 1-3 1.67z" class="cls-2" />
        <path d="M451.21 724.84a4.35 4.35 0 0 1-4.1-2.8c-1.22-2.71-.38-7 .07-9.37a4.59 4.59 0 0 1 4.3-3.77 9.58 9.58 0 0 1 3.73.76c3.69 1.53 9-.23 9.09-.25s3.81-1.22 5.84.53c1.11 1 1.48 2.56 1.1 4.75-.08 2.91.07 6.47.47 7l-.84.61c-.78-1.08-.7-6.18-.65-7.72.32-1.89.06-3.16-.75-3.87-1.32-1.14-3.94-.62-4.84-.33-.23.08-5.76 1.9-9.82.22a7.16 7.16 0 0 0-3.31-.68 3.54 3.54 0 0 0-3.31 2.93c-.43 2.22-1.23 6.34-.15 8.75a3.44 3.44 0 0 0 4.44 2l.37 1a4.67 4.67 0 0 1-1.64.24z" class="cls-2" />
        <path d="M460.9 717.42a6.36 6.36 0 0 1-3.82-1.62l.7-.76a5.4 5.4 0 0 0 3.12 1.35h.21a3.16 3.16 0 0 0 2.24-1.29l.8.65a4.14 4.14 0 0 1-3 1.66z" class="cls-2" />
        <path d="M447.02 713.34c-1.1 0-3.14-.41-4.77-3.09s-.74-7.09-.17-10c.08-.42.16-.82.22-1.16a5.09 5.09 0 0 1 4.6-4.44 9.37 9.37 0 0 1 4 .92c4 1.82 9.77-.28 9.83-.3s3.89-1.37 6.1.44c1.33 1.09 1.78 3 1.37 5.74-.07 2.8 0 7.18.52 7.93l-.87.57c-.84-1.3-.72-7.38-.68-8.58.37-2.4 0-4-1-4.85-1.76-1.44-5.06-.28-5.09-.27-.25.09-6.24 2.28-10.61.27a8.06 8.06 0 0 0-3.57-.82 4.05 4.05 0 0 0-3.61 3.58c-.06.36-.14.75-.22 1.19-.54 2.8-1.35 7 0 9.31 1.9 3.12 4.33 2.57 4.43 2.55l.25 1a3.46 3.46 0 0 1-.73.01z" class="cls-2" />
        <path d="M454.59 703.34a6.36 6.36 0 0 1-3.82-1.62l.7-.76a5.4 5.4 0 0 0 3.12 1.35h.21a3.16 3.16 0 0 0 2.24-1.29l.8.65a4.14 4.14 0 0 1-3 1.66z" class="cls-2" />
        <path d="M455.01 692.1a6.36 6.36 0 0 1-3.82-1.62l.7-.76a5.4 5.4 0 0 0 3.12 1.35h.21a3.16 3.16 0 0 0 2.24-1.29l.8.65a4.14 4.14 0 0 1-3 1.66z" class="cls-2" />
        <path d="M470.99 760.15c-2 0-4.47-.49-5.24-2.73-.89-2.57-.33-6.53.08-8.67a4.3 4.3 0 0 1 4-3.53 9.41 9.41 0 0 1 3.48.71 6.44 6.44 0 0 0 5.77-.17c.11-.06 1.75-.94 2.94-.09 1 .73 1.3 2.35.85 5l-1-.18c.48-2.82-.07-3.68-.43-3.95-.65-.47-1.79.12-1.8.13a7.45 7.45 0 0 1-6.7.24 6.58 6.58 0 0 0-3.05-.63 3.25 3.25 0 0 0-3 2.69c-.39 2-.93 5.8-.12 8.14 1.05 3 6.88 1.76 6.94 1.75l.23 1a14.38 14.38 0 0 1-2.95.29z" class="cls-2" />
        <path d="M473.31 752.1a5.6 5.6 0 0 1-3.37-1.43l.7-.76a4.62 4.62 0 0 0 2.85 1.15 2.71 2.71 0 0 0 1.9-1.1l.8.65a3.68 3.68 0 0 1-2.64 1.47z" class="cls-2" />
        <path d="M443.52 696.34c-.11-.21-2.6-5.25-.69-9.52 1-2.34 3.2-4 6.4-4.85 11.06-3 17.33 7.38 17.39 7.49s1.91 3.84-.82 6.45l-.71-.75c2.19-2.08.65-5.17.63-5.2-.22-.37-6-9.79-16.21-7-2.89.79-4.82 2.23-5.73 4.28-1.7 3.83.65 8.59.67 8.64z" class="cls-2" />
        <path d="M504.78 571.99h-.62c-5.83-.37-6.41-5.65-7-10.75l-.13-1.13a5.8 5.8 0 0 1 4.7-6.77c1.18-.38 4.77-1.5 7.43.54s1.58 11.85 1.46 13a5.74 5.74 0 0 1-1.73 3.77 5.85 5.85 0 0 1-4.11 1.34zm.58-18.3a11.22 11.22 0 0 0-3.32.61h-.1a4.75 4.75 0 0 0-3.85 5.63l.12 1.14c.56 5.11 1 9.52 6 9.83a5.27 5.27 0 0 0 4-1.12 4.74 4.74 0 0 0 1.4-3.07c.46-4 .58-10.83-1.05-12.07a5.14 5.14 0 0 0-3.2-.95zm-3.5.12l-.13-.47z" class="cls-2" />
        <path d="M519.73 570.75c-3.78 0-6.43-1.18-7.85-3.49-3.54-5.75 1.78-16.41 2-16.86l.92.46c-.05.11-5.28 10.6-2 15.86 1.23 2 3.57 3 7 3s5.58-1 6.69-2.87c3-5.21-3-15.85-3-16l.9-.51c.26.46 6.36 11.26 3 17-1.37 2.26-3.92 3.41-7.66 3.41z" class="cls-2" />
        <path d="M493.19 575.29a5 5 0 0 1-4.81-2.67c-.11-.42-2.34-8.94.19-12.1s8.76-2.26 9-2.22l-.16 1c-.05 0-5.89-.87-8.07 1.84-1.83 2.29-.64 8.81 0 11.13 0 .05 1.23 2.78 5.77 1.72s4.33-4.48 4.33-4.52l1-.09s.34 4.36-5.12 5.63a9.76 9.76 0 0 1-2.13.28z" class="cls-2" />
        <path d="M486.94 579.49a6.27 6.27 0 0 1-3-.85s-5.35-1.94-4.24-8.5a5.83 5.83 0 0 1 2.49-4.12c2.56-1.67 6-.85 6.15-.81l-.25 1s-3.16-.75-5.34.68a4.85 4.85 0 0 0-2 3.43c-1 5.72 3.47 7.33 3.66 7.4a4.88 4.88 0 0 0 3.81.54c1.3-.45 2.32-1.68 3-3.66l1 .35c-.82 2.29-2.06 3.73-3.67 4.29a4.67 4.67 0 0 1-1.61.25z" class="cls-2" />
        <path d="M480.1 586.04c-3.15 0-4.8-1.62-5.33-2.77-1.35-3-2.09-7.6-.91-10.71.94-2.47 6-3.25 6.62-3.33l.14 1c-1.4.2-5.18 1.06-5.79 2.67-1.07 2.81-.35 7.21.88 9.91.06.12 1.45 3 6.56 1.91 2.73-.6 4.28-3 3.93-6.12l1-.11c.41 3.68-1.45 6.52-4.73 7.25a11.05 11.05 0 0 1-2.37.3z" class="cls-2" />
        <path d="M462.27 601.34h-.19a4.59 4.59 0 0 1-4.3-3.77c-.54-2.81-1-6.72-.09-9.33 1.45-4.18 8.43-2.64 8.73-2.58l-.23 1c-.07 0-6.38-1.41-7.52 1.91-.88 2.52-.3 6.59.13 8.79a3.55 3.55 0 0 0 3.31 2.93 7.7 7.7 0 0 0 3.31-.68c4-1.68 9.58.14 9.82.22.43.23 1.45.63 2.07.17s.87-2 .48-4.29c0-1-.16-5.57.64-6.68l.84.61c-.44.61-.53 3.86-.45 6 .47 2.73.17 4.47-.92 5.24-1.27.9-3 0-3.08-.07s-5.35-1.73-9-.21a9.31 9.31 0 0 1-3.55.74z" class="cls-2" />
        <path d="M463.54 596.96l-.7-.76a6.36 6.36 0 0 1 3.82-1.62h.28a4.14 4.14 0 0 1 3 1.66l-.8.65a3.16 3.16 0 0 0-2.24-1.29h-.21a5.4 5.4 0 0 0-3.15 1.36z" class="cls-2" />
        <path d="M456.45 614.66h-.19a4.6 4.6 0 0 1-4.3-3.77c-.44-2.3-1-6.57-.09-9.33 1.16-3.36 5.42-3.15 7.5-2.58l-.28 1c-.05 0-5.11-1.37-6.25 1.92-.88 2.53-.3 6.6.13 8.79a3.54 3.54 0 0 0 3.31 2.93 7.47 7.47 0 0 0 3.31-.68c4-1.68 9.59.14 9.82.22 0 0 3.26 1 4.84-.33.81-.7 1.07-2 .76-3.79-.05-1.78-.14-7.43.64-8.51l.84.61c-.39.55-.54 4.47-.45 7.8.37 2.12 0 3.72-1.11 4.68-2 1.75-5.68.58-5.84.53s-5.42-1.78-9.1-.25a9.3 9.3 0 0 1-3.54.76z" class="cls-2" />
        <path d="M459.05 608.52l-.7-.76a6.15 6.15 0 0 1 4.09-1.61 4.14 4.14 0 0 1 3 1.66l-.8.65a3.16 3.16 0 0 0-2.24-1.29h-.21a5.38 5.38 0 0 0-3.14 1.35z" class="cls-2" />
        <path d="M451.66 626.91h-.19a4.59 4.59 0 0 1-4.3-3.77c-.45-2.33-1.29-6.66-.07-9.37a4.43 4.43 0 0 1 5.75-2.51l-.37 1a3.45 3.45 0 0 0-4.44 2c-1.08 2.41-.28 6.53.15 8.75a3.54 3.54 0 0 0 3.31 2.93 7.09 7.09 0 0 0 3.31-.68c4-1.68 9.59.14 9.82.22 0 0 3.26 1 4.84-.33.81-.7 1.07-2 .76-3.79-.05-1.61-.13-6.71.64-7.79l.84.61c-.39.54-.55 4.1-.46 7.09.37 2.12 0 3.72-1.11 4.68-2 1.74-5.68.58-5.84.53s-5.42-1.78-9.1-.25a9.28 9.28 0 0 1-3.54.68z" class="cls-2" />
        <path d="M457.79 620.78l-.7-.76a6.36 6.36 0 0 1 3.82-1.62h.28a4.14 4.14 0 0 1 3 1.66l-.8.65a3.16 3.16 0 0 0-2.24-1.29h-.21a5.4 5.4 0 0 0-3.15 1.36z" class="cls-2" />
        <path d="M447.11 641.2h-.22a5.08 5.08 0 0 1-4.6-4.44c-.06-.35-.14-.74-.22-1.16-.57-3-1.43-7.41.17-10 2.31-3.8 5.43-3.05 5.57-3l-.26 1 .13-.5-.12.5c-.1 0-2.53-.58-4.43 2.55-1.39 2.28-.58 6.5 0 9.3.08.43.16.83.22 1.19a4.05 4.05 0 0 0 3.61 3.58 7.66 7.66 0 0 0 3.57-.81c4.37-2 10.37.17 10.61.26 0 0 3.34 1.17 5.09-.28 1-.84 1.36-2.45 1-4.79 0-1.27-.16-7.35.68-8.65l.87.57c-.49.75-.6 5.12-.52 8 .41 2.66 0 4.59-1.37 5.68-2.21 1.82-5.94.51-6.1.44s-5.85-2.13-9.83-.29a9.22 9.22 0 0 1-3.85.85z" class="cls-2" />
        <path d="M451.47 634.84l-.7-.76a6.4 6.4 0 0 1 4.09-1.61 4.14 4.14 0 0 1 3 1.66l-.8.65a3.16 3.16 0 0 0-2.24-1.29h-.21a5.4 5.4 0 0 0-3.14 1.35z" class="cls-2" />
        <path d="M451.89 646.1l-.7-.76a6.36 6.36 0 0 1 4.1-1.61 4.15 4.15 0 0 1 3 1.67l-.8.65a3.16 3.16 0 0 0-2.24-1.29h-.21a5.4 5.4 0 0 0-3.15 1.34z" class="cls-2" />
        <path d="M470.04 590.59h-.19a4.3 4.3 0 0 1-4-3.53c-.41-2.14-1-6.11-.08-8.67 1.36-3.91 7.87-2.48 8.14-2.42l-.23 1c-.06 0-5.88-1.29-6.94 1.75-.81 2.34-.27 6.1.12 8.14a3.25 3.25 0 0 0 3 2.69 7 7 0 0 0 3.05-.63 7.4 7.4 0 0 1 6.73.26s1.12.58 1.77.1c.37-.26.92-1.13.43-3.95l1-.18c.45 2.62.17 4.24-.85 5-1.2.85-2.83 0-2.9-.06a6.36 6.36 0 0 0-5.8-.19 8.63 8.63 0 0 1-3.25.69z" class="cls-2" />
        <path d="M470.64 585.91l-.7-.76a5.34 5.34 0 0 1 3.62-1.42 3.68 3.68 0 0 1 2.64 1.47l-.8.65a2.71 2.71 0 0 0-1.9-1.1h-.18a4.62 4.62 0 0 0-2.68 1.16z" class="cls-2" />
        <path d="M453.18 654.44a14.88 14.88 0 0 1-4-.55c-3.2-.88-5.36-2.51-6.4-4.85-1.91-4.27.58-9.31.69-9.52l.92.46s-2.37 4.82-.67 8.64c.91 2 2.84 3.48 5.73 4.27 10.26 2.8 16.17-6.92 16.23-7s1.53-3.11-.65-5.18l.71-.75c2.74 2.61.86 6.39.84 6.43s-4.85 8.05-13.4 8.05z" class="cls-2" />
        <path d="M551.39 571.99a5.86 5.86 0 0 1-4.11-1.41 5.77 5.77 0 0 1-1.73-3.81c-.12-1.07-1.16-10.91 1.46-12.91s6.24-.92 7.43-.54a5.8 5.8 0 0 1 4.67 6.77l-.13 1.13c-.56 5.1-1.13 10.38-7 10.75zm-.58-18.3a5.14 5.14 0 0 0-3.17 1c-1.63 1.24-1.51 8-1.06 12a4.81 4.81 0 0 0 1.41 3.13 5.3 5.3 0 0 0 4 1.11c5-.32 5.45-4.73 6-9.83l.12-1.14c.57-4.88-3.66-5.61-3.84-5.63h-.1a11.22 11.22 0 0 0-3.36-.64z" class="cls-2" />
        <path d="M536.42 570.75c-3.73 0-6.28-1.14-7.58-3.39-3.32-5.73 2.78-16.53 3-17l.9.51c-.06.11-6.07 10.75-3 16 1.11 1.91 3.36 2.87 6.69 2.87s5.75-1 7-3c3.24-5.27-2-15.75-2-15.86l.92-.46c.23.45 5.54 11.11 2 16.86-1.51 2.29-4.15 3.47-7.93 3.47z" class="cls-2" />
        <path d="M562.97 575.29a9.73 9.73 0 0 1-2.17-.27c-5.46-1.27-5.13-5.58-5.12-5.63l1 .09c0 .14-.23 3.47 4.33 4.52s5.74-1.67 5.79-1.78c.6-2.26 1.79-8.78 0-11.07-2.18-2.72-8-1.85-8.07-1.84l-.16-1c.27 0 6.47-1 9 2.22s.3 11.68.21 12a5 5 0 0 1-4.81 2.76z" class="cls-2" />
        <path d="M569.23 579.49a4.66 4.66 0 0 1-1.55-.26c-1.62-.56-2.85-2-3.67-4.29l1-.35c.71 2 1.73 3.21 3 3.66a4.85 4.85 0 0 0 3.7-.49c.29-.12 4.74-1.73 3.77-7.45a4.85 4.85 0 0 0-2-3.43c-2.19-1.44-5.3-.68-5.33-.68l-.25-1c.14 0 3.59-.86 6.15.81a5.83 5.83 0 0 1 2.49 4.12c1.12 6.61-4.29 8.53-4.35 8.55a6 6 0 0 1-2.96.81z" class="cls-2" />
        <path d="M576.07 586.04a11.13 11.13 0 0 1-2.4-.28c-3.29-.73-5.14-3.57-4.73-7.25l1 .11c-.35 3.11 1.19 5.52 3.93 6.12 4.1.91 6.09-.86 6.56-1.91 1.23-2.7 2-7.1.88-9.91-.62-1.62-4.39-2.48-5.79-2.67l.14-1c.58.08 5.68.86 6.62 3.33 1.18 3.12.44 7.75-.91 10.71-.49 1.14-2.15 2.75-5.3 2.75z" class="cls-2" />
        <path d="M593.89 601.34a9.28 9.28 0 0 1-3.54-.76c-3.69-1.54-9 .23-9.1.25a3.09 3.09 0 0 1-3 0c-1.08-.77-1.38-2.51-.9-5.31.06-2 0-5.3-.47-5.9l.84-.61c.8 1.11.68 5.7.65 6.61-.4 2.34-.23 3.86.47 4.37a2.18 2.18 0 0 0 2-.14c.32-.11 5.87-1.94 9.91-.26a7.8 7.8 0 0 0 3.31.68 3.55 3.55 0 0 0 3.31-2.93c.43-2.19 1-6.26.13-8.79-1.15-3.31-7.46-1.92-7.53-1.91l-.23-1c.3-.06 7.29-1.6 8.73 2.58 1 2.76.35 7-.09 9.33a4.59 4.59 0 0 1-4.3 3.77z" class="cls-2" />
        <path d="M592.62 596.96a5.4 5.4 0 0 0-3.12-1.35h-.21a3.16 3.16 0 0 0-2.24 1.29l-.8-.65a4.14 4.14 0 0 1 3-1.66h.28a6.36 6.36 0 0 1 3.82 1.62z" class="cls-2" />
        <path d="M599.73 614.66a9.28 9.28 0 0 1-3.54-.76c-3.7-1.54-9 .23-9.1.25s-3.82 1.22-5.84-.53c-1.11-1-1.48-2.56-1.1-4.75.08-3.25-.07-7.18-.47-7.73l.84-.61c.78 1.08.7 6.73.65 8.43-.32 1.89-.06 3.16.75 3.86 1.58 1.36 4.81.34 4.84.33.22-.08 5.77-1.9 9.82-.22a7.4 7.4 0 0 0 3.31.68 3.54 3.54 0 0 0 3.31-2.93c.43-2.19 1-6.25.13-8.79-1.14-3.28-6.2-1.93-6.24-1.92l-.28-1c2.08-.58 6.34-.79 7.5 2.58 1 2.76.36 7-.09 9.33a4.6 4.6 0 0 1-4.3 3.77z" class="cls-2" />
        <path d="M597.12 608.52a5.4 5.4 0 0 0-3.12-1.35h-.21a3.16 3.16 0 0 0-2.24 1.29l-.8-.65a4.14 4.14 0 0 1 3-1.66h.28a6.36 6.36 0 0 1 3.82 1.62z" class="cls-2" />
        <path d="M604.51 626.91a9.31 9.31 0 0 1-3.54-.76c-3.68-1.53-9 .23-9.09.25s-3.82 1.22-5.84-.53c-1.11-1-1.48-2.56-1.1-4.75.08-2.91-.07-6.47-.46-7l.84-.61c.78 1.08.69 6.18.65 7.72-.32 1.89-.06 3.16.75 3.86 1.58 1.36 4.81.34 4.84.33.23-.08 5.77-1.89 9.81-.22a7.21 7.21 0 0 0 3.31.68 3.54 3.54 0 0 0 3.31-2.93c.43-2.23 1.23-6.35.14-8.75a3.44 3.44 0 0 0-4.43-2l-.37-1a4.43 4.43 0 0 1 5.75 2.51c1.22 2.69.38 7-.07 9.35a4.6 4.6 0 0 1-4.3 3.79z" class="cls-2" />
        <path d="M598.38 620.78a5.4 5.4 0 0 0-3.12-1.35h-.21a3.16 3.16 0 0 0-2.24 1.29l-.8-.65a4.14 4.14 0 0 1 3-1.66h.28a6.36 6.36 0 0 1 3.82 1.62z" class="cls-2" />
        <path d="M609.06 641.2a9.17 9.17 0 0 1-3.82-.91c-4-1.84-9.77.27-9.83.29s-3.89 1.37-6.1-.44c-1.33-1.09-1.78-3-1.37-5.74.07-2.8 0-7.18-.52-7.93l.87-.57c.84 1.3.72 7.38.68 8.58-.37 2.4 0 4 1 4.85 1.76 1.44 5.06.29 5.09.27.25-.09 6.24-2.28 10.61-.26a7.76 7.76 0 0 0 3.57.81 4.05 4.05 0 0 0 3.62-3.58c.06-.35.14-.75.22-1.18.54-2.8 1.35-7 0-9.31-1.9-3.11-4.33-2.57-4.43-2.55l-.25-1c.13 0 3.26-.78 5.57 3 1.6 2.62.74 7.09.17 10-.08.42-.16.81-.22 1.16a5.09 5.09 0 0 1-4.6 4.44z" class="cls-2" />
        <path d="M604.73 634.84a5.4 5.4 0 0 0-3.12-1.35h-.21a3.16 3.16 0 0 0-2.24 1.29l-.8-.65a4.14 4.14 0 0 1 3-1.66h.28a6.36 6.36 0 0 1 3.82 1.62z" class="cls-2" />
        <path d="M604.27 646.1a5.4 5.4 0 0 0-3.12-1.35h-.21a3.16 3.16 0 0 0-2.21 1.29l-.8-.65a4.15 4.15 0 0 1 3-1.67h.28a6.38 6.38 0 0 1 3.82 1.62z" class="cls-2" />
        <path d="M586.12 590.59a8.61 8.61 0 0 1-3.29-.71 6.39 6.39 0 0 0-5.77.17c-.11.05-1.73.94-2.94.08-1-.73-1.3-2.35-.86-5l1 .18c-.48 2.82.07 3.68.43 3.95.67.48 1.8-.12 1.81-.13a7.42 7.42 0 0 1 6.69-.24 6.79 6.79 0 0 0 3.05.63 3.25 3.25 0 0 0 3-2.69c.39-2 .93-5.8.12-8.14-1.06-3-6.88-1.76-6.94-1.75l-.23-1c.28-.06 6.79-1.49 8.15 2.42.89 2.57.33 6.54-.08 8.67a4.31 4.31 0 0 1-4 3.53z" class="cls-2" />
        <path d="M585.52 585.91a4.59 4.59 0 0 0-2.85-1.15 2.71 2.71 0 0 0-1.9 1.1l-.8-.65a3.68 3.68 0 0 1 2.64-1.47 5.3 5.3 0 0 1 3.62 1.42z" class="cls-2" />
        <path d="M602.98 654.44c-8.56 0-13.38-7.94-13.43-8s-1.91-3.84.83-6.45l.71.75c-2.18 2.07-.7 5.08-.64 5.21.23.37 6 9.8 16.21 7 2.89-.79 4.82-2.23 5.73-4.28 1.71-3.83-.65-8.59-.67-8.64l.92-.46c.11.21 2.6 5.25.69 9.52-1 2.35-3.2 4-6.4 4.85a15 15 0 0 1-3.95.5z" class="cls-2" />
        <path d="M550.24 783.15a6.13 6.13 0 0 1-3.8-1.18c-2.63-2-1.59-11.85-1.46-13a5.75 5.75 0 0 1 1.75-3.73 6.13 6.13 0 0 1 4.73-1.39c5.84.37 6.41 5.66 7 10.77l.12 1.12a5.8 5.8 0 0 1-4.67 6.76 12.06 12.06 0 0 1-3.67.65zm3.5-1.15l.15.49zm-2.92-17.14a4.87 4.87 0 0 0-3.41 1.14 4.72 4.72 0 0 0-1.39 3.07c-.46 4-.58 10.83 1.05 12.07 2.24 1.7 5.33.73 6.5.37h.1a4.75 4.75 0 0 0 3.84-5.63l-.12-1.13c-.56-5.11-1-9.53-6-9.85z" class="cls-2" />
        <path d="M531.31 785.45c-.26-.46-6.36-11.26-3-17 1.31-2.25 3.85-3.39 7.58-3.39s6.43 1.18 7.85 3.49c3.54 5.75-1.78 16.41-2 16.86l-.92-.46c.05-.11 5.28-10.6 2-15.86-1.23-2-3.57-3-7-3s-5.58 1-6.69 2.87c-3 5.21 3 15.85 3 16z" class="cls-2" />
        <path d="M560.31 777.68a16.56 16.56 0 0 1-2.32-.16l.16-1c.06 0 5.88.89 8.07-1.84 1.83-2.29.64-8.81 0-11.13 0-.05-1.23-2.78-5.77-1.72s-4.33 4.48-4.33 4.52l-1 .09s-.34-4.36 5.12-5.63 7 2.37 7 2.41c.11.42 2.34 8.94-.19 12.1-1.61 1.97-4.62 2.36-6.74 2.36z" class="cls-2" />
        <path d="M569.48 770.85a9.94 9.94 0 0 1-2.18-.24l.25-1s3.16.75 5.34-.68a4.85 4.85 0 0 0 2-3.43c1-5.75-3.47-7.33-3.66-7.4a5 5 0 0 0-3.81-.55c-1.3.45-2.32 1.69-3 3.66l-1-.35c.82-2.29 2.06-3.73 3.67-4.29a5.85 5.85 0 0 1 4.58.6s5.35 1.95 4.24 8.5a5.83 5.83 0 0 1-2.49 4.12 7.27 7.27 0 0 1-3.94 1.06z" class="cls-2" />
        <path d="M575.12 766.58l-.14-1c1.4-.2 5.18-1.06 5.79-2.68 1.07-2.81.35-7.2-.88-9.91-.06-.12-1.44-3-6.57-1.91-2.73.61-4.27 3-3.93 6.12l-1 .11c-.41-3.68 1.45-6.52 4.73-7.25 4.72-1.05 7.09 1.08 7.73 2.49 1.35 3 2.09 7.6.91 10.71-.97 2.46-6.03 3.24-6.64 3.32z" class="cls-2" />
        <path d="M592.29 750.47a15.63 15.63 0 0 1-3.13-.33l.23-1c.06 0 6.38 1.4 7.53-1.91.88-2.54.3-6.6-.13-8.79a3.54 3.54 0 0 0-3.3-2.93 7.84 7.84 0 0 0-3.31.68c-4 1.68-9.58-.14-9.82-.22-.43-.23-1.47-.61-2.07-.18s-.87 2-.48 4.29c0 1 .15 5.57-.64 6.68l-.84-.61c.44-.61.53-3.86.46-6-.47-2.73-.17-4.47.92-5.24 1.26-.91 3 0 3.08.07s5.35 1.73 9 .21a9.6 9.6 0 0 1 3.73-.76 4.59 4.59 0 0 1 4.29 3.77c.44 2.29 1.05 6.56.09 9.33-.83 2.41-3.45 2.94-5.61 2.94z" class="cls-2" />
        <path d="M588.93 741.23h-.28a4.15 4.15 0 0 1-3-1.67l.8-.65a3.15 3.15 0 0 0 2.24 1.29h.21a5.31 5.31 0 0 0 3.11-1.35l.71.76a6.38 6.38 0 0 1-3.79 1.62z" class="cls-2" />
        <path d="M598.73 737.17a9.78 9.78 0 0 1-2.54-.34l.28-1c.05 0 5.11 1.36 6.25-1.92.88-2.54.3-6.6-.13-8.79a3.54 3.54 0 0 0-3.31-2.93 7.63 7.63 0 0 0-3.31.68c-4 1.68-9.58-.14-9.82-.22 0 0-3.26-1-4.84.33-.81.7-1.07 2-.76 3.79.05 1.78.14 7.43-.65 8.51l-.83-.61c.39-.55.54-4.47.45-7.8-.37-2.12 0-3.72 1.11-4.68 2-1.74 5.68-.58 5.84-.53s5.41 1.77 9.1.25a9.11 9.11 0 0 1 3.73-.76 4.59 4.59 0 0 1 4.3 3.77c.44 2.3 1.05 6.56.09 9.33-.76 2.27-2.96 2.92-4.96 2.92z" class="cls-2" />
        <path d="M593.43 729.67h-.28a4.15 4.15 0 0 1-3-1.67l.8-.65a3.16 3.16 0 0 0 2.24 1.29h.21a5.4 5.4 0 0 0 3.12-1.35l.7.76a6.38 6.38 0 0 1-3.79 1.62z" class="cls-2" />
        <path d="M604.39 724.84a4.65 4.65 0 0 1-1.65-.29l.37-1a3.45 3.45 0 0 0 4.44-2c1.08-2.41.28-6.53-.15-8.75a3.54 3.54 0 0 0-3.31-2.93 7.3 7.3 0 0 0-3.31.68c-4 1.67-9.59-.14-9.82-.22 0 0-3.26-1-4.83.33-.81.7-1.07 2-.76 3.79.05 1.61.13 6.71-.64 7.79l-.84-.61c.39-.54.55-4.1.46-7.08-.37-2.12 0-3.72 1.11-4.68 2-1.74 5.68-.58 5.83-.53s5.42 1.78 9.1.25a9.31 9.31 0 0 1 3.73-.76 4.6 4.6 0 0 1 4.3 3.77c.45 2.33 1.29 6.66.07 9.37a4.35 4.35 0 0 1-4.1 2.87z" class="cls-2" />
        <path d="M594.73 717.42h-.28a4.14 4.14 0 0 1-3-1.66l.8-.65a3.16 3.16 0 0 0 2.24 1.29 5.33 5.33 0 0 0 3.33-1.34l.7.76a6.36 6.36 0 0 1-3.79 1.6z" class="cls-2" />
        <path d="M608.58 713.34a3.46 3.46 0 0 1-.79-.08l.25-1c.1 0 2.53.58 4.43-2.55 1.39-2.28.57-6.51 0-9.31-.08-.43-.16-.82-.22-1.18a4.05 4.05 0 0 0-3.61-3.58 7.37 7.37 0 0 0-3.58.82c-4.36 2-10.36-.17-10.61-.27 0 0-3.33-1.17-5.09.28-1 .84-1.36 2.45-1 4.79 0 1.27.16 7.35-.68 8.65l-.87-.57c.49-.75.6-5.12.52-8-.41-2.66 0-4.59 1.37-5.68 2.22-1.82 5.94-.5 6.09-.44s5.85 2.12 9.83.29a9.74 9.74 0 0 1 4-.91 5.09 5.09 0 0 1 4.6 4.44c.06.35.14.74.22 1.16.57 3 1.43 7.42-.17 10s-3.54 3.14-4.69 3.14z" class="cls-2" />
        <path d="M601.01 703.34h-.28a4.14 4.14 0 0 1-3-1.66l.8-.65a3.16 3.16 0 0 0 2.24 1.29 5.14 5.14 0 0 0 3.32-1.34l.7.76a6.36 6.36 0 0 1-3.78 1.6z" class="cls-2" />
        <path d="M600.59 692.1h-.28a4.14 4.14 0 0 1-3-1.66l.8-.65a3.16 3.16 0 0 0 2.24 1.29 5 5 0 0 0 3.32-1.34l.7.76a6.36 6.36 0 0 1-3.78 1.6z" class="cls-2" />
        <path d="M584.6 760.15a14.34 14.34 0 0 1-2.91-.31l.23-1c.06 0 5.88 1.3 6.94-1.75.81-2.34.27-6.1-.12-8.14a3.25 3.25 0 0 0-3-2.69h-.16a7.56 7.56 0 0 0-2.9.63 7.44 7.44 0 0 1-6.73-.26s-1.12-.57-1.77-.1c-.37.26-.92 1.13-.43 3.95l-1 .18c-.45-2.61-.17-4.24.86-5 1.2-.85 2.83 0 2.9.06a6.4 6.4 0 0 0 5.8.19 8.82 8.82 0 0 1 3.48-.71 4.3 4.3 0 0 1 4 3.53c.41 2.14 1 6.11.08 8.67-.8 2.25-3.25 2.75-5.27 2.75z" class="cls-2" />
        <path d="M582.28 752.1h-.25a3.68 3.68 0 0 1-2.64-1.47l.8-.65a2.71 2.71 0 0 0 1.9 1.1 4.64 4.64 0 0 0 2.85-1.15l.7.76a5.6 5.6 0 0 1-3.36 1.41z" class="cls-2" />
        <path d="M612.08 696.34l-.92-.46s2.37-4.81.67-8.64c-.91-2-2.84-3.48-5.73-4.28-10.24-2.78-16 6.62-16.22 7 0 .1-1.52 3.1.65 5.18l-.71.75c-2.74-2.61-.87-6.38-.84-6.42s6.36-10.52 17.4-7.52c3.2.88 5.36 2.51 6.4 4.85 1.89 4.25-.59 9.28-.7 9.54z" class="cls-2" />
        <path d="M505.73 810.24a84.13 84.13 0 0 1-23.39-3.34c-.81-.2-21.59-5.83-45.19-46.62-23.48-40.58-18.12-112-17.88-115.05 2.56-81.63 57.18-111.3 59.45-112.5 1.13-.79 13.5-9.19 23.46-9.19a15.09 15.09 0 0 1 3.1.31c9 1.9 23.78 3 24.59 3.11h.39a215.17 215.17 0 0 0 23.88-3.06 15.06 15.06 0 0 1 3.09-.3c10.05 0 22.62 8.57 23.69 9.32 2.77 1.43 56.69 31 59.25 112.5.24 3 5.59 74.34-17.89 114.92-23.57 40.74-44.48 46.44-45.35 46.67a82.91 82.91 0 0 1-23.2 3.22 65.55 65.55 0 0 1-18.48-2.5 15.79 15.79 0 0 0-4.44-.71h-2.14a15.72 15.72 0 0 0-4.43.71 65.47 65.47 0 0 1-18.51 2.51z" class="man_outline" />
        <path d="M787.01 387.69c-2.39-8.29-15.8-57-37.92-179.43a7.27 7.27 0 0 0-8.71-5.82c-84.1 18.61-208.32-8.44-208.32-8.44l21.67 22.34c-136.41-27.54-214.28-3.44-242 8.53a23.85 23.85 0 0 0-14 17.59 569.42 569.42 0 0 0-9 99.66c0 62.78-17.08 57.55-17.08 57.55-6.91 0-8.23-7.38-8.37-12.1a52.59 52.59 0 0 0-1.09-9.44c-5-23.35-19.94-99.76-18.14-166.78a179.87 179.87 0 0 1 52.14-122.16C336.93 48.34 410.13.5 529.73.5s192.73 47.75 233.46 88.6a180.28 180.28 0 0 1 52.21 122.81c1.93 75.09-16.75 161.68-19.45 172.28-2 8.07-4.88 7.93-6.71 6.7a5.7 5.7 0 0 1-2.23-3.2z" class="man_outline" />
        <path d="M525.51 211.17q4.61.74 9.32 1.55l.47.08q9.2 1.61 18.78 3.54l-21.67-22.33s124.22 27 208.32 8.44a7.27 7.27 0 0 1 8.71 5.82c8.06 44.63 15 79.47 20.6 106.12h-236" class="man_outline" />
        <path d="M525.42 314.34H289.8a567.4 567.4 0 0 1 8.25-71.92 23.85 23.85 0 0 1 14-17.59c25.7-11.1 94.52-32.63 213.15-13.75z" class="man_outline" />
        <path d="M525.44 855.67h12.09c48.82 0 89.7-36.46 117-70l.25-.25v210.92H525.44z" class="man_outline" />
        <path d="M406.93 1142.47H.5s-.63-36.6 17.56-47.34c11.41-6.73 106.5-60 175.81-98.73H407z" class="man_outline" />
        <path d="M525.44 855.67h-1.35c-48.83 0-89.7-36.46-117-70L407 996.34h118.44V855.63" class="man_outline" />
        <path d="M343.36 730.81c1.77 30.63 2.57 60.5 1.93 86.09-2.14 86.89-47.38 118.58-62.24 129l-.7.49q-1.95 1.37-4 2.57l-11.17 6.49s-32 17.86-73.09 40.85l-.21.06h213.05V785.45l.07.09a341.83 341.83 0 0 1-36.39-54.73l-31.16-51.65z" class="man_outline" />
        <path d="M339.46 679.16c0-1.58.71 6.51-1.44-15.35-5.81-59-14.06-111.12-21.24-128.71a46.72 46.72 0 0 0-15.69-13.27 76.5 76.5 0 0 1-12.26-8.32h236.61v342.16h-1.35c-89.91 0-152.84-123.6-153.47-124.86z" class="man_outline" />
        <path d="M720.39 673.91c5.84-63.15 14.67-120.12 22.3-138.8a46.72 46.72 0 0 1 15.69-13.27 76.48 76.48 0 0 0 12.35-8.37H525.44v342.2h12.09c48.55 0 89.25-36.06 116.51-69.42 0 0 32.24-44.31 37-55.44l29.37-56.75z" class="man_outline" />
        <path d="M406.93 996.34h118.5v146.13h-118.5z" class="man_outline" />
        <path d="M525.09 996.34h129.64v146.13H525.09z" class="man_outline" />
        <path d="M865.31 996.34c69.32 38.77 164.5 92.06 175.91 98.79 18.19 10.74 17.56 47.34 17.56 47.34H655.07v-146.2z" class="man_outline" />
        <path d="M716.02 732.15c-1.71 30.16-2.48 59.53-1.86 84.74 2.14 86.88 47.37 118.58 62.24 129l1.36 1q1.3.92 2.68 1.73l11.67 6.86s32 17.86 73.06 40.83H654.73l.32-211.27a341.64 341.64 0 0 0 36-54.19l29.37-56.75z" class="man_outline" />
    </g>
    <g id="conteiner_content"></g>
    <g id="menu_container" x="40" y="40" transform="translate(40,40)"></g>
    <text id="ismobile" x="30" y="30">Mobile ve Tablet cihazlarda görüntülenmemektedir</text>
    <defs>
        <linearGradient id="Gradient1" x1="0" x2="0" y1="0" y2="1">
            <stop stop-color="#3399ff" offset="0%" />
            <stop stop-color="#0073e6" offset="100%" />
        </linearGradient>
        <linearGradient id="Gradient2" x1="0" x2="0" y1="0" y2="1">
            <stop stop-color="#eee" offset="0%" />
            <stop stop-color="#ccc" offset="100%" />
        </linearGradient>
        <filter id="dropshadow">
            <feGaussianBlur in="SourceAlpha" stdDeviation="2" />
            <feOffset dx="1" dy="1" result="offsetblur" />
            <feMerge>
                <feMergeNode />
                <feMergeNode in="SourceGraphic" />
            </feMerge>
        </filter>
        <pattern id="grid" width="12" height="12" patternUnits="userSpaceOnUse">
            <path d="M 0 0 L 12 0 12 12 0 12 z" stroke="#fff" stroke-width="1" fill="#eee"></path>
        </pattern>
        <link href="script.css" rel="stylesheet" type="text/css" xmlns="http://www.w3.org/1999/xhtml" />
        <script xlink:href="components/script.data.js"></script>
    </defs>
</svg>