<?xml version="1.0" encoding="utf-8"?>
<svg  id="container"  xmlns="http://www.w3.org/2000/svg" xmlns:xlink="http://www.w3.org/1999/xlink" preserveAspectRatio="xMinYMin meet"  viewBox="0 0 957.4 1438">

<g class="groupbox">

  <g id="BG" transform="translate(100,10)" style="pointer-events:none;" class="groupbox">
    <path id="Layer1_0_FILL" d="M548 137.4l-6.7 2.2v-.1l-29 9.5c-4.6-4.4-9.7-8.7-15.2-12.8-8.8-6.5-17.4-11.7-25.8-15.4-11.1-4.9-21.5-7.4-31.4-7.4-8.4 0-15.4 4.2-20.9 12.7-1.7 2.6-3.2 5.5-4.5 8.7-.6 1.6-1 2.9-1.3 4l.3 2.9c.3 2.3.9 4.4 1.7 6.4 2.4 6.1 6.5 9.2 12.1 9.2s12.9-2 21.9-5.9c4.5-1.9 8.4-3.9 11.8-5.9l5-.7c4-.4 7.7-.5 11-.4 10.6.6 15.9 4.2 15.9 10.8 0 7-2 12-5.9 14.8-3.1 2.3-6.4 2.8-9.9 1.6-4.9-1.8-8.1-2.8-9.5-3-4.5-.6-9.3.6-14.5 3.6-7.9 4.5-11.9 6.8-11.9 6.8-2.1 1.1-3.9 1.7-5.4 1.7-1 0-3.6-1.7-7.7-5.2-4.1-3.4-6.8-5.2-8.2-5.2-2.1 0-4.2.6-6.4 1.9-2.3 1.2-3.4 2.5-3.4 3.8 0 2.4 0 3.7-.1 3.9-.6 1.9-2.8 4.8-6.6 8.9-4.4 3.4-6.9 6.4-7.6 9-.9 3.2.1 7.6 2.9 13.3 2.5 5 6.8 9.1 12.9 12.2 3 1.5 5.8 2.6 8.3 3.2l20-8.4c13.9-5.6 22.2-8.4 24.9-8.4 2.8 0 7.5 1.1 13.9 3.4 1.5.5 6.3 2.3 14.2 5.4h4v.1l11.6 1.6c8.1 1.3 13.1 2.7 15 4.2 3.1 2.2 10.5 9.2 22.3 21l35.5-14.8c-.6-23-1.3-47.1-2.1-72.3h-.1c-.3-11.3-.6-19.7-.8-25.3l-30.3 4.4M513.1 0h-99.8l-26.6 39.6c-3.6 5.3-6.9 10.9-9.9 16.7l-3.3 6.5 2.6 4.8c1.9 3.4 3.3 5.5 4.2 6.4.8.8 2.5 1.2 5 1.2s4.9-.6 7.2-1.8c2.8-1.4 5.8-2.2 8.9-2.4l5.6 13.2 9 24.8 24.5-18.4c2.8-2.1 5.8-3.7 9.1-4.8 3.3-1.1 6.6-1.7 10.1-1.7 6.1 0 11.7 1.7 16.9 5l43.6 27.1 58.3 16.3c-.6-17.2-1.2-33.2-1.8-47.9-.8-19.4-11.6-36-32.4-49.9-6.5-4.3-13.6-8.1-21.3-11.4l-9.6-3.6V0m71.8 267.1l-27.8 24.7 1.7 54.3.1-.1-.1.1.3 11.6-38.4 36.7c-1 1.3-2.4 3.2-4 5.8-3.2 5.2-6.4 11.3-9.5 18.2-5.3 12.3-9.6 25.8-12.7 40.6-4.1 19.1-6.1 39.6-6.1 61.5 0 21.6-.8 38.8-2.3 51.8-.6 5.2-1.2 8.6-1.8 10.2-3.8 3.3-8.1 6.9-13.1 10.6-9.9 7.5-17.7 12.2-23.6 14.2-.3.9-1 3.3-2.1 7.2-1.1 4-2.1 7.3-3 9.8-2.1 5.5-4.2 9.5-6.3 12.1-2.7 3.2-5.7 4.9-9.1 5-1.7-.1-3.5-.6-5.4-1.6-2.5-1.3-4.2-2.2-5.1-2.5-4.8-1.6-11-.2-18.5 4.1-5.7 3.3-13.5 8.3-23.4 15-7.4 5-12.5 8-15.4 9-1 .2-7.4 1.2-19.3 2.9-10.4 1.4-19 3.5-25.9 6.2-5 2-10.2 3.3-15.7 4-8.1 1-13.8 2.9-17.2 5.5-2 1.1-3.5 2-4.5 2.6-1.9 1.1-3.4 2.6-4.6 4.6-3.4 5.6-5.3 17.2-5.8 34.9-4.7-.9-9.1-2.5-13.3-4.7-11.3-5.9-21.6-10.3-30.9-13.1-7.7-2.3-14.2-3.5-19.7-3.5-16.5 2.8-29.1 4.9-37.9 6.1-8.9 1.2-15.8 1.9-20.7 2l-2.6-.1c-3.6-.1-7.1-.7-10.4-1.7-4.1-1.5-7.6-2.7-10.6-3.6-1.7-.9-3.5-1.7-5.3-2.5 6.5-6.2 14.9-11.2 25.2-15 8.1-3 14.6-4.5 19.6-4.5 35.5-.5 70.1-5.4 103.7-14.5 16.8-4.5 30-9 39.7-13.5l6.9-5c5.5-3.5 10.5-5.7 15-6.5 4.5-.8 10.8-3.6 19-8.4 4.1-2.4 7.8-4.7 11-6.9l3.4-6.3c2.9-5.1 5.9-10.1 9-14.9 10-15.3 19.5-26 28.4-32.2 8.9-6.2 16.2-16.6 21.8-31.4 1.7-4.5 3.5-10.3 5.6-17.5 2.1-7.4 3.5-12.1 4.3-14.1 2.6-7.1 2.8-12.3.5-15.8-1.9-2.9-5.9-4.9-12.1-6-17.1 2.8-39.2 5.7-66.4 8.7-28.8 3.1-48.9 4.7-60.4 4.7-12.5 0-25.2-1.6-38.1-4.9-14.4-3.7-36.6-11.1-66.6-22.4-36.3-9.7-66.4-9.3-90.2 1.3-8.6 3.8-17.2 9.4-25.8 16.6-9 8.3-15.5 14.3-19.5 18-5.7 5.2-11.3 13.4-16.9 24.7-5 10.2-9.5 21.8-13.4 34.8-3.7 12.5-6.3 24.1-7.7 35-1.5 11.3-1.5 19.7-.1 25.2 2.5 9.4 4.8 33.8 6.8 73.1 1 19.7 2.1 38.1 3.3 55.3l.3-1.1c-1.8 8.5-1.7 19.1.4 31.8 1.5 9.3 4.3 20.7 8.4 34.1 1.4 4.4 3.3 10.1 5.5 17.2 2.4 7.4 2.6 15.1.7 23.2-5.8 22.5-7.8 39.8-5.8 51.9.8 4.9 2.4 10.2 4.8 16 1.4 3.4 3.8 8.9 7.3 16.6 1.3 2.9 2.3 6.3 3.2 10.4 1.9 9 1.7 20.2-.8 33.7-.6 3.7-1.7 9.1-3.1 16.3-1.2 6.3-1.9 11.7-2.2 16.1-.5 8.6 1.3 19.2 5.4 31.7 2.5 7.5 4.1 12.7 4.8 15.6 1.7 6.3 2.7 12.4 3.2 18.4.3 4.6.2 8.5-.5 11.9-.5 2.9-1.6 5.8-3.2 8.6s-4.6 6.7-9.1 11.9c-4.3 5.5-7.6 11.9-9.9 19-3 14-5.1 26.1-6.4 36.3-2 17.1-1.3 29.9 2.1 38.4 1.5 3.8 3.7 7.5 6.7 11.1 1.8 2.3 5.1 5.7 9.7 10.3 7.8 7.8 17.3 13 28.5 15.5 5.9 1.3 12.4 2.2 19.6 2.5 1 1 1 6.5-.2 16.3-1.2 10-2.9 19.4-5.2 28.1-1.1 4.4-1.6 10-1.4 16.7.2 6.6 1 13.1 2.5 19.5 1.5 6.8 3.5 12.1 5.9 16.1 2.7 4.5 5.8 6.8 9.1 6.8 6.5 0 11-2.6 13.7-7.9 2.3-4.6 2.6-9.7 1.1-15.4-7.3-17.6-11.8-29.4-13.4-35.4-.9-3.4-1.4-8-1.4-14 3-8.8 3.7-20 2.2-33.6l10.6-1.9c3.7-.6 7.9-2 12.6-4.3 6.6-3.1 13.7-7.7 21.4-13.6 7.1-5.4 13.2-12.4 18.3-21 3.8-6.4 6.9-13.4 9.3-21 1.3-3.9 1.7-8.4 1.1-13.4-.2-2.7-.9-5.4-2.1-8.2-.7-1.6-1.2-3.2-1.7-4.9 2.1-4.8 5.9-8.9 11.4-12.5 11.1-7.1 27.4-10.7 49.1-10.7 8.3 0 19.4-.3 33.3-.8 40.1-1.3 107.3-4.1 201.6-8.4 47.1-2.2 90.2-4.2 129.4-6.2l11.2.3c8.9-.2 17.1-1.2 24.5-3 23.8-5.8 35.7-18.7 35.7-38.7 0-5.2-.5-10.7-1.5-16.5-3.2-16.9-11.2-30-23.9-39.2-11.2-8.1-24.3-12.2-39.4-12.2-17.7 0-70.9 1.7-159.6 5.1-94.6 3.6-156.4 6.5-185.6 8.8-8.2.7-16.4.4-24.5-.9-7-1.1-12.2-2.7-15.5-4.8-4.1-2.5-5.9-6.1-5.6-10.6h-34.4c0 2.2 0 3.9-.1 5-.4 11.5 1.4 21.3 5.4 29.5 6.4 13 17.7 19.5 34.1 19.5l39.4-2.7c32.8-2.1 65.6-3.9 98.4-5.4 104.9-4.9 190.2-6.3 255.9-4 7.2.7 12.4 1.6 15.5 2.8 4.9 1.9 7.4 4.9 7.5 9-.1 3.3-2.6 6.8-7.6 10.5-6.6 4.7-14 7.2-22.3 7.6-67.3 3.6-180.1 9-338.5 16.3l-50.5 2.4c-5.5.4-11.7 1.4-18.5 2.9-13.6 3-24.4 7.6-32.5 13.8l.1.6c-1.1-3.7-2.3-7.5-3.7-11.4l-.9-2.6c-2.6-5.4-4.9-11.8-7.1-19.2-4.3-14.7-5.5-26.7-3.6-36.2 5.6-16.4 5.6-34.9-.1-55.6-1.9-6.9-4.6-14.3-7.9-22.2-3.5-7.7-5.7-12.7-6.7-15-.3-.8-.6-1.4-.7-1.8-2.2-5.9-3.1-11.5-2.5-17 .2-1.2 1.4-7 3.8-17.4 7.2-17.6 10.7-36.2 10.5-55.9-.2-14.7-2.4-29.5-6.7-44.7l-.1-.4c.4-1.2 1.1-2.2 2.3-2.9l1.6-.9c12.7-9.6 22.9-16.4 30.7-20.3 3.9-1.9 8-3 12.4-3.2 4.4-.2 8.6.6 12.7 2.3 29.2 11.9 50.4 17.5 63.5 16.9 4.7-.2 9.9-1.3 15.4-3.3 8.5-3.1 13.6-4.8 15.3-5.3 9.4-2.5 20.8-1.9 34.3 1.9 5.9 1.6 16.4 5.5 31.7 11.6 6.7 2.6 13.6 3.8 20.6 3.5 8.2-.5 18.9-2.2 32.3-5.2v-40.4h.4l.1 40.2c4.6-1.1 9.7-2.5 15.4-4 5-1.4 7.7-2.1 8.1-2.2 1.9-.3 7.8.5 17.7 2.5 6.2 1.2 18.7 3.7 37.5 7.5 13 2.5 26.1 1.5 39.4-3.1 6.7-2.3 12-4.8 16.1-7.6l2.5-1.3c2-1.1 4.2-2.1 6.4-3.1.5 1.5.8 3.2.8 5 0 8.8-1.3 14.4-3.8 16.7-1.2 1.1-3.1 2-5.6 2.7-.9.2-3.8.8-8.7 1.7-5.8 1-60.1 2.4-162.8 4L224 842.8c-1.9-.2-4.3-.2-7.2 0-5.8.5-11.1 2-15.9 4.5-15.4 8-23.1 24.5-23.1 49.5l-.3 6c0 4.8.4 9.3 1.2 13.3 2.7 12.8 9.1 19.3 19.3 19.3l201.3-7.1c136.7-4.6 211.3-6.6 223.8-6l4.3.3c3.4.3 6.6.9 9.5 1.8 9.2 2.7 13.8 7.3 13.8 14v.9c-.4 5.1-2.3 8.6-5.7 10.7-2.2 1.3-4.9 2-8 2l-6.1.1c-74.7 4.4-119.7 7-134.9 7.8-13.4.7-52 1.5-115.8 2.3-62.1.8-98.2 1-108.3.8-11.7-1-21-1.6-27.7-1.7-11.8-.2-24.4 1.4-37.8 4.7-10.9 2.7-18.5 9.9-22.9 21.5-2.8 7.5-4.1 16.1-3.9 25.8.1 1.2.1 2.8.1 5l34.4.3c.1-1.3.3-2.5.6-3.5 2-7 7.2-11.7 15.8-14.3 4.3-1.3 8.4-1.8 12.3-1.7l401.3-9c5.5-.4 10.5-1.5 15.1-3.2 14.7-5.4 22-16.2 22-32.2l.2-20c.3-7.1-1.1-14.2-4.1-21.3-6-14.2-17.1-21.3-33.4-21.3-26 0-168.8 4.2-428.3 12.5-1.6 0-3.2-.5-4.8-1.6-3.2-2.1-4.8-5.8-4.8-11 0-5.6 2.3-9.5 6.8-11.7 3.2-1.5 8.1-2.3 14.7-2.3 4.4 0 61-1.4 170-4.3 54.5-1.4 108.5-2.8 162.1-4.3l4.4-.8c3.5-.8 6.8-2 9.7-3.5 9.4-4.8 14.1-12.3 14.1-22.3v-20.9c-.2-7.9-.9-14.6-2-20 .9-.1 1.5-.1 2-.1 4.1 0 8.6.5 13.4 1.4 2.3.4 6.3 1.4 12.1 2.8 4.9 1.3 9.8 1.6 14.8 1.1 5-.6 9.8-2 14.3-4.3l5.7-3c4.1-2.2 8.1-4.5 11.8-6.9 1.6-1.1 3.4-1.8 5.3-2.1l-.3.1.7-.2c.8-.1 1.6-.2 2.5-.2l27 .2c.6.8 3.1 7.4 7.5 19.8 2.2 6.2 4.4 12.3 6.5 18.3v236.4c-.2 11.2-2.7 21.7-7.7 31.5-4.4 8.3-10.1 15.7-17 22.1-10.4 9.7-31.1 21.3-62.1 35-9.8 4.3-19.8 7.9-30.1 10.8l-6.7 2c-11.2 3.6-25.8 8.7-43.7 15.4l-23.6 9c-11.4 5.4-23.5 8.4-36.4 8.9l-.1-.2c-8.9.4-17.9-.6-26.8-3.1-17-4.9-31.7-6.7-44.1-5.4-12.4 1.2-23.1 5.6-32.3 13.1-21.1 18.1-34.6 35.8-40.5 53.1-2.3 6.8-3.7 14.3-4.1 22.3-.2 4.1-.2 11.2.2 21.3.4 12.1 5.1 25.2 13.9 39.2 3.6 5.7 9.9 14 18.9 24.9 10 15 18.6 30.5 25.6 46.4 3.3 7.5 5.4 12.4 6.1 14.6-.9-3.6-1-8.5-.3-14.7.8-7 2.6-10.3 5.3-9.7 2.5.6 5.4 4 8.6 10.2 1.6 3.1 3 6.1 4.1 9.1.3-2.5.9-5.1 1.8-7.7 1.7-5.1 4.1-7.7 7-7.7 2.9 0 5 2.1 6.3 6.4.6 2.1 1 4.3 1 6.4.6-1.9 1.6-3.9 2.8-5.8 2.5-3.8 5.3-5.7 8.5-5.5 3.1.2 5.4 3.4 6.7 9.7.6 3.1 1 6.3 1 9.4 1.5-4.9 6.6-15.1 15.4-30.7 7.7-13.9 14.2-24.8 19.4-32.7 10.4-15.5 17-32.6 19.6-51.5 2-14.4 1.6-29.2-1.1-44.5.6-.3 5.7-2.7 15.5-7.3 10.8-5 19.4-8.9 25.8-11.6 6-2.5 14.4-3.8 25.3-3.9 11.3-.1 18.3-.6 20.8-1.4 9.8-2.6 18.2-4.9 25.2-7.1 66.2-19.2 109.5-39.3 130-60.3 3.8-4 7.1-8.3 9.9-13 1.4-2.5 3.2-5.5 5.2-9 21.2-34.5 35.5-69.6 43-105.3 4.8-23.1 6.8-46.8 5.8-71.2-.2-7.3-.9-16-2.2-26l-1-6.7c-1.8-11.6-3.9-26.9-6.4-45.9-2.3-18.3-4.4-35.9-6.3-52.7-2-17.9-1.6-36.1 1-54.4.9-6.2 2.2-12.6 3.8-19.3 11.3-47.1 16-79.4 14-97-.8-6.7-2.6-12.6-5.5-17.6-3.7-5.3-6.4-9.5-8.3-12.7-16.8-20.6-33.3-32-49.7-34.3-10.8-1.5-22 1.3-33.6 8.3-8 9.8-18.2 22.6-30.5 38.5-11.9 15.4-19.6 25.1-23 29.3-.4-.5-.8-.9-1.1-1.2-.9-1.3-3.6-1.9-8-1.9-1.3-.1-3.2-.2-5.7-.3-21-.4-43.3.2-66.6 1.9-38.7 2.7-73.9 8-105.6 15.7-6.3 1.1-14.7 1.7-25.2 1.7-21-.1-41.9-3-62.9-8.8-3.9-.8-10.1-1-18.5-.7-9.9.4-19.3 1.6-28.3 3.5-24.9 5.3-38.7 14.4-41.3 27.5-.2.8-.1 1.5.3 2.2.4.7 1 1.1 1.8 1.4-1.2-.3-2.6-.5-4.2-.6l.2-1.9c.3-4.1 1.5-7.8 3.7-11.1s5.2-5.9 8.8-7.7c7.5-3.7 16.8-6.8 27.7-9.4 9.6-2.3 19.3-3.9 29.2-4.8 9.4-.8 16.4-.6 20.8.5 10.5 2.8 18.5 4.8 24 6 9.2 1.9 14.4 2.4 15.7 1.3 2.6-8.1 5.5-13 8.8-14.8.8-.4 1.5-.6 2.2-.5l30.4 11.7c46.3-9.6 83.3-18.7 110.9-27.4 6.8-2.2 13.2-4.8 19.1-8 15-7.7 27.8-18.2 38.3-31.6 17.5-22.5 30.4-45.6 38.9-69.3 11.8-33.1 13.7-65 5.7-95.7-4.1-16.1-9.7-31.6-16.8-46.5-12.3-25.4-28-44.9-47-58.4-6-4.3-12.1-7.8-18.1-10.4-3.3-1.4-6-2.3-8.1-2.8l-7.4-78.7z" class="path"/>
  </g>
  <g id="container_path_models"  transform="translate(100,10)" class="groupbox">
    
      <path d="M422.2 49.8s16 26-10.3 26" class="path"/>
      <path d="M541 139.5l-29 9.5c-4.8-4.6-9.8-8.8-15.2-12.7l-.5 82s22 2.3 26.6 5.7 22.3 21 22.3 21L541 139.5z" class="path"/>
      <path id="path3" d="M541.2 144.7l.1 13v.2s.3.3.4.3l36.9-.1c-.3-8.3-.5-17-.8-25.3l-30.1 4.6-6.8 2.2.3 5.1z" class="path"/>
      <path id="path4" d="M497 101.9l22.7 14.2 58.2 16.3c-.6-17.9-1.2-34.9-1.8-47.9-2-46.5-63.3-64.8-63.3-64.8V0H497v101.9z" class="path"/>
      <path d="M531.4 52.8l-15.5 10.4 3.9 52.7" class="path"/>
      <path  d="M21.1 763s-3-106.7-9-129.3 14-98 38-119.7 51.3-58.3 135.3-35.7c62 23.3 80.7 27.3 104.7 27.3s94.7-8 126.7-13.3c11.2 2 17.1 6.7 11.6 21.7s-10.2 48.3-31.6 63-40.8 53.3-40.8 53.3-19.3 13.3-30 15.3-21.9 11.4-21.9 11.4-58.1 26.7-143.4 28c-7.3 0-30 5.6-44.7 19.5 0 0-54.1-25.3-94.9 58.5z" class="path"/>
      <path id="path7" d="M50.7 1113.7c2.6-4.6 4-10.4 3.3-20-2-27.3-14.7-41.3-13.3-65.6 1.2-21.2 10.9-43.1 6-66l88.7-.1c.2.6.5 1.2.7 1.8 6 14 28 54 14.7 92.7-4.7 22.7 10.6 55.3 10.6 55.3s.2.7.6 1.9H50.7z" class="path"/>
      <path id="path8" d="M130.7 801.7c4.1 8.1 7.3 16.7 9.8 25.4" class="path"/>
      <path id="path9" d="M746.1 1175.2c-15.1 15.5-48 36.4-129.6 60.1l-31.7-68.9c2.3-.7 4.6-1.4 6.7-2 10.3-2.9 20.3-6.5 30.1-10.8 19.7-8.7 48.8-22.6 62.1-35 6.8-6.3 12.5-13.7 16.7-21.9l45.7 78.5z" class="path"/>
      <path id="path10" d="M808 950.6c1.1 8.6 1.9 17.3 2.2 26 1.3 33.1-.5 97.8-48.8 176.4-3.2 4.6-5.5 12.2-15 22l-45.8-78.5c5-9.8 7.6-20.5 7.7-31.5V950.7l99.7-.1z" class="path"/>
      <path id="path11" d="M795.4 790.9c-2.6 18-3 36.3-1 54.4 3.6 32.8 8.9 74.8 12.6 98.6.3 2.2.7 4.4.9 6.6l-99.6-.1V828.7s-12.7-36.2-13.7-37.9l100.8.1z" class="path"/>
      <path id="path12" d="M647.8 682.8c3.7.1 5.7.2 5.7.2 11.8 0 7.6 4.6 7.6 4.6-.9 1-1.8 2-2.6 2.9-2.9 3.1-6.6 5.4-10.6 6.6l-.1-14.3z" class="path"/>
      <path d="M647.5 682.8c-21.5-.4-98-.4-171.9 17.6 0 0-37.8 6.7-88-7.1-13.3-2.7-82 .1-88 30.3-.4 1.6.7 3.2 2.3 3.6h.2c8.9 1.5 29.1-2.7 41.5-4.5 10.7-1.5 21.5-.2 31.5 4 11.3 4.7 24.4 10.3 37.8 12.3l.6.1.5.1c8.9 1.2 18 .7 26.8-2.8 28.4-11.4 41.9-21 93.2-11.7 5.6 1 11.4-.1 16.2-3.2 11.9-7.6 37.2-20.5 92.4-23.4 1.6-.1 3.2-.3 4.8-.8l.1-14.5z" class="path"/>
      <path id="path14" d="M140.4 827.1l-109.3-.2c-7-23-14.1-51.5-7.3-71.2 11.5-19.3 48.9-74 97.5-48.7 8.9 2.8 12.3 5 20.9 5.3h2l-3.8 114.8z" class="path"/>
      <path id="path15" d="M25 1181.3c1.2-9.8 3.3-21.7 6.4-36.3 5.9-17.7 14.2-22.6 19-30.8l111.9.2c2.7 8 10.3 31.5 9.7 41.9-.1 5.7 1 11.4 3.2 16.6 1.1 2.6 1.8 5.4 2.1 8.2l-152.3.2z" class="path"/>
      <path id="path16" d="M104.2 1256.1c1.1 9.2 1.7 22.2-2.1 33.6 0 10-1.3 10.7 14.7 49.3 2.7 10-.7 23.3-14.7 23.3s-20.6-41.3-16-59 7.3-42.3 5.3-44.3c-6.8-1.3-29.3.7-48-18-14.6-14.6-22.7-22.7-18.5-58.8l152.6-.2c.4 4.2 0 8.4-1.3 12.4-3.8 12.1-11.7 29.9-27.5 42-17.3 13.3-28.4 16.9-33.9 17.8l-10.6 1.9z" class="path"/>
      <path id="path17" d="M140.5 825.8c.8-1.3 3.7-2.8 3.7-2.8 15.5-11.7 24.2-17 30.7-20.2 7.8-3.9 16.9-4.2 25-.9 67.8 27.6 70.2 14.7 94.2 8.4 21.6-5.7 47.6 6.1 65.9 13.4 6.5 2.6 13.6 3.8 20.6 3.5 10.7-.6 22.3-2.9 32.3-5.2v-82.8c-.1 0 .1-.1 0-.2-13.4-2-26.4-7.6-37.8-12.3-9.9-4.2-20.8-5.5-31.5-4-12.4 1.8-32.5 5.9-41.5 4.5-2.2-.5-4.4-.7-6.7-.7-7.5.2-14.3.2-20 0-7.5-.2-14.9-2.1-21.5-5.6-24.5-12.8-41-16.6-50.6-16.6-32.8 5.6-48.7 7.8-58.5 8l-4.3 113.5z" class="path"/>
      <path id="path18" d="M413.3 821.8c11.9-2.9 21.2-5.8 23.4-6.2 4.7-.7 24 4 55.1 10s55.5-10.7 55.5-10.7 24-13.3 40-13.3c9.4 0 17.9 2.3 25.5 4.2 9.8 2.5 20.1 1.4 29.1-3.2 1.9-1 3.8-2 5.6-3V697.1l-.4.2c-1.6.4-3.2.7-4.8.8-55.2 2.9-80.5 15.8-92.4 23.4-4.8 3.1-10.6 4.2-16.2 3.2-51.3-9.2-64.7.3-93.2 11.7-9 3.6-18.3 4-27.4 2.7l.2 82.7z" class="path"/>
      <path id="path19" d="M747.7 755.3s-15.2 40.2-73.1 34.4c-3.5-.3-7 0-10.3 1.1" class="path"/>
      <path id="path20" d="M481.1 1199.4c-9 .4-18.1-.7-26.8-3.1-34-9.7-58-7.3-76.3 7.7-47.7 41-45.3 68.3-44.3 96.7s25 54.7 32.7 64c24.7 37 33 66.3 31.7 61s-1-25.7 5-24.3 12.7 19.3 12.7 19.3 1.7-15.3 8.7-15.3 7.3 12.7 7.3 12.7 3.7-11.7 11.3-11.3 7.7 19 7.7 19c3.3-10.7 26-50 34.7-63.3 40-59.3 10-126 10-126l-14.4-37.1z" class="path"/>

<!-- SCRUM -->
<path id="path54" class="path" d="M386.3,1399c-15.2-29.8-39.7-61-39.7-61c-3.5-6.3-7.2-14.2-9.2-20.2l168.8-1.4c-8.3,33.9-41.4,83.2-41.4,83.2
		L386.3,1399z"/>
	<path  id="path55" class="path" d="M464.9,1399.6c-3.1,4.3-14.4,32.9-14.4,32.9c0.3-12.5-2.5-20.7-2.5-20.7c-8.8-12-17.2,14.4-16.3,11.8
		c1.3-14.8-5.2-16.5-5.2-16.5c-8.7-0.5-9.8,19-9.8,19c-4.4-17.9-11.4-22.4-11.4-22.4c-7.6-0.5-6.3,22.7-6.3,22.7
		c-3.6-7-7.8-18.3-12.6-27.5L464.9,1399.6z"/>
	<path  id="path56" class="path" d="M337.7,1318.2c-5.9-26.8-3.6-38.2-3.6-38.2c-2-32.3,31.4-63.1,31.4-63.1c31.3-44.4,94.1-18.9,94.1-18.9
		c39.2,19.4,46.9,69.7,46.9,69.7c2.2,17.7,1.9,33.9,0,49L337.7,1318.2z"/>
<!-- SCRUM END -->


      <path id="path21" d="M168.3 1124c15.5-13 48.5-15.5 48.5-15.5l49.9-2.3v38c-14.5.5-25.9.7-32.7.7-52 0-59.2 21.3-59.2 21.3l-6.5-42.2z" class="path"/>
      <path id="path22" d="M267.2 1106.2c192.6-8.9 307.1-14.7 338.4-16.3 8-.4 15.7-3 22.2-7.6 4-2.9 7.5-6.4 7.6-10.2H668c.9 5.3 1.4 10.7 1.4 16.1 0 48-71.3 41.3-71.3 41.3s-234.6 11.5-330.8 14.6l-.1-37.9z" class="path"/>
      <path id="path23" d="M179.6 1018c0 1.7 0 3.3-.1 5-.5 13.3 1.6 49 39.4 49 0 0 236-17.5 393.5-12 10.9 1 22.8 2.5 23 11.8l32.5-.1c-6.8-36-35.8-51.3-63.2-51.3-29.5 0-281 8.9-345.1 13.8-8.2.7-16.4.4-24.5-.9-12.5-2-21.8-5.6-21.1-15.3h-34.4z" class="path"/>
      <path id="path24" d="M179.6 1017.6c0-1.7 0-3.3-.1-5-.3-12.1 1.7-40.9 26.8-47.2 32-8 47-3.5 65.5-3s195.5-1.5 224-3c25.2-1.3 114.6-6.6 134.9-7.8 2-.1 4-.1 6.1-.1 4 .1 12.8-1.1 13.5-12.3 0 0 30.5-.4 30.5-.1V954c0 38.5-44 35.5-44 35.5l-394.2 8.8s-23.3-.7-28 16c-.3 1.1-.5 2.3-.6 3.5l-34.4-.2z" class="path"/>
      <path id="path25" d="M529.9 801.7s27-5.2 27 13.8-4 18.5-18 21-315 6-315 6-46.2-6-46.2 54c0 0-4.2 38.5 20.2 38.5 0 0 395-14.5 425-13 0 0 27.5 0 27.5 16v.9h30.5V934s1.5-42.5-37.5-42.5S215.3 904 215.3 904s-9.5 0-9.5-12.5 11-14 21.5-14 331.9-8.5 331.9-8.5 28.1-2.5 28.1-26.5 2-50.5-15-64l-42.4 23.2z" class="path"/>
      <path id="path26" d="M161.4 1129l-20 12" class="st1"/>
      <path id="path27" d="M169.4 1170.5l-5.5 4.5" class="st1"/>
      <path id="path28" d="M559.2 778.5l-241.9 5.2s-20 2.7-20-41.3" class="path"/>
      <path id="path29" d="M267 736.3c0-52.7 9-48 15-52.7 3.9-3.1 11-4.7 17.2-5.5 5.4-.7 10.6-2 15.7-4 17.3-6.8 36.8-6.8 44.4-8.9l7.1 26.7c-17.4 1.5-40.3 6.2-56.3 14-7.3 3.6-12 10.7-12.5 18.8-.4 6-.2 11.6-.2 11.6H267z" class="path"/>
      <path d="M168.3 609.7L238 577s-43.8-20.7-72.7-20.7" class="st2"/>
      <path d="M189.4 549l93.3 39.2 18-25.2" class="st2"/>
      <path  d="M114.3 709s-16.5 19.8-89.5 56.7" class="st2"/>
      <path id="path33" d="M503.9 1266.6s25.4-12.3 41.4-18.9 36-2 46-5.3c8.8-2.3 17.2-4.6 25-6.9l-31.7-68.9c-26.6 8.2-67 24.1-67 24.1-11.4 5.4-23.8 8.4-36.5 8.9l22.8 67z" class="path"/>
      <path id="path34" d="M795.5 790.7c.9-6.4 2.2-12.8 3.7-19.1 26-107.9 11.2-108.4.2-127.3-38-46.7-66.7-36-83.3-26-22 26.9-41.4 53.2-53.5 67.8-1.2-1.7-3.1-2.7-5.1-2.8l-9.8-.5.3 116.8c4-2.3 7.9-4.7 11.3-6.9 2.4-1.5 5.2-2.3 8.1-2.3l27.4.1 100.7.2z" class="path"/>
      <path id="path35" d="M135.2 961.6c-4.8-12.7-1.6-20 1.5-33.9 16-39.1 10.7-76.5 3.9-100.3l-109.2.1c1.8 6 3.7 11.6 5.2 16.6 2.4 7.5 2.5 15.6.6 23.2-13.2 50.8-4.3 59.5 6.3 84.4 1.4 3.2 2.4 6.5 3.2 9.9h88.5z" class="path"/>
      <path id="path36" d="M427.1 641c-7.1-.3-10-10.5-28.4 0-18.7 10.7-30.7 21.3-38.7 24l6.9 26.8c9.1-.8 16.6-.6 20.8.5 14 3.7 36.7 9.7 39.7 7.3 3.3-10.3 6.7-13.7 8.8-14.8l-9.1-43.8z" class="path"/>
      <path id="path37" d="M469.2 695.9c54.2-11.3 88.7-20.6 110.3-27.4 6.6-2.1 13-4.7 19.1-7.9L534.4 610l-65.2 85.9z" class="path"/>
      <path id="path38" d="M534 609.7l-47.6-37.6c-.9 7.8-1.8 10.2-1.8 10.2S462 602.3 448 607c-1.2 3.2-2.6 10.2-5 16.9l15 67.9 10.7 4.1 65.3-86.2z" class="path"/>
      <path id="path39" d="M584.7 418.2l-77.3.1c-8.8 20.3-18.7 53.8-18.7 102 0 26.1-1.1 41.8-2.1 50.8l65.8 52.4 32.3-205.3z" class="path"/>
      <path id="path40" d="M585 418.2l79.9-.1c7 14.7 12.5 30.1 16.5 45.9 17.9 69.1-18.3 131.2-44.6 165-10.2 13.1-23.1 23.9-37.9 31.6L553 624l32-205.8z" class="path"/>
      <path id="path41" d="M584.9 267l4.6 56.7h-31.3l-1-32z" class="path"/>
      <path id="path42" d="M577.2 417.7h-69.5c6.9-15.8 13.1-23.4 13.1-23.4l19.3-18.4.6-.6.7-.7 17.8-17-.3-11.6 4-.1h14.3v71.8z" class="path"/>
      <path id="path43" d="M457.4 691.6l-19.1-7.3c-.6-.1-1.3.1-1.9.4l-8.8-43.7c7.4-.2 11.9-7.8 15-15.9l14.8 66.5z" class="path"/>
      <path id="path44" d="M558.8 346l-.6-21.4h31.4l1.8 21.3z" class="path"/>
      <path id="path45" d="M577.2 418.2l87.4-.6c-29.5-60.7-71.3-71.2-73.1-71.6h-14.3v72.2z" class="path"/>
      <path id="path46" d="M545.3 244l35.4-13.7s-.9-34.5-2.1-72.3l-37.6.1 4.3 85.9z" class="path"/>
      <path id="path47" d="M496.4 135.9c-13.8-10.1-34.9-22.3-56.7-22.3-20.3 0-26.7 25.3-26.7 25.3s.6 18.3 14 18.3 33.7-11.7 33.7-11.7 31.7-6 31.7 9.7-10.3 18.3-15.7 16.3-12-6.2-24 .6-14 8.4-17.3 8.4-11.9-10.3-15.9-10.3-9.7 3-9.7 5.7 2 3.3-6.7 12.7c-8.1 6.3-10.7 10.3-4.7 22.3s21.1 15.3 21.1 15.3 38.3-16.7 44.9-16.7 21 6 28 8.7h4v-82.3z" class="path"/>
      <path d="M502.7 295l28.7-22" class="st2"/>
      <path d="M538 267l21.2-16.2" class="st2"/>
      <path d="M570.1 242.6l42.6-34.9" class="st2"/>
      <path d="M517 314.5l21-19.5" class="st2"/>
      <path d="M546.7 288l27.2-21" class="st2"/>
      <path d="M584.9 258.9l41-36.4" class="st2"/>
      <path id="path54" d="M496.5 0H413l-26.6 39.6c-3.6 5.4-6.9 10.9-9.9 16.7l-3.3 6.4s4.5 9 6.7 11.2c1 1 3 1.2 5 1.2 2.5-.1 5-.7 7.2-1.8 2.8-1.4 5.8-2.2 8.9-2.4l5.6 13.2 9 24.8 24.5-18.4c5.5-4.1 12.2-6.4 19.1-6.4 6 0 11.8 1.7 16.9 4.9l20.5 12.8L496.5 0z" class="path"/>
    
  </g>
  <g id="Outline" transform="translate(100,10)" style="pointer-events:none;" class="groupbox">
    
      <path d="M414 1l-32 47.7" class="st3"/>
      <path d="M374.2 63.7s4.5 9 6.7 11.2c1 1 3 1.2 5 1.2 2.5-.1 5-.7 7.2-1.8 2.8-1.4 5.8-2.2 8.9-2.4" class="st3"/>
      <path d="M423.2 50.8s16 26-10.3 26" class="st3"/>
      <path d="M407.6 85l9 24.8 24.5-18.4c5.5-4.1 12.2-6.4 19.1-6.4 6 0 11.8 1.7 16.9 4.9l43.8 27.4-4-53 15.5-10.5" class="st3"/>
      <path d="M548.7 138.3L513 150s-35.3-35.3-72.3-35.3c-20.3 0-26.7 25.3-26.7 25.3s.6 18.3 14 18.3 33.7-11.7 33.7-11.7 31.7-6 31.7 9.7-10.3 18.3-15.7 16.3-12-6.2-24 .6-14 8.4-17.3 8.4-11.9-10.3-15.9-10.3-9.7 3-9.7 5.7 2 3.3-6.7 12.7c-8.1 6.3-10.7 10.3-4.7 22.3s21.1 15.3 21.1 15.3 38.3-16.7 44.9-16.7 21 6 28 8.7" class="st3"/>
      <path d="M501 220.7s18.3 1 23 4.3 22.3 21 22.3 21l-4.3-87 11.3-13.3" class="st3"/>
      <path d="M513.7 20.7S575 39 577 85.5s4.7 145.8 4.7 145.8" class="st3"/>
      <path d="M503.7 296l28.7-22" class="st3"/>
      <path d="M539 268l21.2-16.2" class="st3"/>
      <path d="M571.1 243.6l42.6-34.9" class="st3"/>
      <path d="M518 315.5l21-19.5" class="st3"/>
      <path d="M547.7 289l27.2-21" class="st3"/>
      <path d="M585.9 259.9l41-36.4" class="st3"/>
      <path d="M22.1 764s-3-106.7-9-129.3 14-98 38-119.7 51.3-58.3 135.3-35.7c62 23.3 80.7 27.3 104.7 27.3s94.7-8 126.7-13.3c11.2 2 17.1 6.7 11.6 21.7s-10.2 48.3-31.6 63-40.8 53.3-40.8 53.3-19.3 13.3-30 15.3-21.9 11.4-21.9 11.4-58.1 26.7-143.4 28c-7.3 0-30 5.6-44.7 19.5 0 0-54.1-25.3-94.9 58.5z" class="st4"/>
      <path d="M558.2 292.7l2 66-38.5 36.7s-32 39.3-32 126c0 50.7-4 62-4 62S463 603.3 449 608c-2.7 7.3-6.6 34-20.6 34-7.4 0-10-10.7-28.7 0S369 663.3 361 666c-7 2.3-27.3 2.1-45.2 9.2-5 2-10.3 3.3-15.7 4-6.1.8-13.2 2.4-17.2 5.5-6 4.7-15 0-15 52.7" class="st3"/>
      <path d="M131.7 802.7s32.7 60.7 6 126c-3.3 14.7-6.7 22-.7 36s28 54 14.7 92.7c-4.7 22.7 10.6 55.3 10.6 55.3s11.3 32 10.7 44.7c-.1 5.7 1 11.4 3.2 16.6 2.8 6.8 3.1 14.4.9 21.4-3.8 12.1-11.7 29.9-27.5 42-26 20-38 18-38 18" class="st3"/>
      <path d="M665.5 684.7c12.1-14.5 29.5-38.5 51.5-65.3 16.7-10 45.3-20.7 83.3 26 11 18.9 25.8 19.4-.2 127.3-5.8 24.1-7.4 49-4.7 73.6 3.6 32.8 8.9 74.8 12.6 98.6 1.7 10.9 2.8 21.8 3.2 32.8 1.3 33.1-.5 97.8-48.8 176.4-8.7 12.7-11.3 47.3-170 89.3-10 3.3-30-1.3-46 5.3s-32.7 14.7-32.7 14.7l-8.9 4" class="st3"/>
      <path d="M300.7 724.6c-.4 1.6.7 3.2 2.3 3.6h.2c8.9 1.5 29.1-2.7 41.5-4.5 10.7-1.5 21.5-.2 31.5 4 19.1 8 43.3 18.6 65.6 9.7 28.4-11.4 41.9-21 93.2-11.7 5.6 1 11.4-.1 16.2-3.2 11.9-7.6 37.2-20.5 92.4-23.4 6.1-.3 11.9-3 16.1-7.5.8-.9 1.7-1.8 2.6-2.9 1.3-1.5 4.1-4.6-7.6-4.6 0 0-90.8-3.8-177.8 17.4 0 0-37.8 6.7-88-7.1-13.5-2.7-82.2.1-88.2 30.2z" class="st4"/>
      <path d="M103 1245.3s6.7 25.3 0 45.3c0 10-1.3 10.7 14.7 49.3 2.7 10-.7 23.3-14.7 23.3s-20.6-41.3-16-59 7.3-42.3 5.3-44.3c-6.8-1.3-29.3.7-48-18s-26.7-26.7-12-96c9.3-28 24.7-24 22.7-51.3s-14.7-41.3-13.3-65.7 14-49.7 2.7-76.4c-10.6-25-19.5-33.6-6.3-84.4 2-7.6 1.8-15.7-.6-23.2-7.5-24-21.3-63.3-12.7-88.3 11.6-19.3 48.9-74 97.6-48.7 18.7 6 13.4 9.1 82-2.7 9.6 0 26.1 3.8 50.6 16.6 6.7 3.5 14 5.4 21.5 5.6 5.7.2 12.6.2 20 0" class="st3"/>
      <path d="M749.7 755.3s-15.2 40.2-73.1 34.4c-5.7-.6-11.5.8-16.4 3.8-5 3.2-11 7-17.2 10.1-9 4.5-19.3 5.7-29.1 3.2-7.6-1.9-16.1-4.2-25.5-4.2-16 0-40 13.3-40 13.3s-24.5 16.7-55.6 10.7-50.4-10.7-55.1-10c-4 .6-32.5 10.2-56.1 11.5-7 .3-14.1-.8-20.6-3.5-18.3-7.3-44.3-19.1-65.9-13.4-24 6.3-26.5 19.2-94.2-8.4-8.1-3.3-17.2-3-25 .9-6.5 3.2-15.1 8.5-30.7 20.2l-4 3" class="st3"/>
      <path d="M496.3 1237.3s30 66.7-10 126c-8.7 13.3-31.3 52.7-34.7 63.3 0 0 0-18.7-7.7-19s-11.3 11.3-11.3 11.3-.3-12.7-7.3-12.7-8.7 15.3-8.7 15.3-6.7-18-12.7-19.3-6.3 19-5 24.3-7-24-31.7-61c-7.7-9.3-31.7-35.7-32.7-64s-3.4-55.7 44.4-96.7c18.3-15 42.3-17.3 76.3-7.7s63.3-5.8 63.3-5.8 48.1-18.9 73.9-26.1c10.3-2.9 20.3-6.5 30.1-10.8 19.7-8.7 48.8-22.6 62.1-35 21-19.7 24.6-41.7 24.6-53.7v-236s-12.7-36.2-13.7-37.9" class="st3"/>
      <path d="M175.9 1167.3s7.2-21.3 59.2-21.3 364-15.3 364-15.3 71.3 6.7 71.3-41.3-33.3-68-64.7-68c-29.5 0-281 8.9-345.1 13.8-8.2.7-16.4.4-24.5-.9-13.9-2.2-23.9-6.4-20.4-18.9 4.7-16.7 28-16 28-16l394.2-8.8s44 3 44-35.5v-20s1.5-42.5-37.5-42.5-428 12.5-428 12.5-9.5 0-9.5-12.5 11-14 21.5-14 331.9-8.5 331.9-8.5 28.1-2.5 28.1-26.5 2-50.5-15-64" class="st3"/>
      <path d="M530.9 802.7s27-5.2 27 13.8-4 18.5-18 21-315 6-315 6-46.2-6-46.2 54c0 0-4.2 38.5 20.2 38.5 0 0 395-14.5 425-13 0 0 27.5 0 27.5 16 0 12.4-9.4 13.7-13.5 13.6-2 0-4 0-6.1.1-20.3 1.2-109.7 6.4-134.9 7.8-28.5 1.5-205.5 3.5-224 3s-33.5-5-65.5 3c-25.1 6.3-27.1 35.1-26.8 47.2.1 3.4.1 6.9 0 10.3-.5 13.3 1.6 49 39.4 49 0 0 236-17.5 393.5-12 11 1 23 2.5 23 12 0 3.9-3.5 7.5-7.6 10.4-6.5 4.6-14.2 7.2-22.2 7.6-33.9 1.7-165.6 8.3-388.7 18.6 0 0-33 2.5-48.5 15.5" class="st3"/>
      <path d="M162.4 1130l-5.2 3.1" class="st3"/>
      <path d="M147.5 1138.9l-5.1 3.1" class="st3"/>
      <path d="M170.4 1171.5l-5.5 4.5" class="st3"/>
      <path d="M135.3 1146s-70 24.5-84 40.5c10 0 86.5 12 86.5 12l24.5-20.5-27-32z" class="st5"/>
      <path d="M89.7 1214s13.7 3.7 17.2 15.3" class="st6"/>
      <path d="M82.7 1223.3s.7 18.7 7 26.7c2.3-4 3.3-8 6.3-11.7" class="st6"/>
      <path d="M560.2 779.5l-241.9 5.2s-20 2.7-20-41.3" class="st5"/>
      <path d="M509 802H282.3s-14.3-.7-14.3-35.4" class="st5"/>
      <path d="M334.3 747s198.5 13.5 274-21c4 7.5 6.5 10-11 14.5-12.5 12-166.5 19.5-271 17 0 0-18.1-5.8-21 6.7-1.8 7.9 4.6 15.3 12.7 15.2 57-.8 260.7-5.9 260.7-5.9s123-24.2 143.3-63.4c1.9-3.6 1.2-7.9-1.7-10.7-6.2-5.9-20.4-13.5-45.5-13.5" class="st7"/>
      <path d="M585.9 268l6.5 79s63 14 90 118c17.9 69.1-18.3 131.2-44.6 165-14.6 18.7-34.5 32.5-57.2 39.6-21.6 6.7-56.3 16-110.6 27.4l-30.7-11.7s-5.6-1.3-11 15.3c-3 2.3-25.7-3.7-39.7-7.3-12-3.2-53 1.6-77.6 13.6-7.3 3.6-12 10.7-12.5 18.8-.4 6-.2 11.6-.2 11.6" class="st3"/>
      <path d="M305.1 755.3s27.2-8 29.2-48.7-29.2-84.6-29.2-84.6-18.8-32 4.6-52.7" class="st5"/>
      <path d="M305.1 737.3s25.2-6.7 20.6-51.3c-9.5-23.7-16-53.3-54-53.3-8.8 0-18 6.4-24 11.6-3.9 3.3-5.2 8.8-3.4 13.5 4.4 11.5 8.2 32.9-24 32.9-44 0-15.3-44.7-15.3-44.7s19.6-20 91.5-20c-8.1-15.3-18.5-69.3-120.6-8.7" class="st5"/>
      <path d="M169.3 610.7L239 578s-43.8-20.7-72.7-20.7" class="st5"/>
      <path d="M190.4 550l93.3 39.2 18-25.2" class="st5"/>
      <path d="M115.3 710s-16.5 19.8-89.5 56.7" class="st5"/>
    
  </g>
   <g id="conteiner_content"></g>
        <g id="menu_container" x="40" y="40" transform="translate(40,40)"></g>
</g>
       
        <text id="ismobile" x="30" y="30">Mobile ve Tablet cihazlarda görüntülenmemektedir</text>
<defs>

            <linearGradient id="Gradient1" x1="0" x2="0" y1="0" y2="1">
                <stop stop-color="#3399ff" offset="0%"/>
                <stop stop-color="#0073e6" offset="100%"/>
            </linearGradient>

            <linearGradient id="Gradient2" x1="0" x2="0" y1="0" y2="1">
                <stop stop-color="#eee" offset="0%"/>
                <stop stop-color="#ccc" offset="100%"/>
            </linearGradient>

            <filter id="dropshadow" >
            <feGaussianBlur in="SourceAlpha" stdDeviation="2"/> 
            <feOffset dx="1" dy="1" result="offsetblur"/>
            <feMerge> 
                <feMergeNode/> 
                <feMergeNode in="SourceGraphic"/> 
            </feMerge>
            </filter>

            <pattern id="grid" width="12" height="12" patternUnits="userSpaceOnUse"><path d="M 0 0 L 12 0 12 12 0 12 z" stroke="#fff" stroke-width="1" fill="#eee"></path></pattern>
            <link href="script.css" rel="stylesheet" type="text/css" xmlns="http://www.w3.org/1999/xhtml" />
            <script xlink:href="components/script.data.js"></script>
</defs>
</svg>