<?xml version="1.0" encoding="utf-8"?>
<svg id="container" xmlns="http://www.w3.org/2000/svg" xmlns:xlink="http://www.w3.org/1999/xlink" preserveAspectRatio="xMinYMin meet" viewBox="0 0 900.29 644.35">
    <g id="container_path_models" transform="translate(100,30)">
        <path d="M21.66.37s38.75 34.25 51.25 61.75c0 0 26 66.25 42 78.75 0-13.75 7.25-93.5 13-109.25" class="pop1_border" />
        <path d="M76.16 22.62l-8.25 8.25" class="pop1_border" />
        <path d="M74.16 39l7.13 15.75h6.37" class="pop1_border" />
        <path d="M88.66 43.25l-5.5 5.5" class="pop1_border" />
        <path d="M93.79 33.75s8.62-1.75 11.75 2.62 6.38 9.63 6.38 9.63l-2.62-11.75 8.5-6.5" class="pop1_border" />
        <path d="M100.91 55.75a15.4 15.4 0 0 1-3.25 9.38c3.25 1.13 10 3.38 13.88 7.75" class="pop1_border" />
        <path d="M94.66 74.5a130.56 130.56 0 0 1-.87 14.13" class="pop1_border" />
        <path d="M109.29 81.56l-7 13.32h8.75" class="pop1_border" />
        <path d="M.41 119.04s33 47.67 29 109.67c-5.67 46.33-11.67 58.33-11.67 58.33s-15 44.67 5.67 44.67c2.51-.75 5-1.71 7.7-2.73a77 77 0 0 1 46-2.81c12.7 3.18 30.64 5.34 30.64-7.79 0-20.33 0-73-22.33-114C71 177.9 58.66 163.1 51.73 155.94a224.56 224.56 0 0 1-22-26.68c-5.9-8.36-12.74-18.72-19.27-30.22" class="pop1_border" />
        <path d="M74.72 335.37a131.71 131.71 0 0 0-36.05 3.43c-14 3.37-28.75 9.44-28.75 20 0 20.14-2.75 34.49-1.5 42.8s.75 16.62.75 37.51c0 0 .75 49.6 39.25 53.88s45.25 1.51 45.25 1.51 32.25-5.79 32.25-27.44 2.75-20.9-7.25-46.83c-4-7.8-5.75-14.35-5.75-25.18 0-9.62.79-13.48-2.37-27.65a31.5 31.5 0 0 1-.06-13.32c1.68-8 3.28-17.94-6.57-17.94-7.84-.01-20.2-.44-29.2-.77z" class="pop1_border" />
        <path d="M51.29 510.86a13.75 13.75 0 0 0-6.17 13 10.16 10.16 0 0 0 4.29 7.34c7.83 5.5 42 29.83 67 40.17 16.91 7 27.11 10.93 37.31 12.75a46.7 46.7 0 0 0 25.9-2.86c14.05-5.76 34-15.36 34-25.05 0 0-.13-9.33-19.12-20.6a66.18 66.18 0 0 1-15.12-12.44c-10.93-12-30-31.67-46.53-36.52a14.56 14.56 0 0 0-11.92 1.72c-6.05 3.85-16.17 8.84-42.18 12-11.98 1.29-21.93 6.78-27.46 10.49z" class="pop1_border" />
        <path d="M134.08 36.87s-12 49.83 0 137.83c9.33 69.33 8.67 95.33 6.67 136.67s-18.67 136 22 172 44.66 0 44.66 0 8.67-40.67-13.33-151.67c-12-59.67-17.33-89-16-101" class="pop1_border" />
        <path d="M153.41 43.25s-14 139.46 36 204.79c19.68 26 52.67 55.33 52.67 104.67v128.75c0 14.34-.64 28.68.37 43 1.25 17.73.1 54.62-33.35 82.92-24.35 14-74.35 41.33-160.35 3.33" class="pop1_border" />
        <path d="M164.08 36.87s.67 137.83 14.67 162.5c11.48 20.22 35 49.63 54.69 75.74a81.48 81.48 0 0 1 15.8 38.86c7.06 55.88 17.44 195.26-5.07 267.46-5.18 16.62-20.19 30.86-35 40-21.53 13.22-59.13 28.51-110.4 20-34.69-11.39-78.69-26.06-98.36-17.39" class="pop1_border" />
        <path d="M109.08 318.7s.67 3.88-1.33 17.94" class="pop1_border" />
        <path d="M140.41 332.87s48.25 26.75 59.5 40.25" class="pop1_border" />
        <path d="M205.16 389.87s21.43 19 35.25-3.25" class="pop1_border" />
        <path d="M744.63.37s-38.75 34.25-51.22 61.75c0 0-26 66.25-42 78.75 0-13.75-7.25-93.5-13-109.25" class="pop1_border" />
        <path d="M690.13 22.62l8.28 8.25" class="pop1_border" />
        <path d="M692.13 39l-7.12 15.75h-6.38" class="pop1_border" />
        <path d="M677.63 43.25l5.5 5.5" class="pop1_border" />
        <path d="M672.51 33.75s-8.62-1.75-11.75 2.63-6.35 9.62-6.35 9.62l2.63-11.75-8.5-6.5" class="pop1_border" />
        <path d="M665.41 55.75a15.4 15.4 0 0 0 3.25 9.38c-3.25 1.13-10 3.38-13.87 7.75" class="pop1_border" />
        <path d="M671.63 74.5a130.56 130.56 0 0 0 .88 14.13" class="pop1_border" />
        <path d="M657.01 81.56l7 13.32h-8.75" class="pop1_border" />
        <path d="M765.88 119.04s-33 47.67-29 109.67c5.67 46.33 11.67 58.33 11.67 58.33s15 44.67-5.67 44.67c-2.51-.75-5-1.71-7.7-2.73a77 77 0 0 0-46-2.81c-12.7 3.18-30.64 5.34-30.64-7.79 0-20.33 0-73 22.33-114 14.42-26.48 26.76-41.28 33.69-48.44a224.56 224.56 0 0 0 22-26.68c5.9-8.36 12.74-18.72 19.27-30.22" class="pop1_border" />
        <path d="M691.58 335.37a131.71 131.71 0 0 1 36.05 3.43c14 3.37 28.75 9.44 28.75 20 0 20.14 2.75 34.49 1.5 42.8s-.75 16.62-.75 37.51c0 0-.75 49.6-39.25 53.88s-45.25 1.51-45.25 1.51-32.22-5.8-32.22-27.45-2.75-20.9 7.25-46.83c4-7.8 5.75-14.35 5.75-25.18 0-9.62-.79-13.48 2.37-27.65a31.5 31.5 0 0 0 .06-13.32c-1.68-8-3.28-17.94 6.57-17.94 7.8 0 20.16-.43 29.17-.76z" class="pop1_border" />
        <path d="M715 510.86a13.75 13.75 0 0 1 6.17 13 10.16 10.16 0 0 1-4.29 7.34c-7.83 5.5-42 29.83-67 40.17-16.91 7-27.11 10.93-37.31 12.75a46.7 46.7 0 0 1-25.9-2.86c-14.05-5.76-34-15.36-34-25.05 0 0 .13-9.33 19.12-20.6a66.18 66.18 0 0 0 15.12-12.44c10.93-12 30-31.67 46.53-36.52a14.56 14.56 0 0 1 11.97 1.72c6.05 3.85 16.17 8.84 42.18 12 11.93 1.29 21.88 6.78 27.41 10.49z" class="pop1_border" />
        <path d="M632.22 36.87s12 49.83 0 137.83c-9.33 69.33-8.67 95.33-6.67 136.67s18.67 136-22 172-44.67 0-44.67 0-8.67-40.67 13.33-151.67c12-59.67 17.33-89 16-101" class="pop1_border" />
        <path d="M612.88 43.25s14 139.46-36 204.79c-19.68 26-52.67 55.33-52.67 104.67v128.75c0 14.34.64 28.68-.37 43-1.25 17.73-.1 54.62 33.35 82.92 24.35 14 74.35 41.33 160.35 3.33" class="pop1_border" />
        <path d="M602.22 36.87s-.67 137.83-14.67 162.5c-11.48 20.22-35 49.63-54.69 75.74a81.48 81.48 0 0 0-15.8 38.86c-7.06 55.88-17.44 195.26 5.07 267.46 5.18 16.62 20.19 30.86 35 40 21.53 13.22 59.13 28.51 110.4 20 34.67-11.33 78.67-26 98.33-17.33" class="pop1_border" />
        <path d="M657.22 318.7s-.67 3.88 1.33 17.94" class="pop1_border" />
        <path d="M625.88 332.87s-48.25 26.75-59.5 40.25" class="pop1_border" />
        <path d="M561.13 389.87s-21.43 19-35.25-3.25" class="pop1_border" />
        <path d="M257.88 370.37s10.19 25.33 17.19 13 8-49.33 19-49.33 22 49.67 30.67 49.67 20.67-33.67 29.67-33.67c6.55 0 12.57 12 15.36 18.54a46.11 46.11 0 0 1 2 5.89c.88 3.19 3.63 9.56 11.63 9.56 4.44 0 6.66-5 7.65-8.4a57.38 57.38 0 0 1 3.38-8.91c3.31-6.81 9.08-17 14-17 7.33 0 16 16.33 23.33 29.33 3.93 7 8.43 6.08 11.77 3.77a14.86 14.86 0 0 0 5.75-8.51c2.58-9.84 10.79-37.59 21.49-37.59 13 0 11 50.05 22.67 50.05 7.67 0 14.33-11.72 15-16.39" class="pop1_border" />
        <path d="M240.41 599.37s127-92 288.33 0" class="pop1_border" />
        <text class="pop2_border" transform="translate(105.18 541.58)">
    S
  </text>
        <text class="pop2_border" transform="translate(616.18 541.58)">
    S
  </text>
        <text class="pop2_border" transform="translate(677.68 429.58)">
    A
  </text>
        <text class="pop2_border" transform="translate(677.68 289.08)">
    E
  </text>
        <text class="pop2_border" transform="translate(170.01 398.91)">
    I<tspan x="-8.6" y="40">A</tspan><tspan x="-5.85" y="80">S</tspan></text>
        <text class="pop2_border" transform="translate(586.01 398.91)">
    I<tspan x="-8.6" y="40">A</tspan><tspan x="-5.85" y="80">S</tspan></text>
        <path d="M215.74 555.37s8.33 5 24.67-8.33" class="pop1_border" />
        <path d="M525.88 548.04s7.53 6.67 21.86 8.67" class="pop1_border" />
    </g>
    <g id="conteiner_content"></g>
    <g id="menu_container" x="40" y="40" transform="translate(40,40)"></g>
    <text id="ismobile" x="30" y="30">Mobile ve Tablet cihazlarda görüntülenmemektedir</text>
    <defs>
        <linearGradient id="Gradient1" x1="0" x2="0" y1="0" y2="1">
            <stop stop-color="#3399ff" offset="0%" />
            <stop stop-color="#0073e6" offset="100%" />
        </linearGradient>
        <linearGradient id="Gradient2" x1="0" x2="0" y1="0" y2="1">
            <stop stop-color="#eee" offset="0%" />
            <stop stop-color="#ccc" offset="100%" />
        </linearGradient>
        <filter id="dropshadow">
            <feGaussianBlur in="SourceAlpha" stdDeviation="2" />
            <feOffset dx="1" dy="1" result="offsetblur" />
            <feMerge>
                <feMergeNode />
                <feMergeNode in="SourceGraphic" />
            </feMerge>
        </filter>
        <pattern id="grid" width="12" height="12" patternUnits="userSpaceOnUse">
            <path d="M 0 0 L 12 0 12 12 0 12 z" stroke="#fff" stroke-width="1" fill="#eee"></path>
        </pattern>
        <link href="script.css" rel="stylesheet" type="text/css" xmlns="http://www.w3.org/1999/xhtml" />
        <script xlink:href="components/script.data.js"></script>
    </defs>
</svg>